<svg width="169" height="64" viewBox="0 0 169 64" fill="none" xmlns="http://www.w3.org/2000/svg">
<path d="M20.025 8.53581C13.4956 10.6899 6.9388 13.956 3.14422 19.6629C-3.98912 30.3909 1.843 45.8339 12.3385 53.3695C22.834 60.9051 36.3994 62.4161 49.3103 63.1754C75.0036 64.6886 100.778 64.1185 126.378 61.4707C133.255 60.7578 140.224 59.8667 146.579 57.1586C158.075 52.2614 166.705 41.2235 168.645 28.938C169.962 20.585 167.698 10.9146 160.506 6.4088C156.197 3.69678 150.88 3.27835 145.795 2.96453C105.606 0.469462 58.9331 -4.29208 20.025 8.53581Z" fill="#42E532"/>
<path fill-rule="evenodd" clip-rule="evenodd" d="M5.43829 21.1649L5.43827 21.1649C2.42773 25.6925 2.05739 31.3506 3.7606 36.9216C5.46764 42.5052 9.19719 47.7478 13.9496 51.1599C23.7259 58.1791 36.5296 59.6916 49.4729 60.4529L49.4731 60.4529C75.0172 61.9573 100.642 61.3905 126.094 58.7581C132.981 58.0441 139.567 57.1789 145.494 54.6527L145.494 54.6525C156.12 50.1263 164.135 39.8771 165.929 28.5165C167.162 20.6967 164.912 12.3948 159.039 8.7149L159.037 8.71339L159.034 8.71187C155.413 6.43243 150.814 6.00684 145.625 5.68655L145.624 5.68649C141.723 5.44432 137.77 5.18205 133.778 4.91715C96.3727 2.43526 55.4757 -0.278308 20.8916 11.124C14.5262 13.224 8.71086 16.2431 5.43829 21.1649ZM168.645 28.938C166.705 41.2235 158.075 52.2614 146.579 57.1586C140.224 59.8668 133.255 60.7578 126.378 61.4707C100.778 64.1185 75.0036 64.6886 49.3103 63.1754C36.3994 62.4161 22.834 60.9051 12.3385 53.3695C1.843 45.8339 -3.98912 30.3909 3.14422 19.6629C6.9388 13.956 13.4956 10.6899 20.025 8.53581C55.1566 -3.04698 96.6185 -0.289161 133.922 2.19209C137.933 2.45882 141.895 2.72235 145.795 2.96453C150.88 3.27835 156.197 3.69678 160.506 6.4088C167.698 10.9146 169.962 20.585 168.645 28.938Z" fill="black"/>
<path d="M35.8001 34.6442C34.7322 34.6442 33.9799 33.9006 33.8798 32.7537C33.8324 32.0884 33.8243 31.421 33.8555 30.7548C33.8555 30.3875 33.8737 30.0052 33.8555 29.6379C33.8597 29.5339 33.8378 29.4305 33.7918 29.3369C33.6294 29.14 33.5157 28.9081 33.4598 28.6598C33.404 28.4115 33.4075 28.1537 33.4702 27.907C33.5392 27.6717 33.6635 27.4559 33.8327 27.2775C34.002 27.0991 34.2115 26.963 34.444 26.8804C36.1672 26.1971 37.7174 25.592 39.1857 25.0381H39.216C39.216 25.0381 39.216 25.014 39.216 25.0019C39.2579 24.2906 39.3686 23.5849 39.5467 22.8947C39.6802 22.3889 39.8501 21.8952 40.023 21.4166C40.1171 21.1577 40.2111 20.8868 40.296 20.6218C39.4587 20.9078 38.6123 21.2239 37.7932 21.525C37.3887 21.6795 36.9843 21.83 36.5798 21.9765L36.3826 22.0518C36.144 22.1548 35.8947 22.2315 35.6393 22.2806C35.539 22.2967 35.4376 22.3048 35.3359 22.3046C35.0367 22.3029 34.7448 22.2126 34.4977 22.0451C34.2506 21.8777 34.0596 21.6408 33.949 21.3649C33.8385 21.0889 33.8136 20.7865 33.8775 20.4965C33.9414 20.2064 34.0911 19.9419 34.3075 19.7368C34.5507 19.4965 34.8394 19.3062 35.157 19.1769C36.6465 18.6049 38.1027 18.057 39.574 17.5543C40.0586 17.4026 40.5646 17.3294 41.0727 17.3375C42.5895 17.3375 43.6392 18.349 43.6452 19.8C43.6306 20.3546 43.544 20.9051 43.3874 21.4377C43.2541 21.9602 43.0796 22.4715 42.8656 22.9669C42.47 23.9324 42.3271 24.9814 42.45 26.0164C42.4835 26.2863 42.4586 26.5602 42.377 26.8197C42.2954 27.0793 42.1589 27.3186 41.9767 27.5216C41.7763 27.729 41.5342 27.8922 41.2661 28.0006C40.9979 28.109 40.7098 28.1602 40.4204 28.1508H40.2718H40.1686C39.9836 28.1369 39.7976 28.1563 39.6195 28.208C38.7549 28.5361 37.8964 28.9064 37.0894 29.2616C37.0469 29.8216 37.0227 30.3905 36.9984 30.9474L37.86 30.6283C38.8095 30.2791 39.7924 29.9149 40.7784 29.5988C41.6627 29.3268 42.5662 29.1205 43.4814 28.9817C43.6209 28.9597 43.7619 28.9486 43.9031 28.9485C44.2523 28.95 44.5988 29.009 44.9285 29.1232C45.1597 29.1783 45.3701 29.2979 45.535 29.4678C45.6999 29.6377 45.8125 29.8509 45.8593 30.0822C45.9062 30.3135 45.8855 30.5532 45.7996 30.7732C45.7136 30.9932 45.5661 31.1842 45.3745 31.3237C45.0195 31.6453 44.5869 31.8703 44.1185 31.977C41.5914 32.4617 39.2312 33.4039 36.8376 34.4094C36.5113 34.5563 36.1584 34.6361 35.8001 34.6442V34.6442Z" fill="white"/>
<path d="M41.0938 17.9401C42.2375 17.9401 43.0324 18.6867 43.0384 19.8035C43.0219 20.3073 42.9414 20.8069 42.7988 21.2906C42.6747 21.7828 42.5104 22.2641 42.3073 22.7296C41.8742 23.7876 41.7156 24.9365 41.8462 26.0711C41.9251 26.9532 41.3183 27.5342 40.4203 27.5342H40.3051H40.1685C39.9089 27.5308 39.6508 27.5746 39.4071 27.6636C38.5243 28.0008 37.6597 28.3741 36.7951 28.7534C36.7254 28.7785 36.6621 28.8184 36.6097 28.8705C36.5573 28.9225 36.517 28.9853 36.4917 29.0544C36.428 29.81 36.4007 30.5596 36.3703 31.3212C36.3735 31.4703 36.3856 31.6191 36.4068 31.7668C36.5645 31.7246 36.6707 31.7066 36.7738 31.6704C38.1663 31.1677 39.5466 30.6288 40.9573 30.1652C41.814 29.9014 42.6891 29.7002 43.5754 29.5632C43.6818 29.5474 43.7893 29.5394 43.897 29.5391C44.1789 29.5418 44.4585 29.5896 44.7252 29.6806C45.3319 29.8943 45.4563 30.4332 44.9679 30.8606C44.6931 31.1107 44.3592 31.2877 43.9971 31.3754C41.4093 31.8721 38.9975 32.8354 36.5948 33.8439C36.3406 33.9562 36.0661 34.0166 35.7879 34.0215C35.0689 34.0215 34.5471 33.5399 34.4712 32.6789C34.3833 31.6644 34.4712 30.6349 34.4712 29.6083C34.4777 29.3724 34.411 29.1401 34.2801 28.943C33.8342 28.3771 33.9768 27.6997 34.6654 27.4378C36.2389 26.8117 37.8164 26.1986 39.398 25.5985C39.5269 25.5698 39.641 25.4958 39.719 25.3901C39.7971 25.2844 39.834 25.1541 39.8227 25.0235C39.8585 24.3501 39.9601 23.6816 40.1261 23.0276C40.3445 22.2028 40.6782 21.4081 40.93 20.5922C41.0908 20.0714 41.0817 19.8487 40.8026 19.8487C40.6301 19.8629 40.4605 19.9014 40.299 19.9631C38.9702 20.4056 37.6657 20.9113 36.3552 21.387C36.0881 21.5039 35.8109 21.5966 35.527 21.6639C35.4633 21.6682 35.3995 21.6682 35.3359 21.6639C35.1576 21.6621 34.984 21.6075 34.8373 21.5072C34.6905 21.4068 34.5773 21.2653 34.5121 21.1007C34.4469 20.9361 34.4328 20.7559 34.4714 20.5833C34.5101 20.4106 34.5998 20.2534 34.7291 20.1317C34.9159 19.9588 35.1342 19.8229 35.3723 19.7313C36.8345 19.1804 38.2967 18.6295 39.7742 18.1237C40.1951 17.993 40.6346 17.9309 41.0756 17.9401H41.0938V17.9401ZM41.0938 16.7359H41.0695C40.4954 16.7278 39.9237 16.8122 39.3767 16.9858C37.8933 17.4946 36.431 18.0425 34.9415 18.6084C34.5469 18.7636 34.1879 18.996 33.8857 19.2918C33.5788 19.5797 33.3661 19.9526 33.2752 20.362C33.1844 20.7713 33.2195 21.1983 33.3761 21.5876C33.5327 21.9769 33.8036 22.3106 34.1535 22.5453C34.5035 22.7801 34.9165 22.9051 35.3389 22.9042C35.468 22.9036 35.5969 22.8926 35.7242 22.8711C36.0204 22.812 36.3093 22.7212 36.5857 22.6002L36.7708 22.5279L38.0055 22.0733L39.3161 21.5857C39.1887 21.9529 39.0643 22.3292 38.9611 22.7206C38.8023 23.3359 38.6948 23.9632 38.6396 24.596C37.2653 25.1198 35.8152 25.6828 34.2195 26.318C33.9 26.4366 33.613 26.6276 33.3812 26.8759C33.1494 27.1242 32.9794 27.4228 32.8846 27.7479C32.7999 28.0666 32.7887 28.4002 32.8517 28.7238C32.9147 29.0475 33.0504 29.3529 33.2487 29.6173V29.6475C33.2487 30.0027 33.2487 30.3609 33.2487 30.7372C33.2175 31.4265 33.2256 32.117 33.2729 32.8053C33.4034 34.2654 34.4166 35.2468 35.8 35.2468C36.2409 35.2415 36.6763 35.1483 37.0802 34.9728C39.4435 33.9824 41.7703 33.0522 44.2398 32.5645C44.8136 32.4366 45.3444 32.1639 45.7809 31.7728C46.0532 31.5642 46.2615 31.2844 46.3822 30.9647C46.5029 30.645 46.5313 30.2982 46.4642 29.9634C46.397 29.6286 46.237 29.3191 46.0021 29.0697C45.7672 28.8202 45.4668 28.6408 45.1347 28.5517C44.7443 28.4174 44.3344 28.3472 43.9212 28.344C43.7464 28.344 43.5719 28.3581 43.3994 28.3861C42.4547 28.53 41.5219 28.7423 40.6084 29.0213C39.6103 29.3434 38.6214 29.7107 37.6657 30.0629C37.6657 29.9304 37.6657 29.795 37.687 29.6625C38.3878 29.3615 39.1189 29.0604 39.8561 28.7594C39.9607 28.7251 40.0705 28.7088 40.1807 28.7112H40.2535H40.4325C40.8028 28.7222 41.1713 28.6563 41.5145 28.5179C41.8577 28.3795 42.168 28.1716 42.4256 27.9075C42.6617 27.6443 42.8398 27.3352 42.9485 26.9998C43.0571 26.6643 43.094 26.3101 43.0566 25.9597C42.9407 25.0226 43.067 24.0716 43.4237 23.1962C43.6507 22.6748 43.8353 22.1363 43.9758 21.5857C44.1439 21.0036 44.2366 20.4028 44.2519 19.7975C44.2593 19.3873 44.1821 18.9799 44.025 18.6004C43.868 18.2208 43.6344 17.8772 43.3387 17.5904C43.0429 17.3037 42.6912 17.08 42.3052 16.9331C41.9192 16.7862 41.5069 16.7191 41.0938 16.7359V16.7359Z" fill="black"/>
<path d="M72.1862 35.6859C72.0845 35.685 71.983 35.6759 71.8828 35.6588C71.4393 35.5902 71.0369 35.3614 70.753 35.0164C70.4691 34.6713 70.3237 34.2343 70.3447 33.7893C70.3729 33.2411 70.4357 32.6951 70.5328 32.1547C70.5571 32.0012 70.5814 31.8537 70.6026 31.6911L70.636 31.4713C70.733 30.794 70.8362 30.0956 70.9606 29.4002L70.3144 29.5387C69.9928 29.6109 69.6682 29.6802 69.3466 29.7434C68.2909 29.9451 67.2564 30.1377 66.2007 30.3124C65.8999 30.3624 65.5955 30.3876 65.2906 30.3876C65.1753 30.3876 65.06 30.3876 64.9447 30.3876C64.5259 30.3797 64.1229 30.2271 63.8051 29.9563C63.4873 29.6854 63.2746 29.3132 63.2034 28.9035C63.0699 28.0636 63.5887 27.2809 64.4927 26.9558C64.6996 26.8864 64.9116 26.8331 65.1268 26.7962L66.316 26.5524C67.5507 26.3146 68.8279 26.0677 70.0929 25.845C70.4324 25.7917 70.7748 25.7585 71.1183 25.7456C71.3519 25.7456 71.5764 25.7215 71.7918 25.6944C71.8039 25.6958 71.8161 25.6958 71.8282 25.6944L71.9344 25.3934C72.256 24.4903 72.5897 23.524 72.8202 22.5847C72.8808 22.417 72.8985 22.2371 72.8718 22.0609C72.777 22.0416 72.6804 22.0325 72.5836 22.0338H72.3591C71.1552 22.1608 69.9592 22.3528 68.7763 22.6088L68.385 22.6871C68.0512 22.7593 67.722 22.8508 67.399 22.961C67.0566 23.0792 66.7083 23.1797 66.3554 23.2621C66.1788 23.2987 65.9989 23.3178 65.8184 23.3192C65.3782 23.3447 64.943 23.2149 64.5899 22.9526C64.2368 22.6904 63.9885 22.3127 63.889 21.8863C63.6645 20.8869 64.2895 20.0349 65.4787 19.7188L65.6031 19.6857C67.1047 19.2853 68.655 18.8729 70.1961 18.5057C70.5885 18.4226 70.9874 18.3732 71.3883 18.3581C71.5218 18.3581 71.6462 18.3491 71.7615 18.3311H71.807L72.256 18.3521C72.5108 18.3521 72.7262 18.3732 72.9416 18.3913C74.1763 18.5057 75.1713 18.9933 75.8145 19.77C76.1298 20.1776 76.3585 20.6443 76.4867 21.1421C76.615 21.6399 76.6402 22.1583 76.5608 22.666C76.4444 23.4678 76.2524 24.2569 75.9874 25.0231L75.9601 25.1134C75.8812 25.3723 75.7963 25.6342 75.7113 25.8931C75.3185 26.9503 75.0577 28.0513 74.9347 29.1714C74.8341 30.2854 74.6598 31.3916 74.4129 32.4828C74.3219 32.9254 74.2339 33.3679 74.152 33.8104C74.1126 34.0368 74.0443 34.2574 73.9488 34.4667C73.8072 34.8186 73.5648 35.1216 73.2515 35.3383C72.9383 35.555 72.5679 35.6758 72.1862 35.6859V35.6859Z" fill="white"/>
<path d="M71.8341 18.9423C72.274 18.9664 72.5865 18.9724 72.899 18.9995C75.0225 19.1951 76.2057 20.5588 75.9691 22.6119C75.8499 23.4066 75.657 24.1886 75.3927 24.948C74.9649 26.3267 74.4461 27.6573 74.343 29.1414C74.2368 30.6797 73.8424 32.197 73.5664 33.7202C73.5354 33.8989 73.4814 34.073 73.4056 34.238C73.3094 34.4819 73.1431 34.6924 72.9274 34.8433C72.7116 34.9943 72.4559 35.079 72.1921 35.0869C72.1199 35.0868 72.0479 35.0807 71.9767 35.0689C71.6777 35.025 71.4059 34.8721 71.2146 34.6399C71.0233 34.4077 70.9261 34.113 70.9422 33.8135C70.9884 33.1321 71.0724 32.4537 71.194 31.7815C71.3154 30.9476 71.4337 30.1108 71.5914 29.2799C71.6612 28.8976 71.5429 28.7471 71.2699 28.7471C71.1964 28.7471 71.1231 28.7552 71.0514 28.7711C70.4447 28.8886 69.838 29.0361 69.2312 29.1535C68.1907 29.3521 67.1471 29.5508 66.1004 29.7224C65.8316 29.7656 65.5597 29.7878 65.2874 29.7887C65.1843 29.7887 65.0841 29.7887 64.984 29.7887C64.7001 29.7908 64.4243 29.6941 64.2048 29.5153C63.9853 29.3366 63.8359 29.0871 63.7827 28.8103C63.6977 28.2594 64.0497 27.7446 64.6928 27.5188C64.8701 27.4603 65.0517 27.415 65.2358 27.3834C66.8892 27.0823 68.5395 26.7391 70.199 26.4471C70.745 26.3508 71.3123 26.3689 71.8645 26.2996C72.0374 26.2786 72.2983 26.1852 72.3408 26.0648C72.726 24.96 73.1356 23.8582 73.4117 22.7293C73.6301 21.8262 73.4116 21.4349 72.5804 21.4349C72.4955 21.4349 72.4045 21.4349 72.3044 21.4349C70.9462 21.5822 69.5972 21.8033 68.2635 22.0971C67.5718 22.2326 66.9165 22.5216 66.2279 22.6661C66.0923 22.6955 65.954 22.7106 65.8153 22.7113C65.5186 22.7343 65.2232 22.6523 64.9816 22.4798C64.74 22.3074 64.5678 22.0555 64.4956 21.769C64.347 21.1007 64.7686 20.5468 65.6514 20.312C67.2138 19.8966 68.7762 19.4781 70.3506 19.1078C70.8418 19.0202 71.3385 18.9669 71.8372 18.9483L71.8341 18.9423ZM71.8068 17.7441H71.7158C71.6096 17.7441 71.4913 17.7622 71.3639 17.7712C70.9282 17.7859 70.4946 17.8393 70.0685 17.9308C68.5244 18.3011 66.9711 18.7135 65.4694 19.1139L65.3359 19.15C63.5976 19.6106 63.0667 20.9291 63.3125 22.0279C63.4413 22.5818 63.7609 23.0738 64.2161 23.4189C64.6714 23.764 65.2337 23.9407 65.8062 23.9184C66.0296 23.918 66.2523 23.8938 66.4705 23.8462C66.8437 23.7649 67.2122 23.6644 67.5748 23.5451C67.8734 23.4438 68.1772 23.3584 68.4849 23.2893L68.8854 23.211C70.0139 22.9882 71.0848 22.7775 72.1618 22.6691C71.9494 23.4849 71.6673 24.2887 71.37 25.1346C71.2729 25.1346 71.1718 25.1406 71.0666 25.1527C70.6998 25.1682 70.3341 25.2044 69.9714 25.261C68.7033 25.4838 67.4231 25.7337 66.1823 25.9715L64.9901 26.2033C64.7439 26.2454 64.5015 26.3068 64.265 26.3869C63.0819 26.8114 62.4054 27.859 62.5813 28.9939C62.672 29.5393 62.951 30.0364 63.3705 30.4C63.7901 30.7636 64.3241 30.9711 64.8809 30.9868C65.0083 30.9868 65.1388 30.9868 65.2692 30.9868C65.6087 30.9869 65.9477 30.9587 66.2825 30.9025C67.3503 30.7279 68.4303 30.5232 69.4405 30.3305C69.6954 30.2824 69.9502 30.2282 70.1959 30.174C70.1322 30.5834 70.0746 30.9868 70.0169 31.3781L69.9836 31.5979C69.9623 31.7514 69.9381 31.8989 69.9138 32.0555C69.8135 32.6199 69.7486 33.1899 69.7196 33.7623C69.6982 34.3509 69.8932 34.9271 70.2683 35.3835C70.6434 35.8399 71.173 36.1454 71.7583 36.2429C72.3241 36.3397 72.9063 36.241 73.4076 35.9632C73.9089 35.6854 74.2991 35.2454 74.5129 34.7166C74.6276 34.4618 74.7101 34.1938 74.7586 33.9189C74.8375 33.4854 74.9285 33.0399 75.0165 32.6064C75.2677 31.488 75.4461 30.3548 75.5504 29.2137C75.6731 28.1497 75.9258 27.1044 76.3028 26.1009C76.3877 25.839 76.4727 25.5771 76.5546 25.3122L76.5788 25.2249C76.8595 24.4241 77.0627 23.5985 77.1856 22.7594C77.2749 22.1719 77.2429 21.5725 77.0917 20.9975C76.9405 20.4226 76.6731 19.8842 76.3058 19.4149C75.5565 18.4967 74.4219 17.9458 73.0173 17.8164C72.7837 17.7953 72.5622 17.7863 72.3044 17.7742L71.9069 17.7562H71.8129L71.8068 17.7441Z" fill="black"/>
<path d="M45.6534 48.4891C45.0572 48.4825 44.4695 48.3483 43.9302 48.0959C43.391 47.8434 42.913 47.4785 42.5287 47.0261C40.8602 45.1807 40.3445 42.9801 41.0392 40.6591C41.3236 39.8248 41.725 39.0343 42.2314 38.311C42.5721 37.8792 43.0447 37.5686 43.5784 37.426C43.9831 37.3141 44.3975 37.2405 44.8161 37.2062L45.159 37.1641H45.2227H45.2864C47.771 37.3206 49.6761 37.9618 51.287 39.175C52.5976 40.1624 53.0284 41.505 52.5005 42.959C52.0818 44.1884 51.381 45.3045 50.4534 46.2193C49.5257 47.134 48.3967 47.8224 47.1551 48.2302C46.6728 48.3997 46.1651 48.4872 45.6534 48.4891V48.4891ZM44.9102 40.918C44.2852 42.1794 44.3581 43.3263 45.1377 44.3829C45.4107 44.7562 45.6292 44.8014 45.7687 44.8014C45.9326 44.7922 46.0928 44.7491 46.2389 44.675C47.3718 44.1381 48.2889 43.2376 48.8419 42.1191C48.8666 42.0785 48.8831 42.0336 48.8904 41.9867V41.9867C48.8482 41.9436 48.8014 41.9053 48.7509 41.8723C47.7483 41.2654 46.6255 40.8804 45.4593 40.7434C45.3743 40.7735 45.2894 40.7976 45.2075 40.8217C45.1256 40.8458 44.983 40.8879 44.9102 40.918Z" fill="white"/>
<path d="M45.247 37.757C47.4343 37.8985 49.3 38.4284 50.92 39.6476C52.0031 40.4634 52.3793 41.511 51.9272 42.7483C51.5353 43.8919 50.8819 44.93 50.0182 45.7813C49.1546 46.6326 48.104 47.2739 46.9489 47.6552C46.5337 47.8057 46.0955 47.8841 45.6535 47.887C45.1425 47.8797 44.6392 47.763 44.1779 47.5448C43.7166 47.3266 43.3082 47.012 42.9808 46.6226C41.464 44.9458 40.9786 42.977 41.6218 40.8306C41.8884 40.0512 42.2653 39.3133 42.7412 38.6391C43.0011 38.3239 43.3564 38.1001 43.7544 38.0009C44.2449 37.8818 44.7439 37.8003 45.247 37.757V37.757ZM45.7688 45.4034C46.0234 45.3954 46.2731 45.3316 46.4999 45.2168C47.7533 44.6254 48.7688 43.6315 49.382 42.396C49.6065 41.9595 49.5003 41.6404 49.0786 41.3695C47.9549 40.6886 46.6928 40.264 45.3835 40.1262C45.0468 40.2707 44.525 40.3249 44.3976 40.5718C43.6725 41.9776 43.6634 43.4015 44.6373 44.7351C44.7536 44.9303 44.9172 45.0937 45.1131 45.2104C45.3091 45.3271 45.5314 45.3934 45.7597 45.4034H45.7688ZM45.1863 36.5469L45.0589 36.5679C44.9619 36.5679 44.8526 36.595 44.7374 36.6071C44.2817 36.6463 43.8307 36.7279 43.3904 36.8509C42.7196 37.0285 42.1293 37.4265 41.7158 37.9798C41.1762 38.7523 40.7493 39.5965 40.4477 40.4875C39.6923 43.0192 40.2505 45.4185 42.0677 47.4264C42.508 47.943 43.0555 48.3592 43.6728 48.6465C44.2901 48.9339 44.9626 49.0855 45.6444 49.0911C46.224 49.0888 46.7988 48.9869 47.3433 48.7901C48.6664 48.347 49.8695 47.6089 50.8603 46.6326C51.851 45.6562 52.6031 44.4674 53.0588 43.1577C53.6655 41.4598 53.1619 39.8462 51.6451 38.6903C49.9341 37.4018 47.9227 36.7215 45.3168 36.5559H45.1863V36.5469ZM45.3441 41.4086H45.3714L45.4958 41.3695C46.4057 41.4935 47.2866 41.7747 48.0987 42.2004C47.6065 43.0462 46.8655 43.7227 45.9751 44.139C45.9136 44.1719 45.8469 44.1942 45.7779 44.2053C45.7189 44.1583 45.6677 44.1024 45.6262 44.0397C45.3365 43.6726 45.1569 43.2319 45.1081 42.7681C45.0593 42.3043 45.1432 41.8363 45.3502 41.4177L45.3441 41.4086Z" fill="black"/>
<path d="M99.875 47.7092C99.1699 47.7007 98.4737 47.5519 97.8275 47.2716C97.1814 46.9914 96.5985 46.5854 96.1132 46.0776C95.4877 45.4202 94.999 44.6468 94.6752 43.8017C94.3515 42.9565 94.1989 42.0563 94.2263 41.1526V41.0563L94.2566 40.966C94.3234 40.7763 94.3931 40.5475 94.469 40.2886C94.7192 39.3947 95.0408 38.5219 95.4307 37.6786C95.998 36.5166 97.2054 35.8453 98.8254 35.7911H99.1712C100.369 35.7719 101.556 36.0066 102.655 36.4796C103.754 36.9525 104.738 37.6528 105.542 38.5336C106.792 39.8642 107.059 41.5741 106.297 43.3502C105.254 45.7585 103.285 47.2637 100.597 47.661C100.358 47.695 100.117 47.7111 99.875 47.7092V47.7092ZM98.2217 41.5831C98.2269 42.2298 98.4771 42.8509 98.9224 43.3231C99.0507 43.4623 99.2055 43.5749 99.3778 43.6544C99.5502 43.734 99.7367 43.7789 99.9266 43.7867V43.7867C99.9907 43.7866 100.055 43.7806 100.118 43.7686C100.664 43.6945 101.181 43.4784 101.615 43.1421C102.05 42.8059 102.387 42.3615 102.593 41.854C102.679 41.7065 102.707 41.5329 102.671 41.3663C102.636 41.1997 102.54 41.0518 102.402 40.9509C101.541 40.1352 100.395 39.683 99.2046 39.6896V39.6896C99.1272 39.6915 99.0506 39.7047 98.9771 39.7287C98.7313 40.2585 98.519 40.8064 98.3491 41.252C98.3036 41.3754 98.2611 41.4837 98.2217 41.5831Z" fill="white"/>
<path d="M99.1618 36.3906C100.278 36.3714 101.385 36.589 102.409 37.0288C103.434 37.4685 104.352 38.1202 105.102 38.9403C106.252 40.1656 106.376 41.6316 105.742 43.1097C104.774 45.3524 102.972 46.6951 100.512 47.0593C100.301 47.0916 100.088 47.1077 99.8747 47.1075C97.1717 47.1075 94.7721 44.5637 94.8206 41.165C95.0724 40.4305 95.3879 39.13 95.9673 37.9469C96.4952 36.8662 97.6298 36.4417 98.8372 36.3966H99.1618V36.3906ZM99.9263 44.3951C100.028 44.3956 100.13 44.3866 100.23 44.368C100.876 44.2778 101.487 44.0205 102.001 43.6222C102.515 43.2238 102.915 42.6982 103.16 42.0982C103.293 41.836 103.332 41.5365 103.269 41.2495C103.207 40.9625 103.048 40.7053 102.817 40.5208C101.844 39.6069 100.554 39.0993 99.2134 39.1029V39.1029C98.9646 39.1029 98.5733 39.2022 98.4944 39.3678C98.1213 40.1445 97.8331 40.9573 97.6268 41.4751C97.6268 43.1308 98.728 44.3921 99.9385 44.3921L99.9263 44.3951ZM99.174 35.1894H98.8099C96.9533 35.2526 95.5578 36.0444 94.8873 37.4171C94.4843 38.2928 94.1516 39.1987 93.8923 40.1264C93.8134 40.3853 93.7467 40.6081 93.686 40.7857L93.6223 40.9663V41.153C93.5959 42.137 93.7654 43.1165 94.1209 44.0354C94.4764 44.9544 95.0111 45.7948 95.6943 46.5084C96.2371 47.0717 96.8879 47.5216 97.6084 47.8318C98.3289 48.142 99.1046 48.3061 99.8899 48.3147C100.163 48.3141 100.436 48.294 100.706 48.2544C103.609 47.821 105.742 46.2074 106.873 43.5854C107.735 41.5774 107.429 39.6387 106.003 38.1215C105.142 37.1779 104.087 36.428 102.91 35.9223C101.732 35.4166 100.46 35.1667 99.177 35.1894H99.174ZM98.8463 41.6828L98.9252 41.4811C99.0587 41.1319 99.2286 40.7195 99.3954 40.3071C100.372 40.3467 101.301 40.7384 102.007 41.4089C102.038 41.4365 102.066 41.4679 102.089 41.5022C102.078 41.542 102.065 41.5812 102.05 41.6196C101.884 42.035 101.608 42.3988 101.252 42.673C100.897 42.9472 100.473 43.1219 100.026 43.1789C99.9972 43.1819 99.9677 43.1819 99.9385 43.1789C99.7161 43.1618 99.5093 43.0592 99.3621 42.893C99.051 42.5594 98.8684 42.1277 98.8463 41.6738V41.6828Z" fill="black"/>
<path d="M128.707 47.4748C127.538 47.4465 126.413 47.0311 125.509 46.2948C123.811 44.9929 122.643 43.1265 122.221 41.0387C122.194 40.9243 122.172 40.8069 122.151 40.6925C122.13 40.5781 122.109 40.4516 122.081 40.3342C121.632 38.5702 122.194 37.36 123.801 36.6345C124.505 36.3383 125.234 36.1046 125.98 35.9361C126.18 35.8849 126.353 35.8428 126.489 35.8006L126.593 35.7705H126.699C128.564 35.8759 130.102 36.0926 131.553 36.8151C134.316 38.1999 135.296 40.7015 134.18 43.5102C133.859 44.3364 133.365 45.0856 132.731 45.7083C132.096 46.331 131.336 46.8131 130.5 47.1226C129.931 47.3529 129.322 47.4724 128.707 47.4748V47.4748ZM127.236 39.7292C126.994 39.7284 126.753 39.7424 126.514 39.7713C126.159 39.8104 126.165 39.9399 126.168 40.0151C126.168 41.1711 127.327 43.0255 128.261 43.3657C128.408 43.4157 128.563 43.4401 128.719 43.4379C128.902 43.4391 129.083 43.4096 129.256 43.3506C129.543 43.2324 129.801 43.053 130.011 42.8252C130.22 42.5974 130.377 42.3266 130.47 42.0321C130.773 41.2012 130.621 40.8039 129.863 40.3944C129.06 39.9507 128.155 39.7195 127.236 39.7231V39.7292Z" fill="white"/>
<path d="M126.663 36.3694C128.631 36.4808 130 36.7186 131.274 37.3538C133.74 38.5881 134.611 40.7947 133.61 43.2903C133.317 44.0371 132.868 44.714 132.293 45.2764C131.718 45.8388 131.029 46.2741 130.273 46.5535C129.776 46.753 129.246 46.8552 128.71 46.8546C127.675 46.8253 126.68 46.4534 125.883 45.7979C124.296 44.5828 123.207 42.8386 122.816 40.888C122.761 40.6502 122.731 40.4063 122.673 40.1715C122.306 38.7326 122.673 37.7933 124.057 37.1612C124.904 36.8256 125.776 36.5549 126.666 36.3514L126.663 36.3694ZM128.722 44.0158C128.98 44.0177 129.236 43.9739 129.478 43.8863C129.847 43.7384 130.178 43.5109 130.448 43.2204C130.717 42.9299 130.919 42.5836 131.037 42.2065C131.422 41.1258 131.195 40.4003 130.163 39.8434C129.269 39.3509 128.262 39.0959 127.239 39.1028C126.974 39.1031 126.71 39.1181 126.447 39.148C125.789 39.2233 125.537 39.6086 125.564 40.012C125.564 41.4028 126.878 43.4589 128.049 43.9044C128.265 43.9813 128.493 44.019 128.722 44.0158V44.0158ZM126.523 35.1382L126.317 35.1984C126.198 35.2345 126.028 35.2767 125.834 35.3278C125.054 35.5038 124.292 35.7497 123.556 36.0624C121.663 36.9143 120.971 38.3924 121.496 40.4575C121.517 40.5508 121.539 40.6592 121.56 40.7766C121.581 40.894 121.602 41.0235 121.633 41.1469C122.086 43.3731 123.333 45.3624 125.146 46.7492C126.15 47.5748 127.404 48.0423 128.707 48.0768C129.398 48.0724 130.082 47.9375 130.722 47.6794C131.634 47.3411 132.463 46.8151 133.155 46.1359C133.847 45.4567 134.387 44.6398 134.738 43.7388C135.952 40.6562 134.847 37.7994 131.82 36.2851C130.282 35.5145 128.674 35.2827 126.732 35.1743H126.52L126.523 35.1382ZM126.811 40.3221C126.957 40.3221 127.115 40.307 127.239 40.307C128.058 40.3059 128.863 40.5132 129.578 40.9091C130.045 41.165 130.1 41.2402 129.881 41.8122C129.82 42.0249 129.712 42.2213 129.565 42.3869C129.417 42.5526 129.234 42.6833 129.029 42.7695C128.926 42.8038 128.818 42.8201 128.71 42.8177C128.629 42.82 128.548 42.8088 128.471 42.7845C127.894 42.5648 126.987 41.2793 126.799 40.3281L126.811 40.3221Z" fill="black"/>
<path d="M101.81 28.9999C101.438 29.008 101.073 28.9029 100.764 28.6989C100.17 28.267 99.733 27.6568 99.5167 26.9589C99.2698 25.9624 99.0974 24.9491 99.0009 23.9274L98.9706 23.6655C98.825 22.4614 98.7036 21.2091 98.5853 20.0109C98.5398 19.5534 98.4943 19.1078 98.4458 18.6352V18.581C98.4222 18.3943 98.4131 18.2061 98.4185 18.0181C98.4215 17.5834 98.5741 17.1628 98.8511 16.826C99.1281 16.4893 99.5128 16.2566 99.9414 16.1667C100.071 16.1417 100.203 16.1286 100.336 16.1276C100.727 16.1173 101.112 16.2328 101.432 16.4568C101.753 16.6808 101.992 17.0013 102.114 17.3708C102.384 18.2319 102.569 19.1172 102.666 20.0139C102.67 20.0771 102.681 20.1397 102.699 20.2006C102.753 20.1955 102.807 20.1874 102.86 20.1765L103.539 20.0441C103.734 20.0079 103.934 19.9718 104.061 19.9387C104.061 19.8333 104.04 19.6918 104.025 19.5594C104 19.3637 103.976 19.1319 103.952 18.8489C103.952 18.7135 103.928 18.575 103.916 18.4395C103.856 17.9966 103.837 17.5493 103.858 17.1029C103.878 16.6001 104.09 16.1237 104.45 15.7696C104.811 15.4155 105.293 15.2099 105.799 15.1943H105.851C106.904 15.1943 107.671 15.9499 107.765 17.0728C107.887 18.5569 107.972 20.0651 108.069 21.5252L108.123 22.4554C108.151 22.94 108.172 23.4277 108.193 23.9154C108.223 24.6258 108.254 25.3634 108.308 26.0799C108.399 27.284 107.981 28.145 107.162 28.4069C106.999 28.4582 106.829 28.4836 106.658 28.4821C106.25 28.4699 105.853 28.3428 105.515 28.1158C105.177 27.8888 104.91 27.5711 104.747 27.1997C104.453 26.4857 104.249 25.7385 104.14 24.975L104.091 24.7162C104.047 24.4578 104.031 24.1953 104.043 23.9335C103.679 23.9786 103.348 24.0238 103.027 24.084C103.106 24.6469 103.221 25.2219 103.33 25.7758L103.415 26.2003C103.431 26.2669 103.453 26.3323 103.479 26.3959C103.596 26.6597 103.631 26.9522 103.579 27.2358V27.269C103.451 27.7687 103.275 28.452 102.754 28.7741C102.464 28.9295 102.139 29.0073 101.81 28.9999V28.9999Z" fill="white"/>
<path d="M105.857 15.8028C106.555 15.8028 107.098 16.2935 107.168 17.1273C107.313 18.9155 107.404 20.7067 107.508 22.4948C107.577 23.699 107.602 24.9212 107.693 26.1314C107.759 27.0134 107.52 27.6637 106.968 27.8383C106.865 27.8713 106.757 27.8876 106.649 27.8864C106.357 27.8752 106.075 27.7821 105.834 27.618C105.594 27.4539 105.405 27.2255 105.29 26.9592C104.995 26.203 104.791 25.4149 104.683 24.6111C104.643 24.1584 104.643 23.7032 104.683 23.2505C103.952 23.3498 103.315 23.407 102.696 23.5515C102.563 23.5816 102.393 23.9278 102.426 24.1054C102.526 24.852 102.687 25.5895 102.833 26.3271C102.884 26.586 103.06 26.8659 103.003 27.0947C102.893 27.5162 102.76 28.0701 102.438 28.2627C102.245 28.3604 102.03 28.4081 101.813 28.4012C101.573 28.4128 101.334 28.3531 101.128 28.2296C100.644 27.8761 100.287 27.3797 100.105 26.8117C99.8499 25.7574 99.6735 24.6858 99.5775 23.6057C99.3773 21.9349 99.2225 20.2612 99.0527 18.5874C99.029 18.4118 99.0189 18.2347 99.0223 18.0576C99.0174 17.7519 99.1202 17.454 99.3129 17.2155C99.5057 16.977 99.7763 16.8127 100.078 16.7511C100.169 16.7331 100.261 16.724 100.354 16.724C100.621 16.7146 100.883 16.7915 101.102 16.943C101.321 17.0944 101.484 17.3123 101.568 17.5639C101.825 18.3877 102.001 19.2347 102.092 20.0926C102.15 20.5923 102.317 20.812 102.699 20.812C102.801 20.8096 102.903 20.7975 103.003 20.7759C105.047 20.3515 104.726 20.6886 104.577 18.8101C104.504 18.2624 104.472 17.7099 104.483 17.1575C104.493 16.8041 104.638 16.4677 104.889 16.2166C105.139 15.9656 105.477 15.8187 105.833 15.8058H105.869L105.857 15.8028ZM105.869 14.6016H105.803C105.144 14.6186 104.517 14.8828 104.047 15.341C103.578 15.7992 103.301 16.4172 103.273 17.0702C103.25 17.5495 103.268 18.0298 103.327 18.5061C103.342 18.6386 103.354 18.774 103.367 18.9065C103.385 19.1192 103.403 19.3059 103.421 19.4664L103.227 19.5025C103.121 18.7205 102.948 17.9489 102.708 17.1966C102.549 16.702 102.234 16.2716 101.809 15.9695C101.383 15.6673 100.871 15.5096 100.348 15.5198C100.177 15.5203 100.006 15.5374 99.8384 15.571C99.2703 15.685 98.7586 15.9884 98.3883 16.4309C98.018 16.8734 97.8114 17.4283 97.8028 18.0034C97.7961 18.2206 97.8062 18.438 97.8331 18.6536V18.7078C97.8816 19.1714 97.9272 19.635 97.9727 20.0956C98.091 21.2997 98.2154 22.528 98.361 23.7502L98.3913 24.0121C98.4901 25.0623 98.6676 26.1037 98.9222 27.1278C99.1761 27.9561 99.692 28.6813 100.394 29.1959C100.812 29.474 101.307 29.616 101.81 29.6023C102.249 29.6151 102.682 29.5112 103.066 29.3013C103.8 28.8588 104.022 28.0038 104.164 27.4379V27.4078C104.174 27.4273 104.182 27.4474 104.189 27.468C104.401 27.9453 104.748 28.352 105.187 28.6397C105.625 28.9273 106.138 29.0838 106.664 29.0906C106.898 29.0909 107.13 29.0553 107.353 28.9852C108.445 28.639 109.03 27.5402 108.918 26.0411C108.867 25.3366 108.833 24.6051 108.803 23.8977C108.785 23.419 108.764 22.9193 108.733 22.4286L108.682 21.4984C108.6 20.0354 108.515 18.5242 108.378 17.031C108.26 15.5981 107.222 14.5986 105.857 14.5986L105.869 14.6016Z" fill="black"/>
<path d="M115.529 32.2089C115.323 32.2096 115.118 32.1781 114.922 32.1155C114.464 31.9788 114.074 31.6783 113.827 31.2723C113.58 30.8663 113.493 30.3837 113.584 29.918C113.658 29.5318 113.789 29.1585 113.972 28.8102C115.59 25.5349 117.22 22.2626 118.863 18.9933C118.968 18.7815 119.093 18.5799 119.236 18.3912C119.427 18.1303 119.676 17.9167 119.964 17.7673C120.252 17.6179 120.57 17.5368 120.895 17.5303C121.157 17.5306 121.415 17.585 121.654 17.6898C122.087 17.8724 122.435 18.2113 122.626 18.6382C122.817 19.065 122.839 19.548 122.685 19.9898C122.401 20.863 122.052 21.7142 121.642 22.5365C121.493 22.8376 121.487 22.9098 121.757 23.1777C123.331 24.7401 124.548 26.7511 125.47 29.3249C125.627 29.6784 125.659 30.0739 125.561 30.4476C125.463 30.8212 125.24 31.1511 124.93 31.384C124.576 31.6675 124.138 31.8264 123.683 31.8356C123.301 31.8385 122.931 31.7073 122.637 31.4653C122.13 31.006 121.707 30.4644 121.384 29.8638C120.986 29.2075 120.604 28.5332 120.237 27.883C120.022 27.5036 119.806 27.1243 119.588 26.748L119.345 27.2116C118.738 28.3887 118.132 29.5116 117.546 30.6375C117.516 30.6977 117.488 30.7609 117.464 30.8241C117.413 30.9598 117.353 31.0916 117.282 31.2185C117.101 31.5195 116.844 31.7689 116.537 31.9424C116.229 32.116 115.882 32.2078 115.529 32.2089V32.2089Z" fill="white"/>
<path d="M120.895 18.1236C121.073 18.1238 121.248 18.1607 121.411 18.232C121.708 18.3539 121.946 18.5846 122.075 18.8761C122.205 19.1675 122.217 19.4974 122.109 19.7973C121.833 20.6425 121.495 21.4665 121.098 22.2628C120.831 22.8047 120.877 23.1479 121.326 23.5934C123.022 25.2762 124.108 27.3173 124.9 29.5179C125.015 29.7538 125.045 30.0223 124.983 30.2775C124.922 30.5327 124.773 30.7589 124.563 30.9177C124.312 31.1126 124.002 31.2186 123.683 31.2187C123.442 31.221 123.208 31.1389 123.022 30.9869C122.572 30.5681 122.195 30.0789 121.905 29.5389C121.247 28.4552 120.646 27.3414 120.006 26.2456C119.846 26.0293 119.666 25.8278 119.469 25.6435C118.602 27.2962 117.804 28.8134 117.009 30.3337C116.915 30.5083 116.857 30.707 116.754 30.8755C116.63 31.0875 116.454 31.2644 116.241 31.3893C116.029 31.5142 115.787 31.583 115.541 31.589C115.397 31.5891 115.255 31.5667 115.119 31.5228C114.804 31.4257 114.537 31.2161 114.369 30.9348C114.201 30.6534 114.144 30.3202 114.209 29.9995C114.274 29.6734 114.385 29.3582 114.54 29.0633C116.157 25.788 117.789 22.5157 119.433 19.2465C119.517 19.0655 119.618 18.8931 119.736 18.7317C119.87 18.5439 120.046 18.3896 120.25 18.281C120.455 18.1723 120.682 18.1122 120.913 18.1055L120.895 18.1236ZM120.913 16.9014C120.495 16.9068 120.083 17.009 119.712 17.1997C119.34 17.3904 119.018 17.6645 118.772 18.0002C118.605 18.2231 118.46 18.4609 118.338 18.7106C116.517 22.3501 115.001 25.3816 113.444 28.5305C113.238 28.9296 113.09 29.3566 113.007 29.7978C112.94 30.1664 112.955 30.5453 113.051 30.9076C113.148 31.2698 113.323 31.6066 113.566 31.8939C113.808 32.1812 114.111 32.4121 114.454 32.5701C114.796 32.7281 115.169 32.8094 115.547 32.8082C116.003 32.8045 116.45 32.684 116.846 32.4582C117.241 32.2325 117.571 31.9092 117.804 31.5198C117.897 31.3685 117.976 31.2093 118.04 31.0441C118.065 30.9899 118.089 30.9327 118.104 30.9026C118.605 29.9453 119.108 28.988 119.621 27.9946L119.715 28.1662C120.088 28.8225 120.47 29.4998 120.874 30.1651C121.232 30.8233 121.701 31.4159 122.26 31.9171C122.66 32.246 123.164 32.4251 123.683 32.4229C124.273 32.4144 124.843 32.211 125.303 31.8449C125.715 31.5353 126.01 31.0985 126.144 30.6036C126.277 30.1086 126.241 29.5836 126.04 29.1115C125.091 26.4623 123.838 24.3852 122.203 22.7565C122.619 21.9183 122.973 21.051 123.261 20.1616C123.463 19.5778 123.434 18.94 123.181 18.3765C122.927 17.813 122.468 17.3655 121.896 17.1241C121.58 16.988 121.24 16.9173 120.895 16.9164L120.913 16.9014Z" fill="black"/>
<path d="M95.7885 30.0655C95.2089 30.0539 94.6565 29.8198 94.2473 29.4122C93.4555 28.6657 92.6971 27.8739 91.963 27.1093L91.1924 26.3116L91.1651 26.3687C90.8769 26.9979 90.6099 27.5729 90.3521 28.175C89.7453 29.5658 88.9141 29.8548 88.3195 29.8548C88.0919 29.8534 87.8663 29.8137 87.6521 29.7374C87.4067 29.6548 87.1812 29.5226 86.9901 29.349C86.7989 29.1753 86.6462 28.9642 86.5417 28.7289C86.4188 28.4053 86.3643 28.06 86.3815 27.7146C86.3987 27.3692 86.4874 27.031 86.6419 26.721C87.0635 25.7576 87.5125 24.7943 87.9463 23.8611C88.3195 23.0634 88.7048 22.2385 89.0658 21.4257C89.4268 20.6129 89.8151 19.6827 90.1731 18.8278C90.4461 18.1775 90.7161 17.5273 90.9982 16.88C91.1592 16.4693 91.3844 16.0863 91.6657 15.7451C91.8396 15.5418 92.0556 15.3779 92.299 15.2647C92.5424 15.1515 92.8075 15.0915 93.0763 15.0889C93.3431 15.0899 93.607 15.1431 93.853 15.2454C94.2373 15.3867 94.5603 15.656 94.7667 16.0075C94.9731 16.3589 95.0501 16.7705 94.9845 17.172C94.8957 17.7225 94.743 18.2609 94.5295 18.7766C94.3596 19.2221 94.1715 19.6797 93.9895 20.0951C93.7528 20.652 93.5102 21.227 93.3069 21.796C93.2496 21.9555 93.2401 22.128 93.2796 22.2927C94.0744 23.3885 94.939 24.4421 95.8279 25.5108C96.0086 25.7181 96.2011 25.9151 96.4043 26.1008C96.6535 26.3295 96.8867 26.575 97.1021 26.8354C97.8514 27.7626 97.8362 28.8945 97.0656 29.5868C96.714 29.8972 96.2591 30.0677 95.7885 30.0655V30.0655Z" fill="white"/>
<path d="M93.0699 15.691C93.2585 15.6928 93.4449 15.7306 93.619 15.8024C93.8799 15.8915 94.0999 16.0706 94.2391 16.307C94.3783 16.5434 94.4274 16.8215 94.3775 17.0908C94.2996 17.599 94.1643 18.0968 93.974 18.5749C93.5796 19.5924 93.1094 20.5828 92.7423 21.6064C92.6775 21.7733 92.6481 21.9517 92.6559 22.1304C92.6638 22.3091 92.7087 22.4842 92.7878 22.6449C93.6008 23.7648 94.4806 24.8365 95.3695 25.9052C95.7548 26.3688 96.2493 26.7511 96.6285 27.2207C97.1958 27.9191 97.1776 28.6807 96.6558 29.1504C96.4178 29.3628 96.1082 29.4788 95.7881 29.4755C95.3652 29.4653 94.9628 29.2927 94.6657 28.9938C93.6008 27.9884 92.6058 26.9136 91.5834 25.866C91.4287 25.7065 91.2801 25.5289 91.0252 25.2098C90.5702 26.2152 90.1667 27.0762 89.7875 27.9492C89.4083 28.8222 88.9107 29.2648 88.3131 29.2648C88.1546 29.2635 87.9976 29.235 87.8489 29.1805C87.0298 28.8794 86.7295 28.0305 87.1937 26.9708C87.9673 25.1947 88.8258 23.4517 89.6206 21.6786C90.2911 20.1734 90.9008 18.6411 91.5531 17.1299C91.6835 16.7745 91.8687 16.4414 92.1022 16.1425C92.2192 16.0032 92.3652 15.8908 92.5301 15.8128C92.6951 15.7349 92.8751 15.6933 93.0578 15.691H93.0699ZM93.0578 14.4868C92.7034 14.4882 92.3534 14.5656 92.0319 14.7137C91.7105 14.8618 91.425 15.0771 91.1951 15.3448C90.8691 15.7335 90.6079 16.1715 90.4215 16.6422C90.1394 17.2925 89.8633 17.9548 89.5964 18.593C89.2414 19.4449 88.8713 20.3269 88.4921 21.1819C88.1311 21.9917 87.7488 22.8135 87.3787 23.6083C86.9419 24.5445 86.4898 25.5138 86.0682 26.4802C85.8791 26.8657 85.7724 27.2859 85.7546 27.7143C85.7369 28.1427 85.8085 28.5701 85.965 28.9697C86.1028 29.2807 86.3042 29.5598 86.5564 29.7893C86.8087 30.0189 87.1063 30.1939 87.4303 30.3033C87.7096 30.4035 88.004 30.4554 88.301 30.4569C88.935 30.4569 90.1212 30.1919 90.8887 28.4128C91.0404 28.0696 91.1921 27.7234 91.3559 27.3712L91.5106 27.5308C92.2508 28.3014 93.0275 29.0992 93.8162 29.8548C94.3396 30.366 95.0416 30.6572 95.776 30.6676C96.3977 30.6703 96.9981 30.4427 97.4597 30.0294C98.479 29.1263 98.5245 27.6422 97.5659 26.4561C97.3329 26.177 97.0827 25.9126 96.8166 25.6643C96.6314 25.4948 96.4562 25.3149 96.2917 25.1255C95.4484 24.111 94.6293 23.1146 93.8648 22.0669C93.8623 22.0439 93.8623 22.0207 93.8648 21.9977C94.062 21.4438 94.2925 20.9019 94.5352 20.3269C94.7203 19.8965 94.9084 19.4479 95.0843 18.9933C95.3084 18.4332 95.4672 17.8494 95.5576 17.2534C95.6459 16.7194 95.5443 16.1715 95.2704 15.7036C94.9964 15.2357 94.5671 14.8769 94.0559 14.6885C93.7367 14.5565 93.3945 14.488 93.0487 14.4868H93.0578Z" fill="black"/>
<path d="M50.0737 33.8017C49.8251 33.7983 49.5806 33.7391 49.3583 33.6286C49.1361 33.5181 48.9419 33.3591 48.7904 33.1635C48.36 32.651 48.0957 32.0214 48.032 31.3573C47.944 29.9002 47.9198 28.4221 47.8925 26.9922C47.8925 26.5527 47.8925 26.1102 47.8682 25.6707C47.8615 25.4204 47.8717 25.17 47.8985 24.9211C47.9173 24.731 47.9264 24.5401 47.9258 24.3491V24.2347C47.9258 24.2136 47.9258 24.1896 47.9258 24.1685C47.9153 24.0594 47.9153 23.9495 47.9258 23.8404L47.9986 22.8198L48.4173 17.1182C48.4314 16.92 48.4639 16.7235 48.5144 16.5312C48.6023 16.1238 48.8269 15.7582 49.1515 15.494C49.4761 15.2299 49.8815 15.0829 50.3012 15.0771H50.3467C50.7962 15.09 51.225 15.2675 51.5505 15.5754C51.876 15.8834 52.075 16.3 52.1093 16.7449C52.1457 17.1877 52.1457 17.6327 52.1093 18.0755V18.226C52.0547 19.1833 51.9981 20.1386 51.9394 21.0919C51.8181 23.0727 51.6906 25.1168 51.6148 27.1307C51.5814 27.9616 51.63 28.8255 51.6785 29.6594C51.7058 30.1381 51.7362 30.6348 51.7483 31.1255C51.7857 31.607 51.7478 32.0914 51.636 32.5614C51.5527 32.9116 51.3535 33.2241 51.0704 33.4489C50.7872 33.6737 50.4363 33.7979 50.0737 33.8017V33.8017Z" fill="white"/>
<path d="M50.295 15.6791H50.3253C50.6276 15.6883 50.9155 15.8091 51.1327 16.0179C51.3499 16.2267 51.4806 16.5085 51.4994 16.808C51.5373 17.2688 51.5373 17.7319 51.4994 18.1927C51.3325 21.164 51.1202 24.1322 51.0049 27.1065C50.9533 28.4491 51.102 29.7977 51.1384 31.1434C51.1734 31.5618 51.1437 31.9831 51.0504 32.3927C51.0023 32.6134 50.8818 32.812 50.7078 32.9574C50.5337 33.1028 50.316 33.1869 50.0887 33.1965C49.9298 33.192 49.7738 33.1521 49.6326 33.0796C49.4913 33.0072 49.3683 32.9041 49.2726 32.778C48.9291 32.3594 48.718 31.8493 48.6659 31.312C48.5506 29.4275 48.5415 27.537 48.5021 25.6495C48.5021 25.0654 48.5597 24.924 48.5597 24.3399C48.5779 24.3399 48.5324 23.9004 48.5597 23.9004C48.7235 21.6527 48.8884 19.4059 49.0542 17.1602C49.0642 16.9996 49.0896 16.8403 49.1301 16.6845C49.1855 16.4041 49.3363 16.1509 49.5571 15.9674C49.778 15.7839 50.0555 15.6811 50.3435 15.6761L50.295 15.6791ZM50.3435 14.4719C49.7904 14.4805 49.2561 14.6725 48.8257 15.0173C48.3952 15.362 48.0933 15.8398 47.9682 16.3745C47.8926 16.6006 47.8398 16.8335 47.8104 17.0699C47.6769 18.8761 47.5445 20.6823 47.413 22.4886L47.3644 23.1508H47.322V23.6927V23.8071C47.3128 23.9344 47.3128 24.0621 47.322 24.1894V24.3339C47.3222 24.5059 47.3131 24.6777 47.2947 24.8487C47.2675 25.1218 47.2574 25.3962 47.2643 25.6705C47.2643 26.107 47.2643 26.5465 47.2886 26.9861C47.3159 28.422 47.3402 29.9091 47.4312 31.3782C47.5005 32.1709 47.8116 32.9239 48.3231 33.5366C48.533 33.7997 48.7993 34.0131 49.1025 34.1615C49.4058 34.3098 49.7385 34.3895 50.0766 34.3946C50.5662 34.3841 51.0389 34.2147 51.4223 33.9125C51.8058 33.6102 52.079 33.1917 52.2002 32.7208C52.3315 32.1976 52.3776 31.657 52.3367 31.1193C52.3367 30.6015 52.2942 30.1018 52.2669 29.6141C52.2184 28.7562 52.1698 27.9464 52.2032 27.1426C52.279 25.1407 52.4034 23.0997 52.5248 21.1218C52.5854 20.1645 52.6431 19.2042 52.6977 18.2469V18.0964C52.7372 17.6216 52.7372 17.1443 52.6977 16.6695C52.648 16.0796 52.3811 15.5286 51.948 15.1216C51.5149 14.7146 50.9459 14.4801 50.3496 14.4629L50.3435 14.4719Z" fill="black"/>
<path d="M63.8555 43.26C63.3932 43.2638 62.9333 43.1937 62.4934 43.0523C62.0975 42.9327 61.76 42.6725 61.5451 42.3216C61.3302 41.9707 61.2531 41.5535 61.3285 41.1498C61.381 40.7515 61.5713 40.3837 61.8667 40.1092C62.1622 39.8347 62.5445 39.6704 62.9485 39.6446C65.4209 39.3164 67.6871 39.0274 69.8744 38.7414C71.0483 38.5881 72.2307 38.5076 73.4147 38.5006C74.2178 38.4976 75.0203 38.5449 75.8174 38.6421C75.8821 38.6467 75.9469 38.6467 76.0116 38.6421C76.1451 38.6421 76.2907 38.6421 76.4424 38.618H76.5607H76.7761C77.944 38.618 78.8086 39.4037 78.8299 40.4905C78.837 40.7356 78.7945 40.9797 78.7049 41.2082C78.6153 41.4368 78.4803 41.6452 78.3081 41.8211C78.0777 42.0364 77.8064 42.204 77.51 42.3141C77.2137 42.4242 76.8981 42.4746 76.5819 42.4623H76.412H76.3574C75.3886 42.2548 74.3997 42.1538 73.4087 42.1612C72.5901 42.1635 71.7725 42.2158 70.9605 42.3178C69.8107 42.4563 68.6397 42.6188 67.5111 42.7844L66.152 42.977C65.9458 43.0072 65.7364 43.0403 65.5301 43.0764C65.0645 43.1609 64.5946 43.2202 64.1225 43.254L63.8555 43.26Z" fill="white"/>
<path d="M73.4148 39.1177C74.1925 39.1159 74.9697 39.1622 75.7416 39.2562C75.8302 39.2672 75.9194 39.2722 76.0086 39.2713C76.2088 39.2713 76.4121 39.2502 76.6153 39.2351C76.6709 39.2322 76.7266 39.2322 76.7822 39.2351C77.6165 39.2351 78.2141 39.7499 78.2293 40.5176C78.2444 41.2852 77.6225 41.8752 76.588 41.8752H76.494C75.4818 41.6635 74.4492 41.5626 73.4148 41.5742C72.572 41.577 71.7301 41.6302 70.8938 41.7337C69.2829 41.9294 67.6811 42.1733 66.0732 42.396C65.4149 42.4894 64.7596 42.6308 64.0983 42.667H63.8617C63.4654 42.6719 63.0709 42.6129 62.6937 42.4924C62.4326 42.4182 62.2094 42.2489 62.0687 42.0183C61.9281 41.7878 61.8804 41.513 61.9353 41.2491C61.9708 40.9816 62.1006 40.7351 62.3015 40.5533C62.5025 40.3716 62.7617 40.2661 63.0335 40.2557C65.3391 39.9526 67.6467 39.6566 69.9564 39.3676C71.105 39.2164 72.2621 39.137 73.4209 39.1298L73.4148 39.1177ZM73.4209 37.9256C72.2125 37.9331 71.0057 38.0155 69.8077 38.1725C67.6174 38.4434 65.3512 38.7354 62.8727 39.0605C62.3416 39.1063 61.842 39.33 61.456 39.695C61.0701 40.0599 60.8208 40.5443 60.7491 41.0685C60.6527 41.612 60.7586 42.1718 61.0471 42.6436C61.3356 43.1155 61.7871 43.4672 62.3175 43.6333C62.82 43.7954 63.3455 43.8757 63.8738 43.8711H64.1772C64.6718 43.8379 65.164 43.7766 65.6515 43.6875L66.2583 43.5911L67.6174 43.3985C68.7459 43.2389 69.9109 43.0704 71.0546 42.9319C71.8426 42.8349 72.6359 42.7847 73.43 42.7814C74.3759 42.7741 75.3199 42.869 76.2452 43.0643L76.3575 43.0884H76.6032C77.0003 43.1016 77.3961 43.0357 77.7671 42.8945C78.1381 42.7534 78.4768 42.5398 78.7632 42.2666C78.992 42.0336 79.1714 41.7574 79.2907 41.4544C79.41 41.1514 79.4669 40.8277 79.4579 40.5025C79.4306 39.0756 78.3112 38.04 76.7974 38.04C76.7094 38.04 76.6214 38.04 76.5365 38.04H76.4151C76.2725 38.04 76.1421 38.0641 76.0298 38.0641H75.9146C75.0923 37.9635 74.2645 37.9142 73.436 37.9166L73.4209 37.9256Z" fill="black"/>
<path d="M133.428 30.0147C132.518 30.0147 131.689 29.3253 131.371 28.2988C131.252 27.8797 131.167 27.4518 131.116 27.0193C131.101 26.917 131.089 26.8146 131.071 26.7183C131.037 26.4895 131.007 26.2577 130.98 26.0319L130.585 26.1132C129.708 26.2938 128.88 26.4654 128.037 26.6159C127.822 26.6553 127.603 26.6745 127.385 26.6731C127.172 26.6728 126.961 26.6577 126.751 26.628C126.275 26.5882 125.831 26.3781 125.5 26.0368C125.17 25.6955 124.976 25.2465 124.955 24.7736C124.933 23.8163 125.625 23.0456 126.678 22.859L127.105 22.7837C128.195 22.5881 129.32 22.3864 130.443 22.269H130.518C130.518 22.269 130.518 22.2509 130.518 22.2389C130.361 21.6789 130.215 21.0799 130.024 20.3544L129.987 20.2069C129.899 19.9131 129.847 19.6099 129.833 19.3037C129.802 18.8911 129.916 18.4806 130.154 18.1408C130.392 17.8011 130.74 17.5528 131.14 17.4373C131.336 17.3727 131.541 17.3381 131.747 17.335C132.045 17.3385 132.338 17.4121 132.601 17.5497C132.865 17.6874 133.092 17.8851 133.264 18.1267C133.522 18.4663 133.72 18.847 133.849 19.2526L133.898 19.4061C134.131 20.0787 134.308 20.7695 134.426 21.4712C134.708 23.4701 134.963 25.5382 135.184 27.6244C135.312 28.8466 134.738 29.7979 133.755 29.9906C133.647 30.0088 133.537 30.0169 133.428 30.0147V30.0147Z" fill="white"/>
<path d="M131.759 17.94C131.961 17.9445 132.16 17.9972 132.338 18.0936C132.516 18.1899 132.668 18.3272 132.781 18.4939C132.998 18.7764 133.165 19.0942 133.273 19.4331C133.515 20.1246 133.701 20.8343 133.828 21.5555C134.123 23.5965 134.372 25.6415 134.574 27.6906C134.674 28.6389 134.271 29.2771 133.631 29.4005C133.561 29.4149 133.49 29.422 133.418 29.4216C132.811 29.4216 132.186 28.9218 131.941 28.1301C131.812 27.6356 131.719 27.1326 131.662 26.6249C131.592 26.1704 131.546 25.7218 131.498 25.3064C130.236 25.5623 129.071 25.8121 127.918 26.0229C127.739 26.0532 127.557 26.0683 127.375 26.068C127.19 26.0671 127.006 26.054 126.823 26.0289C126.492 26.0068 126.18 25.8656 125.946 25.6317C125.712 25.3979 125.572 25.0874 125.552 24.7585C125.537 24.1143 126.004 23.5844 126.765 23.449C128.003 23.2292 129.244 22.9944 130.497 22.865C131.119 22.7987 131.225 22.5639 131.082 22.0642C130.909 21.4441 130.749 20.8209 130.594 20.1978C130.504 19.9036 130.446 19.6009 130.421 19.2947C130.392 19.0111 130.466 18.7266 130.628 18.4918C130.791 18.257 131.033 18.087 131.31 18.0122C131.449 17.9659 131.594 17.9415 131.741 17.94H131.759ZM131.741 16.7358C131.466 16.7372 131.194 16.7819 130.934 16.8683C130.409 17.0241 129.953 17.3513 129.64 17.7967C129.327 18.2421 129.174 18.7796 129.207 19.3218C129.225 19.6694 129.283 20.0139 129.38 20.3483L129.417 20.4898C129.532 20.9504 129.635 21.3628 129.738 21.7451C128.804 21.8685 127.882 22.0461 126.981 22.1937L126.553 22.2689C125.215 22.5067 124.302 23.5423 124.329 24.7916C124.353 25.4072 124.601 25.9934 125.027 26.4413C125.453 26.8892 126.029 27.1684 126.647 27.227C126.885 27.2601 127.125 27.2772 127.366 27.2782C127.621 27.2795 127.876 27.2573 128.127 27.212C128.898 27.0735 129.644 26.9109 130.445 26.7574V26.8146C130.445 26.9139 130.472 27.0133 130.488 27.1156C130.542 27.5798 130.635 28.0389 130.764 28.4883C131.158 29.7678 132.22 30.6287 133.4 30.6287C133.55 30.6284 133.699 30.6142 133.846 30.5866C134.935 30.3728 135.951 29.3553 135.763 27.5762C135.542 25.4689 135.284 23.3978 135.002 21.4019C134.878 20.6688 134.695 19.9469 134.453 19.2435L134.404 19.0869C134.252 18.6155 134.022 18.1728 133.722 17.7774C133.495 17.4624 133.197 17.2049 132.851 17.026C132.505 16.8471 132.121 16.7518 131.731 16.7479L131.741 16.7358Z" fill="black"/>
</svg>
