<svg width="169" height="64" viewBox="0 0 169 64" fill="none" xmlns="http://www.w3.org/2000/svg">
<path d="M20.025 8.53581C13.4956 10.6899 6.9388 13.956 3.14422 19.6629C-3.98912 30.3909 1.843 45.8339 12.3385 53.3695C22.834 60.9051 36.3994 62.4161 49.3103 63.1754C75.0036 64.6886 100.778 64.1185 126.378 61.4707C133.255 60.7578 140.224 59.8667 146.579 57.1586C158.075 52.2614 166.705 41.2235 168.645 28.938C169.962 20.585 167.698 10.9146 160.506 6.4088C156.197 3.69678 150.88 3.27835 145.795 2.96453C105.606 0.469462 58.9331 -4.29208 20.025 8.53581Z" fill="#42E532"/>
<path fill-rule="evenodd" clip-rule="evenodd" d="M5.43829 21.1649L5.43827 21.1649C2.42773 25.6925 2.05739 31.3506 3.7606 36.9216C5.46764 42.5052 9.19719 47.7478 13.9496 51.1599C23.7259 58.1791 36.5296 59.6916 49.4729 60.4529L49.4731 60.4529C75.0172 61.9573 100.642 61.3905 126.094 58.7581C132.981 58.0441 139.567 57.1789 145.494 54.6527L145.494 54.6525C156.12 50.1263 164.135 39.8771 165.929 28.5165C167.162 20.6967 164.912 12.3948 159.039 8.7149L159.037 8.71339L159.034 8.71187C155.413 6.43243 150.814 6.00684 145.625 5.68655L145.624 5.68649C141.723 5.44432 137.77 5.18205 133.778 4.91715C96.3727 2.43526 55.4757 -0.278308 20.8916 11.124C14.5262 13.224 8.71086 16.2431 5.43829 21.1649ZM168.645 28.938C166.705 41.2235 158.075 52.2614 146.579 57.1586C140.224 59.8668 133.255 60.7578 126.378 61.4707C100.778 64.1185 75.0036 64.6886 49.3103 63.1754C36.3994 62.4161 22.834 60.9051 12.3385 53.3695C1.843 45.8339 -3.98912 30.3909 3.14422 19.6629C6.9388 13.956 13.4956 10.6899 20.025 8.53581C55.1566 -3.04698 96.6185 -0.289161 133.922 2.19209C137.933 2.45882 141.895 2.72235 145.795 2.96453C150.88 3.27835 156.197 3.69678 160.506 6.4088C167.698 10.9146 169.962 20.585 168.645 28.938Z" fill="black"/>
<path d="M28.3028 45.0795C27.9391 45.0784 27.5832 44.9752 27.2762 44.7819C26.3929 44.2361 26.1329 43.1678 26.6096 42.0598C27.4195 40.2077 28.1161 38.5672 28.7427 37.0425L29.326 35.6467C30.5726 32.6072 31.8625 29.4651 33.0857 26.3627C33.6857 24.838 34.2523 23.267 34.8022 21.7488C35.0756 20.998 35.3455 20.2439 35.6222 19.4965L35.6622 19.3906C35.7431 19.1251 35.855 18.8698 35.9955 18.6299C36.1629 18.352 36.3995 18.1215 36.6826 17.9605C36.9657 17.7994 37.2857 17.7133 37.612 17.7104C37.7736 17.7116 37.9346 17.7304 38.092 17.7667C38.4916 17.8414 38.8545 18.0469 39.1228 18.3502C39.391 18.6536 39.5491 19.0373 39.5719 19.4402C39.6231 20.0167 39.555 20.5975 39.3719 21.1469C38.5686 23.3265 37.7053 25.5259 36.8954 27.6526L36.5388 28.5754C36.4088 28.9061 36.2621 29.2369 36.1055 29.604C36.7545 29.9227 37.2607 30.4698 37.5254 31.1387L37.8587 31.8266C38.5719 33.272 39.3119 34.7702 40.0052 36.2586C40.5685 37.4625 41.1084 38.6995 41.6317 39.8968L42.1583 41.0941C42.299 41.3949 42.4106 41.7083 42.4916 42.0301C42.7816 43.3365 42.0917 43.9848 41.6584 44.256C41.3854 44.4249 41.0701 44.5143 40.7484 44.514C40.4467 44.5052 40.1502 44.4332 39.8785 44.3027C39.6068 44.1721 39.366 43.986 39.1719 43.7566C38.8326 43.3749 38.5498 42.9473 38.332 42.4865C37.9987 41.7225 37.642 40.9452 37.312 40.1944C36.9821 39.4437 36.6454 38.6631 36.3121 37.909C35.7688 36.7216 35.1855 35.5243 34.6256 34.3667L34.3823 33.8673C34.1423 34.4957 33.9012 35.1252 33.659 35.7559C33.0635 37.317 32.4602 38.8781 31.8491 40.4392C31.5158 41.3024 31.1225 42.1525 30.7459 42.976L30.6326 43.2241C30.4802 43.5533 30.2901 43.8641 30.066 44.1501C29.8651 44.4304 29.6011 44.6603 29.295 44.8216C28.989 44.9829 28.6492 45.0712 28.3028 45.0795V45.0795Z" fill="white"/>
<path d="M37.6287 18.3555C37.7409 18.3558 37.8528 18.3691 37.962 18.3952C38.221 18.442 38.4559 18.5756 38.6276 18.7736C38.7993 18.9717 38.8973 19.2222 38.9052 19.4833C38.95 19.9698 38.8956 20.4602 38.7452 20.9254C37.8286 23.4059 36.872 25.8865 35.9188 28.3406C35.7121 28.8764 35.4688 29.3924 35.1822 30.0572C36.1821 30.1399 36.5921 30.7584 36.9254 31.4331C37.762 33.1298 38.5919 34.8265 39.4052 36.5398C40.1485 38.134 40.8417 39.7513 41.5483 41.3587C41.6747 41.6193 41.7741 41.8919 41.845 42.1724C41.9816 42.7776 41.8883 43.3366 41.3117 43.6938C41.1451 43.7981 40.952 43.8532 40.7551 43.8525C40.5479 43.8441 40.3449 43.7924 40.1594 43.7006C39.9738 43.6088 39.8099 43.4791 39.6785 43.3201C39.3809 42.9882 39.1338 42.6149 38.9452 42.2121C38.2486 40.6939 37.612 39.1527 36.9087 37.6346C36.2054 36.1164 35.4755 34.6182 34.7489 33.1166C34.6456 32.9016 34.5056 32.7032 34.2989 32.3592C34.1456 32.6899 34.0356 32.8884 33.9656 33.0967C33.0524 35.4649 32.1558 37.8396 31.2292 40.2011C30.8625 41.1305 30.4426 42.0434 30.0259 42.9529C29.8922 43.2355 29.728 43.5028 29.536 43.75C29.3982 43.9458 29.2167 44.1073 29.0057 44.222C28.7947 44.3367 28.5598 44.4016 28.3194 44.4115C28.0833 44.4085 27.8527 44.341 27.6528 44.2164C27.0428 43.8393 26.9095 43.0951 27.2495 42.3179C27.9805 40.6465 28.6927 38.9686 29.386 37.284C30.8459 33.7218 32.3157 30.163 33.719 26.5811C34.6156 24.3056 35.4155 21.9937 36.2621 19.6983C36.3462 19.4444 36.4579 19.2004 36.5954 18.9707C36.7025 18.7846 36.8565 18.6294 37.0423 18.5204C37.2282 18.4114 37.4394 18.3523 37.6553 18.3489L37.6287 18.3555ZM37.6553 17.0259C37.2176 17.0277 36.7878 17.1409 36.4067 17.3545C36.0257 17.5682 35.7062 17.8752 35.4788 18.2463C35.3046 18.5293 35.1637 18.8311 35.0589 19.1459L35.0255 19.2452C34.7233 20.0015 34.44 20.7567 34.1756 21.5108C33.6256 23.0256 33.0623 24.59 32.4657 26.1048C31.2358 29.2204 29.9393 32.389 28.6894 35.4252L28.1261 36.7912C27.5095 38.2927 26.8128 39.9465 26.0029 41.7986C25.393 43.201 25.7629 44.6265 26.9228 45.3442C27.3366 45.6014 27.8145 45.7388 28.3027 45.7411C28.7478 45.7305 29.1843 45.6178 29.5781 45.4118C29.9719 45.2058 30.3123 44.9121 30.5725 44.5537C30.834 44.228 31.0576 43.8741 31.2392 43.4987L31.3558 43.244C31.7358 42.4138 32.1258 41.5572 32.4724 40.6807C33.0823 39.1229 33.6923 37.5353 34.2789 36.0007C34.3356 35.8485 34.3956 35.6931 34.4556 35.5409C34.8755 36.4141 35.3022 37.3038 35.7055 38.1869C36.0388 38.9377 36.3921 39.7116 36.7054 40.4624C37.0187 41.2132 37.372 41.9971 37.7286 42.7776C37.9736 43.2984 38.2924 43.7818 38.6752 44.2131C38.9309 44.5149 39.2481 44.7594 39.6061 44.9305C39.9641 45.1015 40.3546 45.1952 40.7517 45.2053C41.1986 45.2055 41.6365 45.0806 42.015 44.8448C43.0149 44.2296 43.4215 43.1613 43.1449 41.9177C43.0555 41.5532 42.9293 41.1987 42.7682 40.8593L42.2383 39.6455C41.7117 38.4449 41.1684 37.2013 40.6018 35.9841C39.9018 34.4859 39.1619 32.9843 38.4453 31.5323L38.1119 30.851C37.8507 30.2581 37.448 29.7371 36.9387 29.3329C37.012 29.1609 37.082 28.9889 37.1487 28.8169L37.482 27.9206C38.3086 25.7807 39.1485 23.5713 39.9718 21.3785C40.1865 20.74 40.2671 20.0646 40.2085 19.394C40.1811 18.8499 39.9735 18.3301 39.6179 17.915C39.2623 17.5 38.7787 17.213 38.2419 17.0986C38.0341 17.052 37.8218 17.0276 37.6087 17.0259H37.6553Z" fill="black"/>
<path d="M60.2369 31.7041C59.6883 31.7006 59.1635 31.4818 58.777 31.0956C58.0904 30.4341 57.9237 29.5212 58.307 28.5257C58.517 27.963 58.7827 27.4223 59.1003 26.9117C60.6202 24.5171 62.1567 22.1291 63.6899 19.7411L64.3099 18.7786L64.1532 18.8713C63.7299 19.1193 63.3066 19.3773 62.8833 19.632C62.1867 20.0553 61.4634 20.4919 60.7335 20.8987C60.2577 21.1547 59.7331 21.309 59.1936 21.3518C59.137 21.3551 59.0802 21.3551 59.0236 21.3518C58.6471 21.3525 58.2796 21.237 57.9721 21.0213C57.6645 20.8056 57.4322 20.5004 57.3071 20.1479C57.1694 19.805 57.1367 19.4294 57.2132 19.0682C57.2897 18.7069 57.4719 18.3761 57.7371 18.1172C57.8881 17.9533 58.0621 17.8118 58.2537 17.6971C58.827 17.3664 59.4003 17.0356 59.9736 16.7049C61.6034 15.759 63.2866 14.78 64.9732 13.877C65.8432 13.4351 66.7856 13.1506 67.7563 13.0369C67.8956 13.02 68.0359 13.0111 68.1762 13.0105C68.5739 13.0011 68.9681 13.0862 69.3259 13.2588C69.6837 13.4314 69.9946 13.6865 70.2327 14.0027C70.471 14.3514 70.6219 14.7515 70.6729 15.1697C70.724 15.5879 70.6736 16.0122 70.5261 16.4072C70.2509 17.1516 69.8741 17.8549 69.4061 18.4975C68.8529 19.3244 68.2629 20.1512 67.6963 20.9318L66.8563 22.0861L66.7764 22.2085C67.023 22.4664 67.2696 22.7211 67.5163 22.9725C68.4529 23.935 69.3328 24.8445 70.2161 25.7937C70.685 26.2885 71.0832 26.845 71.3993 27.4475C71.9093 28.4397 71.6726 29.5741 70.8327 30.0934C70.5479 30.2734 70.2171 30.3687 69.8794 30.3679C69.5699 30.3612 69.2649 30.2928 68.9826 30.1666C68.7003 30.0405 68.4464 29.8592 68.2362 29.6337C66.9563 28.3107 65.7264 26.9877 64.7932 25.9558C64.7032 25.8566 64.6232 25.7507 64.5432 25.6449C64.3399 25.9756 64.1432 26.3262 63.9432 26.6669C63.6933 27.0969 63.4433 27.5268 63.1866 27.9535C62.9022 28.3372 62.7471 28.8002 62.7433 29.2765C62.7833 30.2687 62.1934 31.1022 61.1301 31.5321C60.8462 31.6455 60.543 31.7039 60.2369 31.7041V31.7041Z" fill="white"/>
<path d="M68.1863 13.6653C69.5562 13.6653 70.3562 14.7932 69.9029 16.179C69.6465 16.8689 69.2967 17.5209 68.863 18.1171C68.0397 19.3409 67.1631 20.5217 66.3132 21.7256C66.1732 21.9207 66.0565 22.1324 65.9432 22.3176C67.2331 23.6406 68.4997 24.9404 69.7262 26.2601C70.154 26.7132 70.5163 27.223 70.8028 27.7749C71.1761 28.5124 70.9895 29.25 70.4695 29.5774C70.2933 29.6918 70.0868 29.7517 69.8762 29.7494C69.6538 29.7378 69.4359 29.6821 69.2355 29.5855C69.0352 29.4889 68.8563 29.3535 68.7096 29.1872C67.5497 27.9799 66.4132 26.7529 65.2799 25.5192C65.0222 25.1865 64.7851 24.8386 64.57 24.4774C64.2367 24.9305 64.0967 25.1157 63.9767 25.3174C63.52 26.0848 63.0801 26.8587 62.6201 27.6327C62.2725 28.1213 62.0862 28.7048 62.0868 29.3029C62.1135 30.0835 61.6102 30.6259 60.8869 30.9203C60.6875 31.0042 60.4736 31.0491 60.257 31.0526C60.0703 31.0515 59.8857 31.0136 59.714 30.9409C59.5423 30.8682 59.387 30.7622 59.2571 30.6292C58.7004 30.0967 58.6871 29.4352 58.9437 28.7737C59.138 28.2516 59.3836 27.7498 59.677 27.2755C61.7202 24.0606 63.7867 20.8557 65.8432 17.6475C65.9265 17.5218 66.0065 17.3928 66.0898 17.2638L65.9665 17.1117C65.2499 17.5119 64.5266 17.9022 63.82 18.3189C62.6834 18.9804 61.5669 19.6948 60.4136 20.3397C60.0205 20.5486 59.5882 20.6747 59.1437 20.7102H59.0304C58.7875 20.7099 58.5508 20.6337 58.354 20.4924C58.1571 20.3511 58.0101 20.1519 57.9338 19.923C57.8403 19.6938 57.8188 19.4419 57.8724 19.2005C57.9259 18.959 58.0519 18.7393 58.2338 18.5703C58.3396 18.4552 58.4607 18.3551 58.5938 18.2726C60.8236 16.9926 63.0334 15.6696 65.3032 14.4591C66.1013 14.0549 66.9661 13.7961 67.8564 13.6951C67.9669 13.6811 68.0782 13.6734 68.1897 13.6719L68.1863 13.6653ZM68.1897 12.349C68.0214 12.3502 67.8534 12.3612 67.6864 12.382C66.6344 12.5066 65.613 12.8157 64.67 13.2949C62.9634 14.2044 61.2736 15.1867 59.6404 16.136C59.0671 16.4667 58.4971 16.7975 57.9205 17.1282C57.6733 17.2752 57.4488 17.4568 57.2539 17.6673C56.8989 18.0196 56.6564 18.4679 56.5569 18.9562C56.4573 19.4444 56.5049 19.951 56.6939 20.4125C56.8687 20.8873 57.1862 21.2973 57.6035 21.5871C58.0208 21.877 58.5177 22.0327 59.0271 22.0332H59.2537C59.8884 21.9838 60.5054 21.8012 61.0636 21.4973C61.4535 21.2824 61.8402 21.0575 62.2201 20.8359C61.0002 22.7343 59.7603 24.6692 58.5538 26.5809C58.2152 27.1286 57.9316 27.708 57.7072 28.3107C57.2272 29.551 57.4572 30.7483 58.3338 31.5917C58.8434 32.0993 59.5349 32.3859 60.257 32.3888C60.6448 32.3848 61.0283 32.3074 61.3869 32.1605C62.7201 31.6314 63.4667 30.5498 63.4167 29.2698C63.4272 28.9291 63.5437 28.5998 63.75 28.3272C64.01 27.8939 64.2633 27.4574 64.51 27.034L64.6466 26.8025C65.5266 27.7583 66.6165 28.9358 67.7497 30.1099C68.0195 30.4071 68.3475 30.6466 68.7137 30.8138C69.0799 30.981 69.4766 31.0723 69.8795 31.0823C70.3467 31.0782 70.8027 30.9404 71.1928 30.6854C72.326 29.9677 72.6627 28.4893 71.9927 27.1729C71.6514 26.511 71.2183 25.8998 70.7061 25.3571C69.8195 24.398 68.9329 23.4851 67.993 22.5193L67.6364 22.1522C67.8364 21.8678 68.0397 21.5833 68.243 21.3022C68.8163 20.5051 69.4096 19.6816 69.9729 18.8448C70.4753 18.1528 70.8781 17.3948 71.1694 16.5924C71.35 16.0979 71.4091 15.5678 71.3419 15.0461C71.2746 14.5243 71.083 14.0261 70.7828 13.5926C70.4812 13.1947 70.0883 12.8741 69.6367 12.6572C69.1851 12.4403 68.6879 12.3335 68.1863 12.3457L68.1897 12.349Z" fill="black"/>
<path d="M49.5478 48.4367C48.5279 48.4367 47.7313 47.6925 47.5479 46.5878C47.158 44.0345 46.8047 41.4348 46.4647 38.9245L46.3547 38.1241C46.0814 36.1165 45.7981 34.0394 45.5614 31.959C45.3515 30.1168 45.1148 27.9702 44.9682 25.827C44.8648 24.3717 44.6915 23.267 44.1249 22.2384C43.9255 21.865 43.785 21.4634 43.7083 21.0477C43.5928 20.5786 43.6498 20.0839 43.8692 19.6528C44.0886 19.2217 44.4558 18.8825 44.9048 18.6962C45.1252 18.6077 45.3604 18.5617 45.5981 18.5605C45.967 18.5723 46.3259 18.6827 46.6368 18.88C46.9477 19.0774 47.1992 19.3544 47.3646 19.6818C48.2514 21.1844 48.8037 22.858 48.9845 24.59C49.6111 30.7617 50.2911 36.8672 50.9343 42.5494C51.0243 43.3631 51.1877 44.1734 51.3443 44.9572C51.4143 45.3078 51.481 45.6518 51.541 45.9826V46.0355V46.0917C51.541 47.3452 50.8744 48.2548 49.8478 48.4069C49.7486 48.4234 49.6483 48.4334 49.5478 48.4367Z" fill="white"/>
<path d="M45.588 19.2221C45.8389 19.2349 46.0817 19.3148 46.2905 19.4534C46.4994 19.592 46.6667 19.784 46.7745 20.0092C47.6121 21.427 48.1359 23.0054 48.3111 24.6397C48.9044 30.6493 49.571 36.6391 50.2609 42.6255C50.3976 43.8361 50.6842 45.0333 50.8742 46.0983C50.8742 47.0509 50.4342 47.6561 49.7476 47.7521C49.6811 47.757 49.6142 47.757 49.5476 47.7521C48.9077 47.7521 48.3444 47.2791 48.2144 46.4622C47.7811 43.6508 47.4045 40.8395 47.0212 38.015C46.7445 35.9643 46.4646 33.9137 46.2312 31.8598C45.9979 29.8059 45.7813 27.795 45.638 25.7576C45.5446 24.4081 45.3813 23.1116 44.7147 21.9011C44.5567 21.5877 44.4445 21.2536 44.3814 20.9089C44.294 20.5942 44.3233 20.2589 44.464 19.964C44.6047 19.669 44.8474 19.4339 45.148 19.3014C45.2897 19.2433 45.4413 19.213 45.5946 19.2121L45.588 19.2221ZM45.5946 17.8892C45.2726 17.891 44.9538 17.9527 44.6547 18.0711C44.0645 18.3177 43.5817 18.7643 43.2923 19.3313C43.003 19.8983 42.9259 20.5487 43.0748 21.1668C43.1652 21.648 43.3282 22.113 43.5581 22.546C44.0647 23.4655 44.2247 24.4974 44.3214 25.8535C44.4581 27.8016 44.6547 29.7265 44.9213 32.0152C45.1547 34.089 45.4413 36.1793 45.7146 38.1969L45.8213 38.9873C46.1546 41.5043 46.5146 44.1106 46.9079 46.6705C47.1245 48.0894 48.2144 49.0817 49.5543 49.0817C49.6882 49.0816 49.8219 49.0717 49.9543 49.0519C51.3208 48.8435 52.2274 47.6462 52.2141 46.0752V45.966L52.1941 45.8536C52.1341 45.5228 52.0641 45.1723 51.9941 44.8151C51.8408 44.0477 51.6808 43.2506 51.5942 42.4668C50.9509 36.7846 50.2609 30.6757 49.6443 24.514C49.455 22.6894 48.873 20.9265 47.9378 19.3444C47.7176 18.9154 47.3844 18.5535 46.9736 18.2973C46.5628 18.0411 46.0897 17.9 45.6046 17.8892H45.5946Z" fill="black"/>
<path d="M94.6041 42.1163C93.6004 42.1113 92.6246 41.7875 91.8197 41.1923C91.0148 40.5971 90.423 39.7619 90.1312 38.8088C89.887 37.9831 89.7328 37.1337 89.6712 36.2753C89.6445 36.0306 89.6179 35.7825 89.5879 35.5378C89.5533 35.2514 89.5432 34.9626 89.5579 34.6745H89.4912L89.5879 33.1994C89.6312 32.6074 89.6712 32.0153 89.7045 31.42C89.8745 28.3738 92.231 27.9935 93.9875 27.9736H94.0275C94.5923 27.9844 95.1483 28.1138 95.659 28.3532C96.1697 28.5927 96.6236 28.9367 96.9906 29.3628C98.0116 30.4368 98.9455 31.5892 99.7837 32.8091C100.944 34.5687 100.97 36.573 99.8604 38.4318C99.2902 39.3992 98.5536 40.2601 97.6839 40.9752C96.8237 41.7017 95.7337 42.1055 94.6041 42.1163V42.1163ZM93.6309 35.1409C93.6985 35.9313 93.8098 36.7174 93.9642 37.4958C93.989 37.6529 94.0701 37.7959 94.1925 37.8985C94.3149 38.0012 94.4705 38.0566 94.6308 38.0547C94.7382 38.053 94.8444 38.0317 94.9441 37.9919C95.2726 37.8562 95.5672 37.651 95.8073 37.3904C96.0474 37.1299 96.2272 36.8204 96.334 36.4837C96.446 36.1569 96.4841 35.8097 96.4455 35.4667C96.4069 35.1237 96.2926 34.7934 96.1107 34.4992C95.8674 34.0975 95.5874 33.7188 95.2741 33.3681C94.8544 32.8854 94.384 32.4486 93.8709 32.0649C93.835 32.0398 93.7971 32.0177 93.7575 31.9988C93.7342 32.0603 93.7207 32.125 93.7175 32.1906C93.6776 32.6371 93.6575 33.0969 93.6375 33.5434C93.6375 33.7484 93.6376 33.9535 93.6076 34.1619L93.5809 34.6778L93.6309 35.1409Z" fill="white"/>
<path d="M94.0277 28.6414C94.4985 28.6534 94.9615 28.7632 95.3869 28.9637C95.8123 29.1642 96.1906 29.451 96.4975 29.8056C97.4955 30.8564 98.4104 31.9821 99.2339 33.1726C100.277 34.7568 100.234 36.5032 99.2906 38.1139C98.7591 39.0133 98.0746 39.8146 97.2674 40.482C96.5205 41.1056 95.577 41.4497 94.6009 41.4544C93.7391 41.4479 92.9018 41.1685 92.2112 40.6568C91.5205 40.1452 91.0125 39.4281 90.7612 38.61C90.4279 37.6178 90.3813 36.5197 90.2446 35.4646C90.2163 34.9976 90.2163 34.5293 90.2446 34.0623H90.2046C90.2646 33.199 90.3279 32.3325 90.3779 31.4659C90.5013 29.2565 91.9078 28.6711 94.001 28.6447H94.0343L94.0277 28.6414ZM94.6376 38.7191C94.832 38.7186 95.0245 38.6804 95.2042 38.6067C95.6165 38.436 95.987 38.1794 96.2906 37.8542C96.5942 37.5291 96.8238 37.1429 96.9638 36.722C97.1039 36.301 97.1511 35.8551 97.1022 35.4145C97.0534 34.9738 96.9097 34.5488 96.6808 34.1681C96.417 33.7297 96.1112 33.3177 95.7675 32.9377C95.3165 32.4187 94.8103 31.9496 94.2576 31.5387C94.0993 31.4202 93.909 31.3511 93.711 31.3402C93.3544 31.3402 93.1044 31.6379 93.0444 32.1539C92.9844 32.8154 92.9677 33.4768 92.9344 34.1383H92.8344C92.9844 35.2992 93.0577 36.4767 93.3077 37.6178C93.3653 37.9214 93.5281 38.1954 93.768 38.3923C94.0079 38.5893 94.3096 38.6967 94.6209 38.696L94.6376 38.7191ZM94.0177 27.2985H93.9677C90.8379 27.3349 89.178 28.7042 89.028 31.37C88.998 31.9554 88.9547 32.5574 88.9147 33.1362C88.8947 33.4074 88.8781 33.6819 88.8581 33.9531L88.7681 35.2761H88.8881C88.8881 35.3786 88.8881 35.4812 88.9147 35.587C88.9481 35.8284 88.9714 36.0699 88.998 36.3146C89.0629 37.2194 89.2272 38.1144 89.488 38.9837C89.824 40.068 90.5009 41.0171 91.4198 41.692C92.3386 42.3669 93.4511 42.7322 94.5943 42.7344C95.8761 42.7296 97.1157 42.279 98.0973 41.461C99.0282 40.696 99.8177 39.776 100.43 38.7423C101.034 37.7895 101.346 36.6836 101.33 35.5584C101.313 34.4332 100.968 33.3369 100.337 32.4019C99.4824 31.1531 98.5283 29.9741 97.484 28.8762C97.0515 28.385 96.5203 27.9889 95.9246 27.7132C95.3288 27.4375 94.6815 27.2884 94.0243 27.2754L94.0177 27.2985ZM94.241 34.6576L94.2643 34.1913L94.2943 33.5695V33.3214C94.4543 33.4802 94.6109 33.6521 94.7643 33.8142C95.0497 34.1337 95.3042 34.4792 95.5242 34.8461C95.6521 35.0561 95.7322 35.2914 95.7587 35.5354C95.7851 35.7794 95.7574 36.0262 95.6775 36.2584C95.6029 36.5033 95.4745 36.7288 95.3016 36.9187C95.1287 37.1085 94.9156 37.258 94.6776 37.3565C94.6567 37.3603 94.6352 37.3603 94.6143 37.3565C94.6134 37.3444 94.6134 37.3322 94.6143 37.3201C94.4622 36.5647 94.3509 35.8018 94.281 35.0347L94.241 34.6411V34.6576Z" fill="black"/>
<path d="M129.201 42.4567C128.895 42.4539 128.594 42.3839 128.318 42.2516C127.969 42.0948 127.678 41.8336 127.485 41.5045C127.293 41.1753 127.209 40.7948 127.245 40.416C127.285 39.6928 127.324 38.9662 127.362 38.2364C127.468 36.1726 127.578 34.0393 127.785 31.9523C127.912 30.8944 128.113 29.8466 128.388 28.8168C128.471 28.4861 128.555 28.1322 128.631 27.7882L126.845 27.937C125.328 28.0693 123.759 28.2016 122.212 28.3108H122.035C121.591 28.311 121.153 28.2056 120.759 28.0032C120.457 27.8478 120.202 27.6155 120.02 27.3301C119.839 27.0447 119.737 26.7165 119.726 26.3792C119.714 26.037 119.793 25.6978 119.957 25.3963C120.12 25.0947 120.361 24.8415 120.655 24.6627C121.012 24.4456 121.415 24.3142 121.832 24.279C124.215 24.064 126.638 23.8622 128.981 23.6671L129.478 23.6241C129.768 23.601 130.035 23.5877 130.288 23.5877H130.491C130.974 23.5764 131.452 23.6833 131.882 23.8991C132.313 24.1149 132.684 24.4328 132.961 24.8247C133.189 25.1978 133.318 25.6216 133.338 26.0573C133.358 26.493 133.267 26.9266 133.074 27.3185C131.741 30.4077 131.631 33.6027 131.521 37.0193L131.495 37.8329C131.495 38.0346 131.495 38.243 131.495 38.4481C131.514 38.9672 131.48 39.4868 131.395 39.9993C131.257 40.6562 130.971 41.2735 130.558 41.8051C130.399 42.0118 130.194 42.1786 129.958 42.2918C129.722 42.405 129.463 42.4615 129.201 42.4567V42.4567Z" fill="white"/>
<path d="M130.288 24.2428H130.475C132.141 24.2891 133.121 25.5294 132.474 27.0509C130.975 30.5104 130.968 34.1585 130.841 37.8033C130.862 38.4915 130.831 39.1803 130.748 39.8639C130.628 40.4207 130.385 40.944 130.035 41.3952C129.94 41.5207 129.816 41.6221 129.674 41.6911C129.532 41.7601 129.376 41.7947 129.218 41.7921C129.01 41.7888 128.805 41.7403 128.618 41.6499C128.389 41.5499 128.198 41.3797 128.073 41.1643C127.948 40.9488 127.896 40.6995 127.925 40.4526C128.085 37.6347 128.188 34.8101 128.461 31.9988C128.605 30.5071 129.058 29.0452 129.371 27.5668C129.401 27.4246 129.421 27.2758 129.458 27.0509C129.095 27.0773 128.791 27.0939 128.485 27.1203C126.382 27.2956 124.282 27.4874 122.179 27.633H122.045C121.712 27.6324 121.383 27.5542 121.085 27.4047C120.885 27.301 120.716 27.1462 120.596 26.9561C120.476 26.766 120.41 26.5476 120.403 26.3235C120.397 26.0993 120.451 25.8775 120.56 25.6809C120.668 25.4844 120.828 25.3202 121.022 25.2053C121.291 25.0461 121.593 24.9499 121.905 24.9242C124.452 24.6893 126.998 24.481 129.548 24.2627C129.798 24.2395 130.048 24.2263 130.301 24.2263L130.288 24.2428ZM130.301 22.9033C130.028 22.9033 129.745 22.9033 129.435 22.943L128.938 22.9827C126.605 23.1778 124.168 23.3829 121.785 23.5979C121.263 23.6429 120.759 23.8083 120.312 24.0808C119.916 24.3223 119.593 24.6642 119.375 25.0712C119.157 25.4782 119.053 25.9355 119.072 26.396C119.087 26.8487 119.224 27.2894 119.467 27.6729C119.71 28.0564 120.051 28.369 120.455 28.5789C120.946 28.8333 121.492 28.9661 122.045 28.9659C122.122 28.9659 122.199 28.9659 122.272 28.9659C123.828 28.8567 125.398 28.7244 126.922 28.5954L127.788 28.5194C127.788 28.5657 127.765 28.612 127.755 28.6583C127.47 29.7181 127.263 30.7969 127.135 31.8863C126.928 33.9998 126.802 36.143 126.708 38.2168C126.672 38.9411 126.635 39.6654 126.592 40.3898C126.55 40.8997 126.667 41.4101 126.927 41.8516C127.188 42.293 127.579 42.6441 128.048 42.8571C128.413 43.0329 128.813 43.1256 129.218 43.1283C129.58 43.1309 129.938 43.0498 130.263 42.8913C130.588 42.7329 130.872 42.5015 131.091 42.2155C131.567 41.6031 131.896 40.8919 132.054 40.1351C132.149 39.5792 132.187 39.0151 132.168 38.4516C132.168 38.2465 132.168 38.0481 132.168 37.8629L132.198 37.0459C132.304 33.7087 132.408 30.56 133.698 27.5867C133.932 27.0954 134.039 26.554 134.01 26.0113C133.981 25.4686 133.816 24.9415 133.531 24.4777C133.198 23.9952 132.749 23.6018 132.226 23.3324C131.703 23.0629 131.121 22.9258 130.531 22.9331L130.301 22.9033Z" fill="black"/>
<path d="M106.523 44.0411C106.198 44.038 105.878 43.957 105.59 43.805C105.303 43.653 105.057 43.4344 104.873 43.1679C104.549 42.6973 104.336 42.1604 104.25 41.5969C104.107 40.555 103.98 39.4966 103.857 38.4713C103.69 37.0921 103.523 35.6633 103.303 34.2709C102.987 32.217 102.563 30.1796 102.12 28.0992C101.84 26.7762 102.31 25.7476 103.347 25.3937C103.562 25.3216 103.787 25.2836 104.013 25.2812C104.494 25.291 104.957 25.4636 105.326 25.7704C105.695 26.0772 105.946 26.4998 106.04 26.968C106.456 28.6813 106.83 30.4905 107.18 32.4915C107.18 32.5675 107.206 32.6205 107.216 32.6602H107.333C109 32.4452 110.546 32.2831 112.046 32.1673H112.276C112.775 32.1718 113.268 32.2752 113.726 32.4716C114.226 32.6928 114.621 33.0968 114.828 33.5995C115.035 34.1022 115.039 34.6649 114.839 35.1705C114.697 35.5486 114.438 35.8723 114.099 36.0951C113.76 36.318 113.359 36.4285 112.953 36.4108C112.728 36.4107 112.505 36.3863 112.286 36.338C111.998 36.275 111.704 36.2439 111.409 36.2454C111.285 36.2388 111.16 36.2388 111.036 36.2454C110.303 36.3116 109.556 36.4108 108.83 36.5067L107.79 36.6423L107.54 36.6721C107.54 36.7382 107.54 36.8143 107.54 36.8871C107.61 37.284 107.68 37.6775 107.753 38.0711C107.946 39.1328 108.146 40.2276 108.3 41.3157C108.403 41.9506 108.308 42.6018 108.026 43.1811C107.874 43.4429 107.655 43.6602 107.391 43.8112C107.127 43.9622 106.828 44.0415 106.523 44.0411Z" fill="white"/>
<path d="M104.023 25.9428C104.355 25.9522 104.673 26.0747 104.925 26.2898C105.176 26.5049 105.345 26.7993 105.403 27.1236C105.843 28.9361 106.213 30.7618 106.533 32.604C106.623 33.12 106.766 33.3217 107.2 33.3217C107.282 33.326 107.364 33.326 107.446 33.3217C109 33.12 110.56 32.9513 112.113 32.8322C112.172 32.8289 112.231 32.8289 112.289 32.8322C112.699 32.8368 113.103 32.9222 113.479 33.0836C113.822 33.2349 114.092 33.512 114.233 33.8567C114.374 34.2014 114.375 34.587 114.236 34.9325C114.143 35.1868 113.969 35.4042 113.74 35.5521C113.512 35.7001 113.241 35.7704 112.969 35.7527C112.798 35.7514 112.627 35.7314 112.459 35.6932C112.123 35.6213 111.78 35.5858 111.436 35.5873C111.293 35.5873 111.146 35.5873 111.003 35.5873C109.91 35.6866 108.823 35.8519 107.733 35.9875C106.9 36.0901 106.9 36.0868 106.896 36.9467C107.156 38.435 107.453 39.9234 107.663 41.4117C107.749 41.9018 107.682 42.4063 107.47 42.8571C107.376 43.0211 107.239 43.1568 107.073 43.25C106.908 43.3431 106.72 43.3902 106.53 43.3863C106.312 43.3834 106.099 43.3283 105.907 43.2258C105.716 43.1233 105.552 42.9764 105.43 42.7976C105.163 42.4145 104.988 41.9753 104.92 41.5143C104.587 39.0734 104.343 36.6159 103.97 34.1784C103.637 32.098 103.22 30.0308 102.78 27.9703C102.58 27.0376 102.827 26.2802 103.573 26.0255C103.721 25.9762 103.875 25.9505 104.03 25.9494L104.023 25.9428ZM104.03 24.6265C103.726 24.6264 103.424 24.6767 103.137 24.7753C101.777 25.2416 101.137 26.601 101.47 28.2448C101.91 30.312 102.33 32.3361 102.643 34.3801C102.857 35.7593 103.027 37.1815 103.193 38.5541C103.317 39.5827 103.447 40.6444 103.59 41.6929C103.688 42.3604 103.94 42.9965 104.327 43.5517C104.57 43.9072 104.898 44.1984 105.281 44.4001C105.663 44.6018 106.09 44.7079 106.523 44.7093C106.949 44.7142 107.368 44.6057 107.736 44.3951C108.105 44.1845 108.41 43.8795 108.62 43.512C108.975 42.8067 109.1 42.0088 108.976 41.2298C108.823 40.1251 108.62 39.0205 108.426 37.9522L108.296 37.2477L108.94 37.165C109.69 37.0658 110.4 36.9698 111.116 36.907C111.219 36.907 111.326 36.907 111.429 36.907C111.676 36.9067 111.922 36.9322 112.163 36.9831C112.425 37.0412 112.694 37.0712 112.963 37.0724C113.502 37.0897 114.033 36.9397 114.482 36.6433C114.932 36.3469 115.277 35.9188 115.469 35.4187C115.732 34.7531 115.726 34.0126 115.452 33.3515C115.178 32.6904 114.658 32.1596 113.999 31.8698C113.457 31.639 112.873 31.5175 112.283 31.5126C112.189 31.5126 112.096 31.5126 112.006 31.5126C110.646 31.6151 109.256 31.7573 107.766 31.9425C107.433 30.1036 107.1 28.4267 106.696 26.8292C106.57 26.2172 106.237 25.6663 105.752 25.2676C105.267 24.8689 104.66 24.6462 104.03 24.6364V24.6265Z" fill="black"/>
<path d="M140.477 43.7666C140.023 43.7606 139.585 43.6014 139.234 43.3153C138.883 43.0292 138.641 42.6331 138.547 42.1923C138.242 41.0537 138.059 39.8863 138.001 38.7096C137.977 37.4527 138.047 36.186 138.114 34.9622C138.141 34.443 138.171 33.9237 138.191 33.4044C138.341 31.2083 138.441 28.344 137.921 25.4996C137.772 24.7862 137.548 24.0901 137.254 23.4226C136.794 22.3179 137.017 21.329 137.857 20.7766C138.198 20.5576 138.595 20.4426 139.001 20.4459C139.337 20.4444 139.668 20.527 139.963 20.6859C140.258 20.8449 140.509 21.0751 140.691 21.3554C141.169 22.0321 141.496 22.8022 141.65 23.6144L141.667 23.7269C142.019 25.7082 142.242 27.7101 142.334 29.7199C142.367 31.1388 142.287 32.5676 142.214 33.9535C142.157 34.9457 142.104 35.9379 142.087 36.9302C142.087 37.8232 142.154 38.7459 142.23 39.639C142.267 40.0458 142.3 40.4493 142.327 40.8561C142.327 40.9355 142.344 41.0149 142.357 41.0975C142.378 41.2467 142.392 41.3968 142.397 41.5474C142.42 42.6884 141.804 43.5318 140.824 43.727C140.71 43.7516 140.594 43.7649 140.477 43.7666V43.7666Z" fill="white"/>
<path d="M139.007 21.0941C139.232 21.0928 139.453 21.1479 139.651 21.2543C139.849 21.3607 140.016 21.5149 140.137 21.7026C140.558 22.2984 140.851 22.974 140.997 23.6871C141.35 25.6772 141.573 27.688 141.664 29.7066C141.72 32.1012 141.454 34.5024 141.417 36.9036C141.4 38.2266 141.57 39.5496 141.66 40.8726C141.66 41.0942 141.724 41.3125 141.727 41.5341C141.744 42.351 141.344 42.9298 140.697 43.0522C140.622 43.0653 140.546 43.072 140.47 43.072C140.166 43.0665 139.873 42.9578 139.64 42.7641C139.406 42.5704 139.246 42.3032 139.187 42.007C138.893 40.9139 138.717 39.7931 138.661 38.6632C138.624 36.9103 138.777 35.154 138.851 33.3978C139.034 30.7055 139.057 28.0132 138.567 25.3507C138.415 24.5906 138.182 23.8489 137.871 23.1381C137.537 22.3608 137.631 21.6861 138.224 21.2958C138.455 21.146 138.725 21.0667 139.001 21.0676L139.007 21.0941ZM139.001 19.7446C138.463 19.7439 137.936 19.9003 137.487 20.1944C136.381 20.9188 136.054 22.2418 136.637 23.6441C136.911 24.2681 137.119 24.9188 137.257 25.5856C137.764 28.3572 137.664 31.1685 137.521 33.3085V33.3415C137.497 33.8608 137.471 34.3768 137.441 34.8927C137.374 36.1297 137.304 37.4097 137.327 38.6897C137.386 39.9186 137.575 41.1381 137.891 42.3278C138.019 42.9139 138.344 43.4392 138.813 43.8178C139.282 44.1964 139.866 44.4057 140.47 44.4115C140.629 44.4105 140.787 44.3961 140.944 44.3685C142.24 44.1271 143.09 42.9827 143.06 41.5241C143.055 41.3481 143.04 41.1724 143.014 40.9983C143.014 40.9321 142.994 40.866 142.99 40.7998C142.96 40.3897 142.927 39.9763 142.894 39.5761C142.814 38.6566 142.74 37.79 142.75 36.9301C142.767 35.9379 142.82 34.9456 142.874 33.9534C142.95 32.5577 143.03 31.1123 142.997 29.6537C142.905 27.6143 142.682 25.5827 142.33 23.5713L142.314 23.4622C142.144 22.5582 141.783 21.7003 141.254 20.9452C141.007 20.5796 140.673 20.2808 140.28 20.0758C139.888 19.8708 139.451 19.7661 139.007 19.7711L139.001 19.7446Z" fill="black"/>
<path d="M72.6958 50.9237C72.3451 50.9192 72.0021 50.8213 71.7025 50.6404C71.403 50.4595 71.1578 50.2021 70.9926 49.8951C70.7328 49.4322 70.5675 48.9231 70.506 48.3968C70.4619 48.0071 70.4508 47.6143 70.4726 47.2227C70.4726 47.075 70.4726 46.9261 70.4726 46.7762C70.4726 46.6307 70.4726 46.2569 70.4726 46.1577C70.5071 45.1394 70.6649 44.1289 70.9426 43.1479C71.0293 42.794 71.1226 42.417 71.2126 41.987C71.2759 41.6761 71.3559 41.3685 71.4359 41.0742C71.5611 40.64 71.6569 40.198 71.7225 39.7512C71.7686 39.5572 71.7401 39.3532 71.6426 39.179C71.5014 39.0765 71.3264 39.0304 71.1526 39.05H71.0593C70.4326 39.0782 69.8137 39.1985 69.2227 39.4072C68.6406 39.6276 68.0728 39.8839 67.5229 40.1745L66.9163 40.4755C66.5409 40.6643 66.1272 40.7661 65.7064 40.7732C65.3684 40.7794 65.0351 40.6947 64.7417 40.5282C64.4483 40.3617 64.2058 40.1195 64.0398 39.8273C63.4765 38.8549 63.8232 37.6807 64.8631 37.0391C66.9229 35.7657 68.7561 35.1175 70.6293 35.0083H71.0293C71.7123 34.9825 72.393 35.1023 73.0254 35.3597C73.6579 35.617 74.2274 36.0058 74.6956 36.5C75.5689 37.4922 75.9455 38.8681 75.7556 40.4061C75.6406 41.2421 75.4441 42.0651 75.1689 42.8635C74.6172 44.5949 74.3912 46.4123 74.5023 48.2249V48.2943C74.5023 48.5027 74.5223 48.7144 74.5023 48.936C74.4723 50.2589 73.7591 50.6988 73.1691 50.851C73.0145 50.8922 72.8558 50.9166 72.6958 50.9237V50.9237Z" fill="white"/>
<path d="M71.0492 35.6762C73.779 35.6762 75.4589 37.5548 75.1122 40.333C74.9989 41.1201 74.8125 41.8952 74.5556 42.6482C73.985 44.4565 73.7534 46.3533 73.8723 48.2444C73.8723 48.466 73.8957 48.6876 73.889 48.9059C73.889 49.5046 73.709 50.0272 73.0524 50.1958C72.9361 50.2268 72.8162 50.2424 72.6957 50.2421C72.4612 50.2373 72.2323 50.1696 72.0333 50.0462C71.8344 49.9227 71.6729 49.7481 71.5658 49.541C71.3524 49.1526 71.2166 48.7269 71.1659 48.2874C71.1325 47.7775 71.1325 47.266 71.1659 46.7561C71.1659 46.6238 71.1659 46.2765 71.1659 46.1806C71.2192 44.4806 71.5725 43.6405 71.8925 42.0992C72.0525 41.3418 72.3158 40.5976 72.4124 39.8303C72.5324 38.891 72.0991 38.385 71.1825 38.385H71.0592C70.3658 38.4174 69.6809 38.55 69.026 38.7785C68.2156 39.1019 67.4234 39.4685 66.6529 39.8766C66.3678 40.0217 66.0533 40.1008 65.733 40.1081C65.5114 40.1152 65.2921 40.0615 65.0992 39.9529C64.9064 39.8444 64.7474 39.6853 64.6397 39.4929C64.2731 38.8579 64.4797 38.0641 65.2397 37.5978C66.9062 36.5626 68.6894 35.782 70.6926 35.6662H71.0559L71.0492 35.6762ZM71.0559 34.3433C70.9092 34.3433 70.7626 34.3433 70.6126 34.3433C68.6127 34.459 66.6896 35.1337 64.5331 36.4699C63.1998 37.2968 62.7465 38.8778 63.4831 40.1478C63.7068 40.5428 64.0341 40.8703 64.4302 41.0956C64.8263 41.321 65.2765 41.4358 65.733 41.4278C66.2558 41.4218 66.7702 41.2961 67.2362 41.0607L67.8528 40.7564C68.3786 40.4797 68.9207 40.2346 69.476 40.0221C69.993 39.8369 70.5339 39.7255 71.0825 39.6914C71.0185 40.0877 70.9306 40.4797 70.8192 40.8655C70.7392 41.1698 70.6559 41.484 70.5892 41.8115C70.5026 42.2282 70.4126 42.5953 70.3226 42.9492C70.0358 43.9783 69.8724 45.0374 69.836 46.1045C69.836 46.2864 69.836 46.6866 69.836 46.7329C69.836 46.8785 69.836 47.0207 69.836 47.1629C69.8141 47.5899 69.8264 48.0179 69.8726 48.4429C69.9488 49.0562 70.1435 49.6491 70.4459 50.1892C70.6687 50.5972 70.9978 50.9383 71.3988 51.1768C71.7999 51.4154 72.2582 51.5426 72.7257 51.5453C72.9584 51.5442 73.19 51.5153 73.4157 51.4593C74.0823 51.2873 75.2089 50.7316 75.2522 48.9192C75.2522 48.6777 75.2522 48.4462 75.2522 48.2411V48.2147C75.1397 46.4839 75.3487 44.7473 75.8688 43.0914C76.158 42.2536 76.3635 41.3895 76.4821 40.5116C76.6988 38.7818 76.2655 37.2042 75.2622 36.0863C74.732 35.5209 74.0857 35.0751 73.3669 34.7789C72.6482 34.4828 71.8737 34.3432 71.0959 34.3697L71.0559 34.3433Z" fill="black"/>
<path d="M75.0224 31.0761C74.6122 31.068 74.2135 30.9405 73.8757 30.7094C73.5379 30.4783 73.276 30.1538 73.1226 29.7762C72.8875 29.2329 72.7251 28.6614 72.6393 28.0762C72.2693 25.6419 71.7993 23.0489 70.8527 20.5716C70.6979 20.1417 70.6432 19.6826 70.6928 19.2288C70.7416 18.7563 70.966 18.3188 71.3221 18.0015C71.6782 17.6842 72.1406 17.5098 72.6193 17.5122H72.6593C73.1004 17.5358 73.5228 17.6972 73.8658 17.9735C74.2089 18.2497 74.4551 18.6266 74.5691 19.0502C74.9624 20.1946 75.3757 21.4117 75.7157 22.6487C75.7138 22.6641 75.7138 22.6796 75.7157 22.695H75.7424C76.325 22.5104 76.9196 22.3656 77.5222 22.2617C77.9017 22.1925 78.2898 22.1836 78.6721 22.2353C79.1392 22.2792 79.5764 22.4831 79.9084 22.8121C80.2405 23.141 80.4468 23.5744 80.492 24.0378C80.5171 24.5015 80.3754 24.9589 80.0921 25.3284C79.8088 25.698 79.4024 25.9556 78.9454 26.0554C78.0822 26.2902 77.3022 26.4787 76.5556 26.6309H76.5023C76.5008 26.6396 76.5008 26.6486 76.5023 26.6573C76.619 27.1501 76.7123 27.6495 76.8056 28.1324L76.8789 28.5128C77.1089 29.6737 76.619 30.6329 75.639 30.9603C75.4409 31.0308 75.2328 31.0699 75.0224 31.0761V31.0761Z" fill="white"/>
<path d="M72.6326 18.1733C72.9412 18.1905 73.236 18.306 73.4731 18.5026C73.7103 18.6992 73.8773 18.9665 73.9492 19.2647C74.3558 20.4422 74.7525 21.6229 75.0824 22.8202C75.1891 23.2171 75.3358 23.3858 75.6024 23.3858C75.73 23.3818 75.8561 23.3572 75.9757 23.313C76.5309 23.1403 77.0964 23.0022 77.6689 22.8996C77.8439 22.8692 78.0212 22.8537 78.1989 22.8533C78.3337 22.8538 78.4684 22.8626 78.6022 22.8798C78.9169 22.9049 79.2132 23.0372 79.4409 23.2541C79.6687 23.4711 79.8139 23.7595 79.8521 24.0704C79.9021 24.6823 79.4954 25.2115 78.7688 25.3934C78.0422 25.5753 77.2089 25.8002 76.4357 25.959C75.9357 26.0615 75.7691 26.2897 75.8757 26.7991C76.019 27.4044 76.129 28.0162 76.249 28.6281C76.4123 29.4649 76.109 30.1032 75.4491 30.3248C75.3168 30.368 75.1784 30.3903 75.0391 30.391C74.7584 30.3831 74.4863 30.2928 74.2573 30.1315C74.0283 29.9702 73.8526 29.7451 73.7526 29.4847C73.5381 28.9959 73.3901 28.4809 73.3126 27.9534C72.9193 25.357 72.436 22.7839 71.4927 20.3132C71.3746 19.9792 71.3336 19.6232 71.3727 19.2713C71.4053 18.9597 71.5545 18.6716 71.7909 18.464C72.0273 18.2563 72.3337 18.1443 72.6493 18.1501L72.6326 18.1733ZM72.6493 16.8271H72.6093C71.967 16.8273 71.3476 17.0643 70.8715 17.4921C70.3954 17.92 70.0965 18.5081 70.0328 19.1424C69.9714 19.7015 70.0398 20.2672 70.2328 20.7961C71.1561 23.2138 71.6194 25.7572 71.9827 28.1651C72.0765 28.8075 72.2558 29.4348 72.516 30.0305C72.7205 30.5263 73.0675 30.9516 73.5138 31.2533C73.9601 31.555 74.4859 31.7198 75.0258 31.7272C75.3091 31.7268 75.5905 31.681 75.8591 31.5916C77.1589 31.1583 77.8356 29.8717 77.5456 28.3867L77.4689 28.003C77.4156 27.7219 77.3589 27.4308 77.2989 27.1398C77.8756 27.0108 78.4788 26.8586 79.1255 26.6833C80.4587 26.3228 81.2853 25.2314 81.1853 23.9679C81.1238 23.3556 80.8527 22.7827 80.4173 22.3446C79.9818 21.9065 79.4083 21.6296 78.7922 21.5601C78.5966 21.5336 78.3995 21.5203 78.2022 21.5204C77.9417 21.5201 77.6818 21.5433 77.4256 21.5899C76.959 21.6792 76.5623 21.7652 76.199 21.8578C75.8957 20.8159 75.5491 19.7939 75.1991 18.8282C75.0398 18.2775 74.7109 17.7901 74.2584 17.4342C73.806 17.0783 73.2526 16.8718 72.676 16.8437L72.6493 16.8271Z" fill="black"/>
<path d="M88.4947 25.5293H88.268C87.8686 25.5063 87.4876 25.3551 87.1822 25.0986C86.8769 24.8421 86.6637 24.4942 86.5748 24.1071C86.4634 23.7357 86.4755 23.3386 86.6094 22.9746C86.7433 22.6106 86.9918 22.2991 87.3181 22.0863C87.7434 21.7901 88.2256 21.5841 88.7347 21.481C90.6278 21.1502 92.5544 20.8393 94.4209 20.5384L96.6907 20.1679C96.8179 20.1333 96.9488 20.1133 97.0807 20.1084H97.624V20.1316H97.7573L98.1539 20.158C98.667 20.2038 99.1454 20.4342 99.499 20.8058C99.8527 21.1775 100.057 21.6647 100.074 22.1755C100.103 22.6585 99.9537 23.1355 99.6536 23.5168C99.3534 23.898 98.9232 24.1574 98.4439 24.246C98.1454 24.3108 97.8423 24.3528 97.5373 24.3717C97.394 24.3717 97.254 24.3915 97.1107 24.4114L93.7776 24.848L89.5479 25.4003L89.3179 25.4334C89.0462 25.4851 88.7711 25.5172 88.4947 25.5293Z" fill="white"/>
<path d="M97.0806 20.7798H97.1039C97.6439 20.7798 97.5906 20.803 98.1272 20.8328C98.4782 20.87 98.8034 21.0335 99.0411 21.2926C99.2788 21.5516 99.4125 21.8881 99.4171 22.2384C99.4351 22.5655 99.3303 22.8876 99.1228 23.1424C98.9153 23.3972 98.6199 23.5665 98.2938 23.6176C97.8757 23.6901 97.4541 23.7409 97.0306 23.7698L89.4512 24.762C89.1348 24.8158 88.8153 24.85 88.4946 24.8645C88.4369 24.8678 88.379 24.8678 88.3213 24.8645C88.0624 24.8515 87.8152 24.7534 87.6185 24.5858C87.4218 24.4182 87.2868 24.1905 87.2347 23.9385C87.1614 23.7006 87.1679 23.4456 87.2533 23.2118C87.3386 22.978 87.4982 22.778 87.708 22.6419C88.0543 22.3996 88.4467 22.2297 88.8613 22.1425C91.3711 21.7059 93.8875 21.309 96.404 20.8956C96.404 20.8956 96.404 20.8956 96.4273 20.8956C96.5406 20.8956 96.9806 20.7699 97.0939 20.7699L97.0806 20.7798ZM97.4506 19.3742L96.9773 19.4536C96.8425 19.4644 96.7088 19.4854 96.5773 19.5164L96.1873 19.5825L94.3041 19.8868C92.4443 20.1878 90.5211 20.502 88.6379 20.8295C88.0388 20.9494 87.4713 21.1916 86.9714 21.5406C86.5385 21.8316 86.2089 22.2506 86.0294 22.738C85.8499 23.2254 85.8297 23.7565 85.9715 24.256C86.0957 24.7754 86.3845 25.2417 86.7954 25.5864C87.2063 25.931 87.7178 26.1359 88.2546 26.171C88.348 26.171 88.4413 26.171 88.5379 26.171C88.8429 26.166 89.1471 26.1384 89.4479 26.0883L89.6678 26.0585L93.8509 25.5095L97.2473 25.0663L97.6406 25.0299C97.9769 25.0084 98.3111 24.962 98.6405 24.891C99.2742 24.7657 99.8406 24.4162 100.234 23.9076C100.628 23.399 100.822 22.7659 100.78 22.126C100.754 21.4542 100.479 20.8155 100.009 20.3313C99.539 19.8471 98.9061 19.5512 98.2305 19.4999L97.8539 19.4734C97.7305 19.4734 97.6306 19.4536 97.4872 19.4503L97.4706 19.3643L97.4506 19.3742Z" fill="black"/>
<path d="M92.7276 18.9738C91.6744 18.8944 91.3177 18.696 90.9644 18.3123C90.9236 18.2669 90.8802 18.2238 90.8344 18.1833C90.0005 17.4945 89.2205 16.7438 88.5013 15.9376C88.1864 15.5892 88.0139 15.1366 88.0176 14.6687C88.0213 14.2007 88.2009 13.7509 88.5213 13.4074C88.7038 13.2055 88.9274 13.0442 89.1773 12.9342C89.4272 12.8241 89.6978 12.7679 89.9712 12.7691C90.3657 12.7763 90.7507 12.8907 91.0844 13.0998C91.3135 13.2479 91.5277 13.4173 91.7244 13.6058L91.8977 13.758C92.471 14.2541 93.0431 14.7513 93.6142 15.2496L93.7175 15.3389C93.8893 15.4738 94.0458 15.6269 94.1842 15.7954C94.7741 16.5462 94.8508 17.3333 94.3708 17.9518C94.0433 18.4443 93.5492 18.8045 92.9776 18.9672L92.8509 19.0135L92.7276 18.9738Z" fill="white"/>
<path d="M89.9844 13.4207C90.2561 13.424 90.5219 13.4994 90.7544 13.639C91.01 13.8167 91.2508 14.0147 91.4743 14.231C92.0476 14.7271 92.6176 15.2232 93.1842 15.7194C93.3606 15.8559 93.5235 16.0087 93.6708 16.1758C94.0041 16.5859 94.1841 17.0919 93.8508 17.5285C93.6049 17.915 93.222 18.1958 92.7776 18.3157C91.531 18.2198 91.6343 17.985 91.261 17.6542C90.4597 16.9841 89.7088 16.2568 89.0145 15.4779C88.8097 15.2495 88.698 14.9536 88.7011 14.6479C88.7042 14.3421 88.8219 14.0485 89.0312 13.8242C89.1511 13.6915 89.2981 13.5856 89.4625 13.5138C89.6269 13.4419 89.8048 13.4057 89.9844 13.4075V13.4207ZM89.9844 12.0845C89.6168 12.084 89.2532 12.1604 88.9173 12.3085C88.5814 12.4567 88.2806 12.6733 88.0346 12.9444C87.6115 13.4122 87.3761 14.0177 87.3731 14.6463C87.37 15.2748 87.5995 15.8826 88.0179 16.3544C88.7554 17.184 89.5542 17.9579 90.4077 18.6696C90.4293 18.6891 90.4493 18.7101 90.4677 18.7324C90.9944 19.3112 91.551 19.5361 92.6776 19.6221L92.9475 19.642L93.2042 19.556C93.8936 19.3535 94.4923 18.9228 94.9007 18.3355C95.5673 17.4591 95.494 16.3511 94.7174 15.3588C94.5515 15.1583 94.3662 14.9744 94.1641 14.8098C94.1304 14.784 94.0981 14.7564 94.0675 14.7271C93.4975 14.231 92.9242 13.7349 92.3476 13.2355L92.1876 13.0932C91.9607 12.8695 91.7117 12.6689 91.4443 12.4946C91.0042 12.229 90.4995 12.0873 89.9844 12.0845V12.0845Z" fill="black"/>
</svg>
