<svg width="169" height="64" viewBox="0 0 169 64" fill="none" xmlns="http://www.w3.org/2000/svg">
<path d="M20.025 8.53581C13.4956 10.6899 6.9388 13.956 3.14422 19.6629C-3.98912 30.3909 1.843 45.8339 12.3385 53.3695C22.834 60.9051 36.3994 62.4161 49.3103 63.1754C75.0036 64.6886 100.778 64.1185 126.378 61.4707C133.255 60.7578 140.224 59.8667 146.579 57.1586C158.075 52.2614 166.705 41.2235 168.645 28.938C169.962 20.585 167.698 10.9146 160.506 6.4088C156.197 3.69678 150.88 3.27835 145.795 2.96453C105.606 0.469462 58.9331 -4.29208 20.025 8.53581Z" fill="#42E532"/>
<path fill-rule="evenodd" clip-rule="evenodd" d="M5.43829 21.1649L5.43827 21.1649C2.42773 25.6925 2.05739 31.3506 3.7606 36.9216C5.46764 42.5052 9.19719 47.7478 13.9496 51.1599C23.7259 58.1791 36.5296 59.6916 49.4729 60.4529L49.4731 60.4529C75.0172 61.9573 100.642 61.3905 126.094 58.7581C132.981 58.0441 139.567 57.1789 145.494 54.6527L145.494 54.6525C156.12 50.1263 164.135 39.8771 165.929 28.5165C167.162 20.6967 164.912 12.3948 159.039 8.7149L159.037 8.71339L159.034 8.71187C155.413 6.43243 150.814 6.00684 145.625 5.68655L145.624 5.68649C141.723 5.44432 137.77 5.18205 133.778 4.91715C96.3727 2.43526 55.4757 -0.278308 20.8916 11.124C14.5262 13.224 8.71086 16.2431 5.43829 21.1649ZM168.645 28.938C166.705 41.2235 158.075 52.2614 146.579 57.1586C140.224 59.8668 133.255 60.7578 126.378 61.4707C100.778 64.1185 75.0036 64.6886 49.3103 63.1754C36.3994 62.4161 22.834 60.9051 12.3385 53.3695C1.843 45.8339 -3.98912 30.3909 3.14422 19.6629C6.9388 13.956 13.4956 10.6899 20.025 8.53581C55.1566 -3.04698 96.6185 -0.289161 133.922 2.19209C137.933 2.45882 141.895 2.72235 145.795 2.96453C150.88 3.27835 156.197 3.69678 160.506 6.4088C167.698 10.9146 169.962 20.585 168.645 28.938Z" fill="black"/>
<path d="M76.2827 25.7592C76.4425 27.8591 75.6243 29.9706 74.8997 32.086C74.3075 33.8062 72.9907 35.046 71.6505 36.2199C71.4666 36.3654 71.3311 36.5626 71.2616 36.7858C71.1921 37.0091 71.1919 37.248 71.261 37.4713C71.5376 38.8661 71.7129 40.2802 71.931 41.6827C72.0207 42.2716 72.0908 42.8683 72.2349 43.4417C72.2803 43.5372 72.3489 43.6198 72.4347 43.6821C72.5205 43.7444 72.6205 43.7842 72.7258 43.7981C74.7049 43.6276 76.6801 43.43 78.6514 43.217C78.9473 43.1713 79.2348 43.0825 79.5046 42.9535C80.2838 42.6281 80.9539 42.7675 81.3474 43.3409C81.5636 43.6382 81.6534 44.0082 81.5972 44.3708C81.5411 44.7333 81.3435 45.0593 81.0474 45.2781C80.4943 45.6375 79.8673 45.8691 79.2124 45.9561C76.8243 46.2738 74.4244 46.4288 72.0479 46.8162C70.1 47.099 68.1988 47.5911 66.2665 47.9359C65.7221 48.0314 65.1661 48.0418 64.6185 47.9669C63.5861 47.8197 63.0017 47.0719 63.1614 46.2273C63.3212 45.3827 64.0692 45.1309 65.1094 45.0999C66.4782 44.9847 67.8381 44.7815 69.1806 44.4916C69.278 44.4916 69.4143 44.2165 69.3987 44.1042C69.1299 42.105 68.8572 40.1059 68.53 38.1183C68.4889 37.9656 68.4131 37.8244 68.3084 37.7055C68.2037 37.5866 68.0729 37.4932 67.9261 37.4326C67.3466 37.2643 66.81 36.9746 66.3524 36.583C65.8948 36.1914 65.5268 35.707 65.273 35.1622C64.8092 34.263 64.446 33.3159 64.19 32.3379C63.5303 29.4269 62.9368 26.5044 62.4095 23.5703C62.2654 22.7954 62.4095 21.9314 62.4914 21.1139C62.5325 20.8174 62.6318 20.5318 62.7835 20.2732C62.9172 19.951 63.1637 19.688 63.4775 19.5327C63.7912 19.3774 64.1509 19.3404 64.4899 19.4286C65.0938 19.6223 65.4522 20.1686 65.2964 20.9783C65.0276 22.3886 65.2107 23.7678 65.4327 25.151C65.5418 25.829 65.6821 26.507 65.7989 27.185C65.8574 27.5414 66.0327 27.6422 66.4067 27.7584C68.7715 28.4868 70.7818 27.3206 72.8738 26.6348C73.0248 26.5548 73.1547 26.4405 73.2529 26.3011C73.351 26.1618 73.4147 26.0013 73.4388 25.8329C73.572 23.5296 73.1205 21.23 72.1258 19.1458C71.9583 18.7855 71.783 18.6654 71.3856 18.8668C71.1607 18.9935 70.8999 19.0424 70.644 19.006C70.3881 18.9695 70.1516 18.8497 69.9714 18.6654C69.7738 18.4848 69.6349 18.2497 69.5724 17.9902C69.51 17.7307 69.5268 17.4586 69.6208 17.2086C70.1039 15.5272 71.9583 14.9073 73.3063 16.0463C73.7935 16.496 74.1901 17.0337 74.4751 17.6309C75.7502 20.1479 76.3716 22.9422 76.2827 25.7592V25.7592ZM72.7141 29.9745L72.5193 29.8273C70.6376 30.2922 68.8105 31.0826 66.6989 30.8152C67.0223 32.1364 67.2989 33.3529 68.1287 34.3486C68.1945 34.453 68.2837 34.5408 68.3894 34.6051C68.495 34.6694 68.6142 34.7086 68.7376 34.7194C68.861 34.7303 68.9852 34.7126 69.1006 34.6678C69.216 34.623 69.3194 34.5522 69.4026 34.461C70.2903 33.6041 71.1292 32.6987 71.9155 31.749C72.3051 31.253 72.457 30.5712 72.7141 29.9745Z" fill="white"/>
<path fill-rule="evenodd" clip-rule="evenodd" d="M76.2012 32.5249L76.2005 32.5269C75.4858 34.6032 73.9249 36.0454 72.6082 37.2004L72.6097 37.2081C72.8104 38.2202 72.9627 39.2623 73.1087 40.2621C73.1691 40.6752 73.2284 41.0812 73.2896 41.4747L73.2899 41.477L73.2903 41.4792C73.3128 41.6271 73.333 41.7667 73.3524 41.8999C73.3763 42.0645 73.3988 42.2193 73.4223 42.3679C75.1048 42.2167 76.7862 42.0468 78.467 41.8653C78.6199 41.8391 78.7686 41.7919 78.9087 41.725L78.9399 41.71L78.9719 41.6967C79.5481 41.456 80.1999 41.3386 80.8551 41.476C81.5294 41.6174 82.0884 42.0054 82.473 42.5581C82.8926 43.1432 83.0658 43.8679 82.9559 44.5779C82.845 45.2941 82.4547 45.9389 81.8684 46.3719L81.8352 46.3965L81.8006 46.419C81.0757 46.89 80.2538 47.1937 79.3951 47.3077C78.3215 47.4506 77.315 47.5553 76.3313 47.6576C74.9734 47.7988 73.659 47.9356 72.2711 48.1618L72.2592 48.1638L72.2473 48.1655C71.3191 48.3003 70.3928 48.4863 69.436 48.687C69.2721 48.7214 69.1069 48.7563 68.9406 48.7914C68.1481 48.9589 67.3307 49.1316 66.5101 49.278L66.5081 49.2784L66.5061 49.2787C65.8207 49.399 65.1206 49.4122 64.4311 49.3178L64.4273 49.3172L64.4234 49.3167C63.6202 49.2022 62.8833 48.8358 62.3778 48.2198C61.8639 47.5937 61.6577 46.7875 61.8112 45.9758C61.9719 45.126 62.4753 44.5049 63.1759 44.1465C63.7753 43.8399 64.4534 43.7579 65.029 43.7382C65.9956 43.6557 66.9574 43.5273 67.9113 43.3536C67.6966 41.771 67.4758 40.2 67.2232 38.6389C66.5766 38.4088 65.9771 38.0623 65.4554 37.6158C64.8565 37.1033 64.3736 36.4709 64.0382 35.7604C63.5343 34.7794 63.1393 33.7467 62.8603 32.6807L62.8546 32.659L62.8496 32.6371C62.1857 29.7076 61.5884 26.7663 61.0577 23.8133C60.8982 22.9506 61.0081 21.9988 61.0863 21.3215C61.1007 21.1974 61.1139 21.0826 61.1243 20.9792L61.1269 20.9534L61.1304 20.9277C61.192 20.4843 61.3351 20.056 61.5524 19.6642C61.8198 19.0786 62.2825 18.6005 62.8645 18.3124C63.4761 18.0097 64.1775 17.9376 64.8388 18.1095L64.8762 18.1193L64.9131 18.1311C65.5081 18.322 66.0483 18.7139 66.3818 19.314C66.7121 19.9083 66.7717 20.5828 66.6468 21.2329C66.4274 22.3853 66.5679 23.5518 66.7902 24.936M65.2968 20.9784C65.4526 20.1686 65.0942 19.6223 64.4903 19.4286C64.1513 19.3405 63.7916 19.3774 63.4779 19.5327C63.1642 19.688 62.9176 19.9511 62.7839 20.2732C62.6322 20.5318 62.533 20.8174 62.4918 21.114C62.4778 21.2532 62.4621 21.3938 62.4463 21.535C62.3692 22.2232 62.2903 22.9274 62.4099 23.5703C62.9372 26.5044 63.5307 29.427 64.1904 32.3379C64.4464 33.3159 64.8096 34.263 65.2734 35.1623C65.5272 35.707 65.8952 36.1915 66.3528 36.5831C66.8104 36.9747 67.347 37.2643 67.9265 37.4326C68.0733 37.4932 68.2041 37.5866 68.3088 37.7055C68.4135 37.8244 68.4893 37.9657 68.5304 38.1184C68.8576 40.1059 69.1303 42.1051 69.3991 44.1042C69.4147 44.2166 69.2784 44.4916 69.181 44.4916C67.8385 44.7815 66.4786 44.9847 65.1098 45.0999C64.0696 45.1309 63.3216 45.3827 63.1618 46.2273C63.0021 47.0719 63.5865 47.8197 64.6189 47.9669C65.1665 48.0419 65.7225 48.0314 66.2669 47.9359C67.0639 47.7937 67.8556 47.6264 68.6475 47.4591C69.7755 47.2208 70.9039 46.9824 72.0483 46.8162C73.448 46.5881 74.8557 46.4405 76.2644 46.2929C77.2476 46.1898 78.2312 46.0867 79.2128 45.9561C79.8677 45.8692 80.4947 45.6375 81.0478 45.2781C81.3439 45.0594 81.5415 44.7334 81.5976 44.3708C81.6538 44.0082 81.564 43.6382 81.3478 43.341C80.9543 42.7676 80.2842 42.6281 79.505 42.9535C79.2352 43.0825 78.9477 43.1713 78.6518 43.217C76.6805 43.4301 74.7053 43.6277 72.7262 43.7981C72.621 43.7843 72.5209 43.7444 72.4351 43.6821C72.3494 43.6199 72.2807 43.5372 72.2353 43.4417C72.1215 42.9889 72.0538 42.5215 71.9863 42.0549C71.9683 41.9307 71.9503 41.8066 71.9315 41.6828C71.8661 41.2625 71.8045 40.8411 71.743 40.4196C71.5991 39.4345 71.4551 38.4482 71.2614 37.4714C71.1923 37.248 71.1925 37.0091 71.262 36.7859C71.3315 36.5626 71.467 36.3654 71.6509 36.22C72.9911 35.046 74.3079 33.8063 74.9001 32.0861C74.9644 31.8983 75.0295 31.7106 75.0945 31.523C75.7622 29.596 76.4287 27.6728 76.2831 25.7593C76.372 22.9423 75.7506 20.1479 74.4755 17.6309C74.1905 17.0338 73.7939 16.496 73.3067 16.0463C71.9587 14.9073 70.1043 15.5272 69.6212 17.2086C69.5272 17.4586 69.5104 17.7307 69.5728 17.9903C69.6353 18.2498 69.7742 18.4849 69.9718 18.6654C70.152 18.8498 70.3885 18.9696 70.6444 19.006C70.9003 19.0425 71.1611 18.9935 71.386 18.8669C71.7834 18.6654 71.9587 18.7855 72.1262 19.1458C73.1209 21.2301 73.5724 23.5296 73.4392 25.8329C73.4151 26.0014 73.3514 26.1618 73.2533 26.3011C73.1551 26.4405 73.0252 26.5548 72.8743 26.6349C72.4531 26.7729 72.0352 26.9305 71.6171 27.0881C69.9584 27.7134 68.2958 28.3402 66.4071 27.7584C66.0331 27.6422 65.8578 27.5415 65.7994 27.185C65.7493 26.8945 65.6949 26.6039 65.6405 26.3133C65.568 25.9259 65.4955 25.5384 65.4331 25.151C65.2111 23.7679 65.028 22.3886 65.2968 20.9784ZM66.7902 24.9365C66.8528 25.3255 66.9174 25.6689 66.9852 26.0296C67.0154 26.1902 67.0462 26.3543 67.0778 26.5273C67.8337 26.7031 68.5694 26.6307 69.382 26.4112C69.8449 26.2862 70.3149 26.1185 70.829 25.9262C70.9228 25.8911 71.0189 25.8548 71.1168 25.8179C71.4245 25.7019 71.7503 25.579 72.0806 25.4632C72.1403 23.7143 71.8268 21.9741 71.1626 20.357C70.9275 20.3897 70.6873 20.3898 70.4491 20.3558C69.9048 20.2783 69.4011 20.0277 69.013 19.6427C68.6291 19.2818 68.3591 18.8177 68.2362 18.307C68.1149 17.803 68.142 17.2753 68.3138 16.7868C68.6832 15.5567 69.5795 14.6382 70.7158 14.2726C71.8763 13.8993 73.1719 14.1413 74.1976 15.0081L74.2206 15.0275L74.2426 15.0478C74.8534 15.6116 75.3513 16.2849 75.7103 17.0323C77.0729 19.7277 77.7421 22.7164 77.6588 25.7312C77.8045 27.9183 77.0491 30.0873 76.4024 31.9441C76.3337 32.1413 76.2662 32.3351 76.2012 32.5249M72.0192 20.0776C72.022 20.0763 72.0235 20.0756 72.0236 20.0754C72.0236 20.0754 72.0234 20.0755 72.0228 20.0757C72.0216 20.0763 72.0204 20.077 72.0192 20.0776ZM70.8694 19.6984C70.8684 19.6968 70.868 19.6959 70.868 19.6959C70.868 19.6958 70.8684 19.6966 70.8694 19.6984ZM68.1291 34.3487C67.603 33.7174 67.2992 32.9973 67.0649 32.218C66.9422 31.8097 66.8385 31.3852 66.7319 30.9487C66.7211 30.9043 66.7102 30.8599 66.6993 30.8153C67.1873 30.8771 67.6601 30.8823 68.1219 30.8482C69.175 30.7704 70.1709 30.4876 71.1591 30.2022C71.1807 30.196 71.2022 30.1898 71.2238 30.1835C71.6238 30.068 72.0228 29.9528 72.424 29.8513C72.4559 29.8432 72.4878 29.8352 72.5197 29.8273L72.7145 29.9745C72.6805 30.0536 72.6483 30.1341 72.6171 30.2154C72.5757 30.3236 72.5361 30.4333 72.4965 30.5431C72.3994 30.8124 72.3022 31.082 72.1772 31.33C72.1021 31.479 72.017 31.6203 71.9159 31.749C71.1296 32.6987 70.2907 33.6042 69.403 34.461C69.3198 34.5522 69.2164 34.623 69.101 34.6678C68.9856 34.7127 68.8614 34.7303 68.738 34.7195C68.6146 34.7086 68.4954 34.6694 68.3898 34.6051C68.2842 34.5408 68.1949 34.453 68.1291 34.3487ZM69.9398 31.9396C69.5973 32.318 69.2457 32.6883 68.8853 33.05C68.732 32.7913 68.6083 32.5068 68.4969 32.184C69.0007 32.1324 69.4817 32.044 69.9398 31.9396Z" fill="black"/>
<path d="M91.0092 33.2559C90.2301 34.3291 89.4821 35.3481 88.7263 36.3554C88.4648 36.7316 88.1645 37.0796 87.8302 37.3937C87.6164 37.6121 87.3312 37.7473 87.026 37.7751C86.7208 37.8028 86.4157 37.7212 86.1657 37.545C85.9156 37.3688 85.7371 37.1095 85.6623 36.814C85.5875 36.5184 85.6213 36.206 85.7576 35.9331C85.9222 35.5293 86.1397 35.149 86.4043 34.8018C88.099 32.5392 89.8171 30.2882 91.5235 28.0333C91.7533 27.7273 91.9598 27.4018 92.3027 26.9136C91.9844 26.9475 91.6683 26.9992 91.356 27.0686C89.521 27.611 87.6899 28.1728 85.8511 28.7113C85.4353 28.8503 85.0032 28.9349 84.5655 28.9632C84.2244 28.9796 83.8892 28.87 83.6245 28.6554C83.3598 28.4408 83.1843 28.1365 83.1318 27.8009C83.0668 27.4814 83.1232 27.1493 83.2902 26.8687C83.4571 26.5882 83.7227 26.3792 84.0356 26.2821C87.0121 25.4608 89.9963 24.6472 92.9961 23.9227C93.9117 23.698 94.9441 23.7018 95.5752 24.6278C96.2063 25.5538 95.8167 26.5456 95.3025 27.4057C94.7253 28.3723 94.085 29.3003 93.3857 30.1836C92.9338 30.7492 92.9961 31.125 93.4169 31.6674C95.2819 33.9438 96.8974 36.4115 98.2361 39.0287C98.5273 39.603 98.7735 40.1988 98.9724 40.8109C99.0992 41.226 99.1337 41.6635 99.0737 42.0933C99.059 42.3114 98.9802 42.5204 98.8471 42.6944C98.7139 42.8684 98.5323 42.9997 98.3248 43.0719C98.1173 43.1441 97.8931 43.1541 97.6799 43.1007C97.4667 43.0472 97.274 42.9327 97.1258 42.7713C96.7638 42.3885 96.4794 41.9399 96.2881 41.4501C95.0376 38.556 93.2455 35.9989 91.3365 33.5116C91.2364 33.4156 91.1268 33.3299 91.0092 33.2559V33.2559Z" fill="white"/>
<path fill-rule="evenodd" clip-rule="evenodd" d="M91.0094 33.2561C90.2303 34.3293 89.4822 35.3483 88.7264 36.3556C88.465 36.7318 88.1647 37.0798 87.8304 37.3939C87.6166 37.6123 87.3314 37.7475 87.0262 37.7753C86.721 37.803 86.4159 37.7214 86.1659 37.5452C85.9158 37.369 85.7373 37.1098 85.6625 36.8142C85.5876 36.5187 85.6215 36.2063 85.7578 35.9333C85.9224 35.5296 86.1399 35.1492 86.4045 34.802C87.5699 33.2461 88.7463 31.6958 89.9223 30.1459C90.3232 29.6176 90.724 29.0894 91.1243 28.561C91.2575 28.3852 91.3906 28.2094 91.5237 28.0335C91.5366 28.0164 91.5494 27.9991 91.5622 27.9818C91.5783 27.9599 91.5944 27.9379 91.6104 27.9158C91.7149 27.7712 91.8187 27.6187 91.9376 27.4441C92.0437 27.2883 92.1617 27.1149 92.3028 26.9139C91.9846 26.9477 91.6685 26.9994 91.3562 27.0688C91.0875 27.1483 90.8189 27.2281 90.5503 27.3082C90.5485 27.3088 90.5468 27.3093 90.545 27.3098C90.4622 27.3345 90.3794 27.3592 90.2967 27.384C89.8331 27.5226 89.3696 27.6619 88.9061 27.8012C87.8889 28.107 86.8713 28.4128 85.8513 28.7116C85.4355 28.8505 85.0034 28.9352 84.5657 28.9634C84.2245 28.9799 83.8894 28.8702 83.6247 28.6557C83.36 28.4411 83.1845 28.1367 83.132 27.8011C83.067 27.4816 83.1234 27.1495 83.2903 26.8689C83.4573 26.5884 83.7229 26.3794 84.0358 26.2824C87.0123 25.461 89.9965 24.6474 92.9963 23.9229C93.9118 23.6982 94.9443 23.7021 95.5754 24.628C96.2065 25.554 95.8169 26.5458 95.3027 27.4059C94.7255 28.3725 94.0852 29.3005 93.3859 30.1838C92.934 30.7494 92.9963 31.1253 93.4171 31.6677C95.2821 33.944 96.8976 36.4117 98.2363 39.0289C98.5275 39.6032 98.7737 40.199 98.9726 40.8111C99.0993 41.2262 99.1339 41.6638 99.0739 42.0935C99.0592 42.3116 98.9804 42.5207 98.8473 42.6946C98.7141 42.8686 98.5325 42.9999 98.325 43.0721C98.1175 43.1443 97.8933 43.1544 97.6801 43.1009C97.4669 43.0475 97.2742 42.9329 97.1259 42.7715C96.764 42.3887 96.4796 41.9401 96.2883 41.4503C95.1705 38.8635 93.6201 36.5459 91.9402 34.3067C91.7407 34.0408 91.5393 33.7759 91.3367 33.5118C91.2946 33.4715 91.2508 33.4329 91.2055 33.3963C91.143 33.3458 91.0775 33.299 91.0094 33.2561ZM91.0941 35.4646C90.6754 36.0345 90.2605 36.5943 89.8429 37.151C89.5353 37.5906 89.1836 37.998 88.7933 38.3671C88.3539 38.8051 87.773 39.0768 87.1516 39.1332C86.5193 39.1907 85.8876 39.0216 85.3702 38.657C84.8529 38.2924 84.4841 37.7566 84.3297 37.1465C84.18 36.5551 84.2409 35.9309 84.5012 35.3798C84.7082 34.8826 84.9782 34.4136 85.3048 33.9842C86.4717 32.4263 87.6513 30.8717 88.8276 29.3215C88.8512 29.2904 88.8747 29.2594 88.8983 29.2284C88.0177 29.4929 87.1349 29.7573 86.2638 30.0125C85.7431 30.1841 85.2023 30.2888 84.6548 30.3242L84.6436 30.3249L84.6325 30.3254C83.9516 30.3583 83.2829 30.1395 82.7552 29.7117C82.2356 29.2904 81.8891 28.6961 81.7789 28.0406C81.6564 27.4005 81.7727 26.7373 82.1071 26.1755C82.4467 25.6048 82.9876 25.1788 83.6258 24.9808L83.6466 24.9744L83.6676 24.9686C86.6437 24.1473 89.6461 23.3286 92.6689 22.5985C93.7284 22.339 95.5734 22.1911 96.7137 23.864C97.8479 25.5281 97.0123 27.219 96.4845 28.1017C95.9033 29.075 95.2614 30.011 94.5625 30.9043C96.4557 33.229 98.0978 35.7453 99.4617 38.4117L99.4628 38.4138L99.4638 38.4159C99.7868 39.0529 100.06 39.7138 100.28 40.3925L100.284 40.404L100.288 40.4156C100.468 41.0056 100.52 41.6266 100.441 42.2378C100.399 42.7025 100.227 43.1469 99.9417 43.5193C99.6458 43.906 99.2419 44.1981 98.7799 44.3589C98.3178 44.5197 97.8182 44.542 97.3434 44.423C96.8723 44.3049 96.4465 44.0528 96.1179 43.6983C95.644 43.1955 95.2704 42.6082 95.0166 41.9675C94.0154 39.6568 92.6391 37.5501 91.0941 35.4646Z" fill="black"/>
<path d="M105.584 35.5809C105.584 35.8753 105.584 36.1039 105.584 36.3286C105.463 38.936 105.346 41.5473 105.194 44.1586C105.168 44.5246 105.084 44.8842 104.945 45.2241C104.852 45.5249 104.653 45.7823 104.385 45.9488C104.116 46.1154 103.797 46.18 103.484 46.1307C103.182 46.0867 102.905 45.9354 102.706 45.7047C102.507 45.474 102.399 45.1794 102.401 44.8754C102.376 44.3484 102.403 43.8202 102.483 43.2985C102.954 39.8122 102.924 36.277 102.393 32.7991C102.071 30.5865 101.309 28.4596 100.153 26.5421C99.6956 25.8813 99.2 25.2475 98.6688 24.6437C98.4208 24.3738 98.1929 24.0864 97.987 23.7836C97.8106 23.4954 97.7465 23.153 97.8068 22.821C97.8671 22.489 98.0476 22.1905 98.3143 21.982C98.5701 21.7748 98.896 21.6729 99.225 21.6974C99.5541 21.7219 99.8611 21.8709 100.083 22.1137C100.936 22.9794 101.718 23.9123 102.421 24.9032C103.807 26.976 104.559 29.3238 105.039 31.7492C105.05 31.9944 105.151 32.2272 105.322 32.404C105.493 32.5808 105.724 32.6896 105.97 32.71C107.964 33.0974 109.866 32.71 111.782 32.2296C112.179 32.1092 112.582 32.0097 112.99 31.9313C113.243 31.8783 113.506 31.91 113.738 32.0215C113.971 32.1329 114.16 32.3178 114.276 32.5473C114.417 32.7633 114.479 33.0206 114.454 33.2768C114.429 33.5331 114.316 33.7731 114.135 33.9575C113.772 34.3353 113.325 34.6244 112.83 34.8021C110.657 35.5381 108.351 35.8024 106.067 35.577C105.942 35.5538 105.822 35.5809 105.584 35.5809Z" fill="white"/>
<path fill-rule="evenodd" clip-rule="evenodd" d="M97.9867 23.7834C97.8103 23.4953 97.7462 23.1529 97.8065 22.8209C97.8668 22.4889 98.0473 22.1904 98.314 21.9819C98.5698 21.7746 98.8957 21.6728 99.2247 21.6973C99.5538 21.7218 99.8608 21.8708 100.083 22.1136C100.936 22.9793 101.718 23.9122 102.42 24.9031C103.807 26.9759 104.559 29.3237 105.038 31.749C105.05 31.9943 105.15 32.2271 105.322 32.4039C105.493 32.5807 105.723 32.6894 105.969 32.7099C107.964 33.0973 109.865 32.7099 111.782 32.2295C112.179 32.1091 112.582 32.0095 112.99 31.9311C113.242 31.8782 113.505 31.9099 113.738 32.0214C113.971 32.1328 114.16 32.3177 114.275 32.5472C114.416 32.7632 114.479 33.0205 114.454 33.2767C114.428 33.533 114.316 33.773 114.135 33.9574C113.771 34.3352 113.325 34.6243 112.83 34.802C110.939 35.4424 108.948 35.7256 106.958 35.64C106.674 35.6278 106.39 35.608 106.107 35.5808C106.093 35.5795 106.08 35.5782 106.067 35.5769C105.992 35.5629 105.919 35.5671 105.821 35.5727C105.755 35.5764 105.679 35.5808 105.584 35.5808V36.3285C105.571 36.6 105.559 36.8715 105.546 37.143C105.438 39.4797 105.33 41.8191 105.194 44.1585C105.168 44.5245 105.084 44.8841 104.945 45.224C104.852 45.5248 104.653 45.7821 104.385 45.9487C104.116 46.1153 103.796 46.1799 103.484 46.1305C103.181 46.0866 102.905 45.9353 102.706 45.7046C102.507 45.4738 102.398 45.1793 102.401 44.8753C102.375 44.3483 102.403 43.82 102.483 43.2984C102.954 39.8121 102.923 36.2769 102.393 32.799C102.07 30.5863 101.309 28.4595 100.153 26.542C99.6953 25.8812 99.1997 25.2473 98.6685 24.6435C98.4205 24.3737 98.1926 24.0862 97.9867 23.7834ZM97.6425 25.5508C97.3536 25.2354 97.0879 24.8996 96.8476 24.5462L96.8293 24.5193L96.8123 24.4916C96.4616 23.9188 96.3343 23.2384 96.454 22.579C96.5731 21.9233 96.9285 21.3328 97.4542 20.9181C97.9811 20.4951 98.651 20.2871 99.3276 20.3375C99.9981 20.3874 100.624 20.6872 101.08 21.1754C101.98 22.0893 102.804 23.0735 103.544 24.1186L103.555 24.1336L103.565 24.1488C105.072 26.4003 105.87 28.9074 106.369 31.3966C107.981 31.6771 109.573 31.3756 111.414 30.9152C111.843 30.7864 112.279 30.6792 112.719 30.5942C113.265 30.4827 113.833 30.5527 114.336 30.7934C114.819 31.0251 115.216 31.4024 115.469 31.8701C115.751 32.3319 115.875 32.8724 115.821 33.4106C115.765 33.9718 115.52 34.498 115.125 34.9034C114.615 35.4312 113.99 35.8354 113.298 36.0842L113.286 36.0885L113.274 36.0925C111.231 36.7846 109.079 37.0925 106.928 37.0036C106.925 37.071 106.922 37.1384 106.919 37.2058C106.811 39.5413 106.703 41.8891 106.566 44.2371L106.565 44.2462L106.565 44.2552C106.53 44.7459 106.42 45.2283 106.239 45.686C106.041 46.2734 105.644 46.7756 105.113 47.1049C104.566 47.4445 103.914 47.5772 103.276 47.4786C102.648 47.3852 102.075 47.07 101.662 46.5914C101.257 46.1216 101.032 45.5252 101.027 44.908C101 44.3058 101.032 43.7024 101.122 43.1062C101.574 39.7514 101.545 36.3496 101.034 33.003L101.034 32.9986L101.033 32.9942C100.738 30.9741 100.046 29.0318 98.9956 27.2788C98.5776 26.6779 98.1258 26.1011 97.6425 25.5508Z" fill="black"/>
<path d="M124.892 43.7438C125.2 43.678 125.461 43.6121 125.725 43.5617C127.946 43.1317 130.159 42.659 132.391 42.2948C133.261 42.1786 134.143 42.1786 135.013 42.2948C135.211 42.301 135.406 42.3472 135.586 42.4306C135.765 42.514 135.926 42.633 136.058 42.7801C136.19 42.9273 136.29 43.0996 136.353 43.2866C136.416 43.4736 136.44 43.6713 136.424 43.8678C136.405 44.0707 136.345 44.2676 136.247 44.4463C136.149 44.6249 136.014 44.7814 135.852 44.9058C135.69 45.0303 135.504 45.12 135.305 45.1694C135.106 45.2188 134.9 45.2268 134.698 45.1928C132.025 44.7667 129.52 45.5803 126.988 46.1498C123.61 46.9014 120.26 47.7886 116.89 48.5945C116.443 48.7045 115.981 48.7437 115.522 48.7107C115.183 48.6864 114.865 48.5392 114.628 48.2971C114.391 48.055 114.252 47.7349 114.237 47.3973C114.231 47.0628 114.345 46.7372 114.56 46.4793C114.774 46.2214 115.074 46.0482 115.405 45.991C117.388 45.5493 119.371 45.096 121.362 44.6892C121.919 44.5768 122.114 44.4025 122.024 43.7826C121.693 41.7644 121.087 39.8002 120.224 37.944C119.878 37.1864 119.573 36.4104 119.313 35.6194C119.185 35.2474 119.142 34.8519 119.186 34.4613C119.231 34.0707 119.362 33.6948 119.57 33.3606C119.741 33.056 120.014 32.8205 120.341 32.6952C120.669 32.5699 121.03 32.5627 121.362 32.6749C122.009 32.919 122.215 33.473 122.141 34.3215C122.114 34.8376 122.191 35.354 122.367 35.8402C123.053 37.8122 123.809 39.7572 124.487 41.7292C124.669 42.3905 124.804 43.0637 124.892 43.7438V43.7438Z" fill="white"/>
<path fill-rule="evenodd" clip-rule="evenodd" d="M126.241 43.4612C126.069 43.4949 125.897 43.5284 125.726 43.5616C125.565 43.5922 125.406 43.6284 125.237 43.6669C125.127 43.6918 125.013 43.7178 124.892 43.7437C124.834 43.2921 124.754 42.8435 124.654 42.3994C124.604 42.1747 124.548 41.9512 124.487 41.7291C124.132 40.6973 123.756 39.673 123.38 38.6483C123.037 37.7145 122.694 36.7804 122.367 35.8401C122.191 35.3539 122.114 34.8375 122.141 34.3214C122.215 33.4729 122.009 32.9188 121.362 32.6748C121.03 32.5626 120.669 32.5698 120.341 32.6951C120.014 32.8204 119.741 33.0558 119.57 33.3605C119.362 33.6947 119.231 34.0706 119.187 34.4612C119.142 34.8518 119.185 35.2473 119.313 35.6193C119.574 36.4102 119.878 37.1863 120.225 37.9438C121.088 39.8001 121.693 41.7642 122.025 43.7825C122.114 44.4023 121.919 44.5767 121.362 44.689C119.758 45.0168 118.159 45.3748 116.561 45.7326C116.176 45.8188 115.791 45.905 115.405 45.9908C115.074 46.0481 114.774 46.2213 114.56 46.4792C114.345 46.7371 114.231 47.0627 114.237 47.3972C114.252 47.7347 114.391 48.0549 114.628 48.297C114.865 48.5391 115.184 48.6863 115.522 48.7106C115.981 48.7436 116.443 48.7043 116.89 48.5944C118.161 48.2905 119.429 47.975 120.697 47.6596C122.791 47.1386 124.884 46.6178 126.988 46.1497C127.403 46.0564 127.816 45.9566 128.23 45.8568C130.345 45.3469 132.463 44.8363 134.698 45.1927C134.9 45.2266 135.107 45.2187 135.305 45.1693C135.504 45.1199 135.69 45.0301 135.852 44.9057C136.014 44.7812 136.149 44.6248 136.247 44.4461C136.345 44.2675 136.406 44.0705 136.424 43.8677C136.44 43.6712 136.416 43.4735 136.353 43.2865C136.291 43.0995 136.19 42.9271 136.058 42.78C135.926 42.6328 135.766 42.5139 135.586 42.4305C135.406 42.3471 135.212 42.3009 135.013 42.2947C134.143 42.1785 133.262 42.1785 132.391 42.2947C130.789 42.5561 129.197 42.8735 127.604 43.1908C127.15 43.2814 126.695 43.3719 126.241 43.4612ZM125.999 42.1185C125.943 41.8675 125.881 41.6178 125.812 41.3697L125.801 41.3289L125.787 41.2888C125.443 40.2877 125.08 39.2961 124.721 38.3179C124.705 38.2736 124.689 38.2292 124.672 38.1849C124.329 37.2483 123.989 36.3242 123.666 35.3953L123.663 35.3867L123.66 35.3781C123.548 35.0687 123.498 34.7404 123.513 34.4119C123.556 33.8857 123.531 33.2824 123.278 32.7176C122.994 32.0842 122.488 31.6409 121.851 31.4002L121.828 31.3916L121.805 31.3838C121.168 31.1687 120.475 31.1825 119.847 31.4228C119.229 31.6591 118.714 32.0994 118.386 32.6686C118.08 33.1678 117.887 33.7273 117.821 34.3081C117.754 34.8956 117.818 35.4904 118.009 36.0504C118.285 36.8865 118.607 37.7069 118.973 38.5078L118.975 38.5114L118.977 38.515C119.71 40.0926 120.246 41.7532 120.572 43.4593C119.126 43.7605 117.683 44.0835 116.253 44.4036C115.878 44.4875 115.504 44.5712 115.132 44.6543C114.492 44.774 113.914 45.1127 113.5 45.6116C113.077 46.1203 112.851 46.7621 112.863 47.421L112.863 47.4398L112.864 47.4586C112.894 48.129 113.171 48.7655 113.643 49.2471C114.114 49.7288 114.748 50.0222 115.423 50.0707C116.025 50.1139 116.63 50.0627 117.216 49.9191C118.513 49.609 119.79 49.2912 121.06 48.9752C123.138 48.458 125.197 47.9457 127.289 47.4803L127.292 47.4796C127.752 47.376 128.196 47.2698 128.627 47.1666C130.734 46.6625 132.539 46.2307 134.475 46.5383C134.862 46.6024 135.259 46.5867 135.639 46.492C136.022 46.3968 136.381 46.2238 136.693 45.9842C137.005 45.7446 137.264 45.4434 137.453 45.0999C137.642 44.7564 137.758 44.3778 137.793 43.988L137.793 43.9844L137.793 43.9808C137.825 43.6004 137.779 43.2174 137.657 42.8552C137.535 42.4929 137.341 42.1589 137.085 41.8736C136.829 41.5882 136.517 41.3574 136.169 41.1954C135.844 41.0446 135.494 40.9565 135.136 40.9353C134.164 40.8108 133.18 40.8135 132.208 40.9433L132.188 40.9459L132.169 40.9491C130.541 41.2147 128.911 41.5394 127.31 41.8585C126.871 41.946 126.434 42.0331 125.999 42.1185Z" fill="black"/>
<path d="M47.8433 22.2491C47.8705 21.5013 48.1004 20.9938 48.7315 20.7846C49.0164 20.6735 49.3323 20.6701 49.6194 20.7751C49.9066 20.88 50.1451 21.086 50.2899 21.3541C50.5374 21.7681 50.7151 22.2196 50.8158 22.6907C51.295 25.0153 51.7742 27.3709 52.1716 29.7226C52.2962 30.4588 52.5884 30.6215 53.2663 30.5285C54.661 30.3387 56.0636 30.1876 57.4661 30.0403C58.2452 29.9551 59.0595 29.9783 59.6789 30.5711C59.7629 30.658 59.8272 30.7617 59.8675 30.8753C59.9078 30.9889 59.9232 31.1097 59.9127 31.2297C59.839 31.5856 59.6544 31.9092 59.3851 32.1548C59.1158 32.4003 58.7756 32.5552 58.4128 32.5974C57.357 32.8298 56.2778 32.9848 55.2026 33.1243C54.5636 33.2173 53.9169 33.2676 53.2546 33.3141C52.865 33.3451 52.7404 33.5233 52.7949 33.8992C53.2728 37.1045 53.7442 40.3073 54.2091 43.5075C54.2929 43.9338 54.3346 44.3672 54.3338 44.8015C54.3489 45.1624 54.2231 45.5151 53.9826 45.7858C53.7421 46.0565 53.4056 46.2242 53.0436 46.2537C52.6816 46.2833 52.3222 46.1724 52.0405 45.9443C51.7589 45.7162 51.5769 45.3886 51.5327 45.0301C51.4664 44.7628 51.4508 44.4838 51.4119 44.2126C50.4223 37.8148 49.4302 31.417 48.4354 25.0192C48.3147 24.0506 48.0381 23.0975 47.8433 22.2491Z" fill="white"/>
<path fill-rule="evenodd" clip-rule="evenodd" d="M46.4634 22.3779L46.4699 22.1996C46.4874 21.72 46.5718 21.1601 46.8632 20.6461C47.1752 20.0958 47.6607 19.7097 48.2631 19.5022C48.8525 19.2818 49.5025 19.279 50.0943 19.4953C50.687 19.7119 51.1804 20.1332 51.4851 20.6808C51.8021 21.2165 52.0301 21.7996 52.16 22.4076L52.1611 22.4125L52.1621 22.4173C52.6162 24.6205 53.0746 26.8715 53.4635 29.1261C54.7528 28.9569 56.0434 28.8183 57.3185 28.6844C58.1646 28.5921 59.5415 28.5451 60.6328 29.5894L60.6521 29.6079L60.6707 29.6271C60.8903 29.8543 61.0583 30.1254 61.1636 30.4222C61.2689 30.7189 61.3091 31.0345 61.2816 31.3478L61.2747 31.4267L61.2587 31.5042C61.1269 32.1402 60.7969 32.7192 60.3148 33.1588C59.8521 33.5806 59.272 33.8534 58.651 33.9415C57.556 34.1796 56.4514 34.3373 55.391 34.475C55.0215 34.5285 54.6526 34.5685 54.2885 34.6012C54.7192 37.4966 55.1445 40.3899 55.5646 43.281C55.6593 43.7745 55.7072 44.2756 55.7079 44.7779C55.7288 45.4782 55.481 46.1611 55.0133 46.6875C54.5382 47.2223 53.8728 47.5542 53.1562 47.6127C52.4395 47.6711 51.7284 47.4516 51.1716 47.0006C50.6362 46.5671 50.2836 45.9522 50.1798 45.2768C50.1217 45.0117 50.0849 44.6912 50.0647 44.5153C50.0594 44.4692 50.0552 44.433 50.0521 44.4104C49.0631 38.0159 48.0715 31.6215 47.0772 25.227L47.0741 25.2068L47.0716 25.1865C46.9928 24.5548 46.8461 23.9601 46.6887 23.3218C46.6274 23.0733 46.5645 22.8183 46.5033 22.5518L46.4634 22.3779ZM51.4118 44.2125C51.4242 44.2988 51.4342 44.3859 51.4443 44.4732C51.4658 44.6601 51.4874 44.8477 51.5326 45.03C51.5768 45.3885 51.7588 45.7161 52.0404 45.9442C52.3221 46.1723 52.6815 46.2831 53.0435 46.2536C53.4055 46.2241 53.742 46.0564 53.9825 45.7857C54.223 45.515 54.3488 45.1623 54.3337 44.8014C54.3345 44.367 54.2928 43.9336 54.209 43.5074C53.7441 40.3072 53.2727 37.1044 52.7948 33.899C52.7403 33.5232 52.865 33.345 53.2546 33.314C53.9169 33.2675 54.5636 33.2172 55.2025 33.1242C56.2778 32.9847 57.3569 32.8297 58.4127 32.5973C58.7755 32.555 59.1158 32.4002 59.385 32.1546C59.6543 31.9091 59.8389 31.5854 59.9126 31.2296C59.9231 31.1096 59.9077 30.9887 59.8674 30.8751C59.8271 30.7615 59.7628 30.6578 59.6788 30.571C59.0594 29.9782 58.2452 29.955 57.466 30.0402C56.0635 30.1874 54.661 30.3385 53.2662 30.5284C52.5884 30.6214 52.2962 30.4586 52.1715 29.7225C51.7741 27.3708 51.2949 25.0152 50.8157 22.6906C50.715 22.2195 50.5374 21.768 50.2898 21.354C50.1451 21.0859 49.9065 20.8799 49.6194 20.7749C49.3322 20.67 49.0163 20.6734 48.7314 20.7844C48.1003 20.9937 47.8705 21.5012 47.8432 22.2489C47.8938 22.4693 47.9499 22.6967 48.0073 22.9296C48.1711 23.5935 48.346 24.302 48.4354 25.0191C49.4301 31.4169 50.4223 37.8147 51.4118 44.2125ZM54.1548 33.7031C54.1529 33.6897 54.1544 33.6926 54.1556 33.7085C54.1553 33.7067 54.1551 33.7049 54.1548 33.7031Z" fill="black"/>
<path d="M44.9833 25.2246C44.7768 27.464 44.5041 29.6568 43.6081 31.7064C42.4588 34.3641 41.2433 36.9948 40.0434 39.6255C39.8682 40.0006 39.6499 40.3542 39.3927 40.6793C38.859 41.3689 38.1305 41.6246 37.5967 41.3573C37.063 41.09 36.8176 40.3151 37.0942 39.455C37.2304 39.0647 37.3904 38.683 37.5734 38.3121C38.6876 35.8364 39.8213 33.3762 40.9121 30.8927C41.6431 29.1006 42.0557 27.1959 42.1315 25.2634C42.2173 24.0119 41.929 23.7136 40.6589 23.8647C39.8329 23.9534 39.0206 24.1407 38.2396 24.4226C36.5955 25.027 34.9943 25.7476 33.3541 26.3598C32.8183 26.563 32.2484 26.6629 31.675 26.6542C31.3473 26.6357 31.038 26.4979 30.8059 26.2671C30.5738 26.0364 30.4353 25.7287 30.4167 25.4028C30.4013 25.0807 30.4956 24.7628 30.6844 24.5006C30.8731 24.2384 31.1453 24.0471 31.4569 23.9577C32.7347 23.5005 34.0009 23.0085 35.2826 22.5591C36.5562 22.0642 37.8569 21.6413 39.1785 21.2922C40.1255 21.0985 41.0978 21.0592 42.0575 21.1759C43.7678 21.3542 44.6794 22.3382 44.9132 24.0429C44.9483 24.4304 44.956 24.8449 44.9833 25.2246Z" fill="white"/>
<path fill-rule="evenodd" clip-rule="evenodd" d="M46.3622 25.2382L46.352 25.3487C46.1453 27.5909 45.8611 29.9781 44.8701 32.2462C43.9052 34.4777 42.8934 36.6911 41.8898 38.8866C41.6912 39.321 41.493 39.7547 41.2955 40.1877L41.293 40.1932L41.2904 40.1986C41.0716 40.6673 40.799 41.1094 40.478 41.5159C39.7477 42.4552 38.356 43.2649 36.9777 42.5745C35.5896 41.8793 35.4028 40.2295 35.7852 39.0403L35.7903 39.0244L35.7958 39.0087C35.9476 38.5738 36.1254 38.1484 36.3283 37.7347C36.6984 36.9126 37.0688 36.0961 37.4381 35.282C38.1821 33.6418 38.9217 32.0113 39.6452 30.3646C40.3105 28.7281 40.6869 26.9897 40.7579 25.2257C40.06 25.3045 39.3738 25.4646 38.7133 25.7026C37.9197 25.9945 37.1319 26.3159 36.32 26.6486C36.2885 26.6615 36.2569 26.6745 36.2252 26.6874C35.4501 27.0051 34.6516 27.3323 33.8413 27.6348C33.1434 27.899 32.4011 28.0289 31.6542 28.0176L31.6256 28.0172L31.5971 28.0155C30.9316 27.978 30.3038 27.6981 29.8333 27.2302C29.3629 26.7624 29.0825 26.1393 29.0448 25.4799L29.0445 25.4735L29.0442 25.4671C29.0143 24.8393 29.1981 24.2195 29.5663 23.7079C29.9246 23.2102 30.4372 22.843 31.0255 22.6624C31.5413 22.4775 32.0941 22.2724 32.6559 22.0639C33.3765 21.7965 34.1119 21.5235 34.8033 21.2808C36.1183 20.7708 37.461 20.3346 38.8252 19.9743L38.8629 19.9643L38.9012 19.9565C39.9907 19.7337 41.1092 19.6879 42.2134 19.8209C43.3066 19.937 44.2842 20.3295 45.0253 21.0871C45.759 21.8371 46.1316 22.8131 46.275 23.859L46.2793 23.8898L46.2821 23.9208C46.3022 24.1437 46.3191 24.4744 46.333 24.7457C46.3411 24.9044 46.3482 25.0429 46.3542 25.1275L46.3622 25.2382ZM42.0577 21.1758C41.098 21.0591 40.1257 21.0984 39.1787 21.292C37.8571 21.6411 36.5564 22.0641 35.2828 22.5589C34.5746 22.8072 33.8713 23.0685 33.1681 23.3298C32.5984 23.5414 32.0289 23.753 31.457 23.9576C31.1455 24.047 30.8733 24.2383 30.6846 24.5005C30.4958 24.7627 30.4015 25.0806 30.4168 25.4027C30.4354 25.7286 30.574 26.0362 30.8061 26.267C31.0382 26.4978 31.3475 26.6356 31.6752 26.6541C32.2486 26.6628 32.8185 26.5629 33.3543 26.3597C34.1447 26.0647 34.9261 25.7445 35.7076 25.4242C36.5477 25.08 37.388 24.7356 38.2397 24.4225C39.0207 24.1406 39.833 23.9533 40.6591 23.8646C41.9291 23.7135 42.2174 24.0118 42.1317 25.2632C42.0559 27.1957 41.6433 29.1005 40.9123 30.8926C40.1834 32.5522 39.4352 34.2014 38.6866 35.8518C38.315 36.6711 37.9432 37.4907 37.5736 38.312C37.3906 38.6829 37.2306 39.0646 37.0944 39.4549C36.8178 40.315 37.0632 41.0899 37.5969 41.3572C38.1307 41.6245 38.8592 41.3688 39.3929 40.6792C39.6501 40.3541 39.8684 40.0005 40.0435 39.6254C40.242 39.1903 40.4409 38.7552 40.6398 38.32C41.6437 36.1238 42.6491 33.9245 43.6083 31.7062C44.5043 29.6567 44.777 27.4638 44.9835 25.2245C44.9719 25.063 44.9638 24.8951 44.9557 24.7257C44.9447 24.497 44.9335 24.2654 44.9134 24.0428C44.6796 22.3381 43.768 21.354 42.0577 21.1758ZM41.2624 25.196C41.2624 25.196 41.2621 25.196 41.2615 25.1959ZM40.7615 24.7235C40.7614 24.7229 40.7613 24.7225 40.7613 24.7225C40.7613 24.7225 40.7614 24.7229 40.7615 24.7235Z" fill="black"/>
<path d="M122.784 18.8901C123.883 18.9947 124.993 19.0567 126.084 19.2195C128.297 19.5565 129.699 20.9125 129.871 23.1403C129.923 24.5789 129.847 26.0193 129.645 27.4446C129.543 28.4675 129.294 29.4748 129.111 30.4899C129.111 30.5364 129.111 30.579 129.084 30.6255C128.803 31.8498 128.168 32.4696 127.362 32.3108C126.555 32.152 126.15 31.319 126.341 30.1257C126.571 28.6534 126.847 27.1851 127.046 25.7089C127.148 24.9837 127.166 24.2493 127.101 23.52C127.007 22.5165 126.563 22.1213 125.569 21.9702C123.44 21.6639 121.276 21.6953 119.157 22.0632C118.884 22.1135 118.608 22.1407 118.331 22.1446C118.143 22.1664 117.953 22.1505 117.772 22.0979C117.591 22.0453 117.422 21.957 117.276 21.8383C117.129 21.7196 117.008 21.5729 116.92 21.4068C116.832 21.2408 116.778 21.0588 116.762 20.8717C116.746 20.6846 116.768 20.4962 116.826 20.3176C116.884 20.139 116.978 19.9739 117.102 19.8321C117.226 19.6903 117.377 19.5747 117.547 19.4921C117.716 19.4094 117.901 19.3615 118.089 19.3512C119.301 19.1923 120.52 19.0994 121.74 18.9947C122.083 18.9637 122.429 18.9947 122.776 18.9947L122.784 18.8901Z" fill="white"/>
<path fill-rule="evenodd" clip-rule="evenodd" d="M121.517 17.3994L122.915 17.5325C123.209 17.5605 123.518 17.5863 123.836 17.6128C124.628 17.6789 125.476 17.7497 126.288 17.8708L126.29 17.8711L126.292 17.8714C127.628 18.0749 128.828 18.6044 129.726 19.5183C130.632 20.4393 131.134 21.6514 131.241 23.0363L131.243 23.0635L131.244 23.0908C131.299 24.6001 131.221 26.1114 131.009 27.6071C130.931 28.3743 130.77 29.1762 130.626 29.8946C130.574 30.1533 130.524 30.4012 130.481 30.6328C130.474 30.7327 130.453 30.8759 130.398 31.0356C130.22 31.7513 129.908 32.4456 129.385 32.9578C128.783 33.5465 127.967 33.82 127.094 33.6482C126.231 33.4781 125.583 32.9252 125.233 32.1848C124.904 31.4882 124.86 30.687 124.983 29.9144C125.075 29.3289 125.17 28.7656 125.263 28.2115C125.414 27.3113 125.562 26.4355 125.684 25.5282L125.685 25.5244L125.685 25.5206C125.772 24.8986 125.788 24.2688 125.732 23.6433C125.72 23.5141 125.702 23.437 125.69 23.395C125.642 23.3764 125.545 23.3461 125.367 23.3187C123.386 23.0344 121.372 23.0635 119.4 23.4051C119.075 23.4648 118.745 23.4988 118.413 23.5067C118.068 23.5371 117.72 23.5032 117.386 23.4065C117.028 23.3025 116.695 23.1281 116.406 22.8938C116.117 22.6595 115.879 22.37 115.705 22.0427C115.531 21.7153 115.425 21.3567 115.393 20.9881C115.361 20.6195 115.404 20.2482 115.519 19.8963C115.634 19.5444 115.819 19.2189 116.064 18.9391C116.308 18.6593 116.606 18.431 116.941 18.2678C117.258 18.1134 117.602 18.0204 117.953 17.9934C119.005 17.8569 120.063 17.7677 121.085 17.6814C121.224 17.6698 121.362 17.6581 121.499 17.6465L121.517 17.3994ZM121.74 18.9945C121.559 19.0101 121.377 19.0254 121.196 19.0407C120.158 19.1283 119.121 19.2158 118.09 19.351C117.901 19.3613 117.716 19.4092 117.547 19.4919C117.377 19.5745 117.226 19.6901 117.102 19.8319C116.979 19.9737 116.885 20.1388 116.826 20.3174C116.768 20.496 116.746 20.6844 116.762 20.8715C116.778 21.0586 116.832 21.2406 116.92 21.4066C117.009 21.5727 117.13 21.7194 117.276 21.8381C117.422 21.9568 117.591 22.0451 117.772 22.0977C117.953 22.1503 118.144 22.1662 118.331 22.1444C118.608 22.1405 118.885 22.1133 119.157 22.063C121.276 21.6951 123.441 21.6637 125.57 21.97C126.563 22.1211 127.007 22.5163 127.101 23.5198C127.166 24.2491 127.148 24.9835 127.046 25.7088C126.922 26.6322 126.767 27.5527 126.612 28.473C126.52 29.0237 126.427 29.5743 126.341 30.1255C126.15 31.3188 126.555 32.1518 127.362 32.3106C128.168 32.4695 128.803 31.8496 129.084 30.6253C129.111 30.5788 129.111 30.5362 129.111 30.4897C129.168 30.1754 129.231 29.8619 129.294 29.5484C129.434 28.8494 129.575 28.1506 129.645 27.4445C129.848 26.0191 129.923 24.5787 129.871 23.1401C129.699 20.9123 128.297 19.5563 126.084 19.2193C125.445 19.1239 124.799 19.0632 124.153 19.0082C124.026 18.9973 123.898 18.9867 123.771 18.9761C123.441 18.9486 123.112 18.9212 122.784 18.8899L122.776 18.9945C122.776 18.9945 122.775 18.9945 122.774 18.9945C122.659 18.9945 122.544 18.9911 122.429 18.9876C122.199 18.9808 121.968 18.9739 121.74 18.9945ZM125.728 23.4124C125.728 23.4124 125.727 23.4123 125.727 23.412C125.727 23.4122 125.728 23.4124 125.728 23.4124ZM125.677 23.3598C125.674 23.3555 125.673 23.3529 125.673 23.3527C125.673 23.3526 125.675 23.3547 125.677 23.3598Z" fill="black"/>
</svg>
