<svg width="348" height="113" viewBox="0 0 348 113" fill="none" xmlns="http://www.w3.org/2000/svg">
<path d="M151.158 36.6068C151.669 43.2012 149.051 49.8322 146.733 56.4752C144.838 61.8773 140.625 65.7707 136.337 69.4573C135.748 69.9141 135.314 70.5334 135.092 71.2345C134.87 71.9355 134.869 72.6857 135.09 73.3871C135.975 77.7672 136.536 82.2081 137.234 86.6125C137.521 88.4618 137.745 90.3355 138.206 92.1362C138.352 92.4361 138.571 92.6957 138.846 92.8912C139.12 93.0868 139.44 93.212 139.777 93.2556C146.11 92.7202 152.43 92.0997 158.737 91.4305C159.684 91.287 160.603 91.0083 161.467 90.6032C163.96 89.5812 166.104 90.0192 167.363 91.8199C168.055 92.7533 168.342 93.9152 168.162 95.0539C167.983 96.1926 167.351 97.2163 166.403 97.9033C164.634 99.0319 162.627 99.7594 160.532 100.032C152.891 101.03 145.212 101.517 137.608 102.734C131.375 103.622 125.292 105.167 119.109 106.25C117.368 106.55 115.589 106.583 113.837 106.347C110.533 105.885 108.663 103.537 109.175 100.884C109.686 98.2318 112.079 97.441 115.407 97.3436C119.787 96.9818 124.138 96.3437 128.434 95.4334C128.745 95.4334 129.182 94.5696 129.132 94.2167C128.272 87.9387 127.399 81.6606 126.352 75.419C126.221 74.9395 125.978 74.4958 125.643 74.1224C125.308 73.749 124.889 73.4558 124.42 73.2655C122.566 72.737 120.849 71.8273 119.384 70.5976C117.92 69.3678 116.743 67.8465 115.931 66.1357C114.447 63.3118 113.285 60.3375 112.465 57.2661C110.355 48.1247 108.456 38.9469 106.769 29.7325C106.307 27.2992 106.769 24.586 107.03 22.0188C107.162 21.0875 107.48 20.1905 107.965 19.3786C108.393 18.3669 109.182 17.5407 110.186 17.0531C111.19 16.5654 112.34 16.4493 113.425 16.7262C115.357 17.3345 116.504 19.0501 116.006 21.5929C115.145 26.0217 115.731 30.3531 116.442 34.6966C116.791 36.8258 117.24 38.955 117.614 41.0842C117.801 42.2036 118.362 42.5199 119.558 42.8849C127.125 45.1723 133.557 41.51 140.251 39.3565C140.734 39.1052 141.149 38.7461 141.463 38.3085C141.778 37.8708 141.981 37.367 142.058 36.838C142.485 29.6049 141.04 22.3833 137.857 15.838C137.321 14.7065 136.76 14.3293 135.489 14.962C134.769 15.3598 133.935 15.5135 133.116 15.399C132.297 15.2846 131.54 14.9084 130.964 14.3293C130.332 13.7624 129.887 13.0242 129.687 12.2092C129.488 11.3942 129.541 10.5395 129.842 9.75461C131.388 4.47421 137.321 2.52751 141.634 6.10456C143.193 7.5166 144.462 9.20541 145.374 11.0808C149.454 18.9851 151.442 27.7604 151.158 36.6068V36.6068ZM139.74 49.8443L139.116 49.382C133.096 50.842 127.249 53.324 120.493 52.4845C121.528 56.6334 122.413 60.4538 125.068 63.5807C125.279 63.9084 125.564 64.184 125.902 64.386C126.24 64.5881 126.621 64.711 127.016 64.7451C127.411 64.7793 127.809 64.7238 128.178 64.583C128.547 64.4422 128.878 64.2199 129.144 63.9335C131.984 61.2427 134.669 58.3993 137.184 55.4167C138.431 53.8594 138.917 51.718 139.74 49.8443Z" fill="#42E532"/>
<path fill-rule="evenodd" clip-rule="evenodd" d="M150.896 57.8516L150.894 57.8577C148.607 64.378 143.612 68.9072 139.399 72.5343L139.404 72.5584C140.046 75.7368 140.534 79.0096 141.001 82.1493C141.194 83.4467 141.384 84.7214 141.58 85.9574L141.581 85.9643L141.582 85.9713C141.654 86.4359 141.719 86.8743 141.781 87.2925C141.857 87.8095 141.929 88.2957 142.004 88.7622C147.388 88.2874 152.767 87.7538 158.145 87.1838C158.635 87.1017 159.11 86.9535 159.559 86.7432L159.659 86.6963L159.761 86.6544C161.605 85.8986 163.69 85.5299 165.787 85.9614C167.944 86.4054 169.733 87.6238 170.963 89.3596C172.306 91.1971 172.86 93.4728 172.508 95.7025C172.153 97.9517 170.905 99.9764 169.029 101.336L168.923 101.413L168.812 101.484C166.492 102.963 163.863 103.917 161.115 104.275C157.68 104.724 154.459 105.052 151.312 105.374C146.967 105.817 142.762 106.247 138.321 106.957L138.283 106.963L138.245 106.969C135.275 107.392 132.311 107.976 129.249 108.607C128.725 108.715 128.196 108.824 127.664 108.935C125.129 109.46 122.513 110.003 119.888 110.463L119.881 110.464L119.875 110.465C117.682 110.843 115.442 110.884 113.235 110.587L113.223 110.586L113.211 110.584C110.641 110.224 108.283 109.074 106.666 107.139C105.021 105.173 104.362 102.641 104.853 100.092C105.367 97.4237 106.978 95.4733 109.219 94.3477C111.137 93.3848 113.307 93.1275 115.149 93.0654C118.241 92.8063 121.319 92.4033 124.371 91.8578C123.684 86.8878 122.978 81.9544 122.169 77.052C120.1 76.3293 118.182 75.2409 116.513 73.8387C114.597 72.2294 113.052 70.2435 111.978 68.0121C110.366 64.9314 109.102 61.6886 108.209 58.3409L108.191 58.2727L108.175 58.2038C106.051 49.0041 104.14 39.7674 102.442 30.494C101.932 27.7848 102.283 24.7957 102.534 22.6686C102.579 22.2791 102.622 21.9185 102.655 21.5938L102.663 21.5128L102.675 21.4322C102.872 20.0395 103.329 18.6946 104.025 17.4642C104.88 15.6251 106.361 14.1238 108.223 13.2192C110.18 12.2685 112.424 12.0419 114.54 12.582L114.66 12.6126L114.778 12.6497C116.681 13.2491 118.41 14.4798 119.477 16.3643C120.534 18.2307 120.725 20.3488 120.325 22.3904C119.623 26.0093 120.073 29.6726 120.784 34.0197M116.005 21.5911C116.504 19.0483 115.357 17.3327 113.425 16.7244C112.34 16.4475 111.189 16.5636 110.186 17.0512C109.182 17.5389 108.393 18.3651 107.965 19.3768C107.48 20.1887 107.162 21.0857 107.03 22.017C106.986 22.4542 106.935 22.8956 106.885 23.3392C106.638 25.5002 106.386 27.7118 106.769 29.7307C108.456 38.9451 110.354 48.1229 112.465 57.2643C113.284 60.3356 114.447 63.31 115.931 66.1339C116.743 67.8446 117.92 69.366 119.384 70.5957C120.848 71.8255 122.565 72.7352 124.42 73.2636C124.889 73.454 125.308 73.7472 125.643 74.1206C125.978 74.494 126.22 74.9376 126.352 75.4172C127.399 81.6588 128.271 87.9368 129.131 94.2149C129.181 94.5678 128.745 95.4316 128.433 95.4316C124.138 96.3419 119.787 96.9799 115.407 97.3418C112.079 97.4391 109.685 98.23 109.174 100.882C108.663 103.535 110.533 105.883 113.836 106.345C115.589 106.581 117.368 106.548 119.109 106.248C121.66 105.801 124.193 105.276 126.727 104.751C130.336 104.002 133.946 103.254 137.608 102.732C142.086 102.015 146.591 101.552 151.098 101.088C154.244 100.765 157.391 100.441 160.532 100.031C162.627 99.7576 164.633 99.03 166.403 97.9015C167.351 97.2145 167.983 96.1907 168.162 95.0521C168.342 93.9134 168.055 92.7515 167.363 91.8181C166.104 90.0174 163.96 89.5794 161.467 90.6014C160.603 91.0064 159.683 91.2852 158.737 91.4287C152.429 92.0979 146.109 92.7184 139.777 93.2537C139.44 93.2102 139.12 93.0849 138.846 92.8894C138.571 92.6938 138.351 92.4343 138.206 92.1344C137.842 90.7123 137.626 89.2447 137.409 87.7794C137.352 87.3894 137.294 86.9995 137.234 86.6107C137.025 85.2908 136.828 83.9677 136.631 82.6439C136.171 79.5502 135.71 76.4528 135.09 73.3853C134.869 72.6839 134.87 71.9337 135.092 71.2326C135.314 70.5316 135.748 69.9122 136.337 69.4554C140.625 65.7689 144.838 61.8755 146.733 56.4734C146.938 55.8839 147.147 55.2945 147.355 54.7051C149.491 48.6537 151.624 42.6142 151.158 36.605C151.442 27.7586 149.454 18.9833 145.374 11.079C144.462 9.2036 143.193 7.51479 141.634 6.10275C137.321 2.5257 131.388 4.47239 129.842 9.7528C129.541 10.5377 129.487 11.3924 129.687 12.2074C129.887 13.0224 130.332 13.7606 130.964 14.3275C131.54 14.9066 132.297 15.2827 133.116 15.3972C133.935 15.5117 134.769 15.358 135.489 14.9602C136.76 14.3275 137.321 14.7047 137.857 15.8362C141.04 22.3815 142.485 29.6031 142.058 36.8362C141.981 37.3652 141.777 37.869 141.463 38.3066C141.149 38.7443 140.734 39.1034 140.251 39.3547C138.903 39.7883 137.566 40.283 136.228 40.778C130.921 42.7417 125.601 44.7099 119.558 42.8831C118.361 42.5181 117.8 42.2017 117.613 41.0824C117.453 40.1699 117.279 39.2574 117.105 38.3448C116.873 37.1282 116.641 35.9115 116.442 34.6948C115.731 30.3512 115.145 26.0198 116.005 21.5911ZM120.784 34.021C120.984 35.2427 121.191 36.3213 121.408 37.4538C121.504 37.9583 121.603 38.4735 121.704 39.0167C124.123 39.569 126.477 39.3415 129.077 38.6522C130.558 38.2596 132.061 37.7331 133.706 37.1291C134.007 37.0189 134.314 36.9051 134.627 36.7891C135.612 36.4247 136.654 36.0389 137.711 35.6753C137.902 30.183 136.899 24.7182 134.774 19.6399C134.022 19.7426 133.253 19.7427 132.491 19.6361C130.749 19.3926 129.138 18.6057 127.896 17.3965C126.667 16.2633 125.804 14.8059 125.411 13.2022C125.022 11.6193 125.109 9.96218 125.659 8.42791C126.841 4.56513 129.709 1.68057 133.344 0.532603C137.057 -0.639727 141.203 0.120282 144.485 2.84237L144.558 2.90316L144.629 2.96703C146.583 4.73741 148.176 6.85203 149.325 9.19907C153.685 17.6634 155.826 27.0493 155.559 36.5168C156.026 43.385 153.609 50.1966 151.54 56.0276C151.32 56.647 151.104 57.2554 150.896 57.8516M137.515 18.7625C137.524 18.7584 137.529 18.756 137.529 18.7556C137.529 18.7554 137.528 18.7557 137.526 18.7563C137.523 18.7584 137.519 18.7604 137.515 18.7625ZM133.836 17.5716C133.833 17.5664 133.831 17.5637 133.831 17.5636C133.831 17.5635 133.833 17.5661 133.836 17.5716ZM125.068 63.5788C123.384 61.5963 122.412 59.335 121.663 56.8879C121.27 55.6057 120.938 54.2725 120.597 52.9016C120.563 52.7624 120.528 52.6227 120.493 52.4827C122.054 52.6767 123.567 52.6933 125.045 52.5861C128.414 52.3417 131.601 51.4536 134.763 50.5575C134.832 50.5379 134.901 50.5184 134.97 50.4988C136.25 50.136 137.526 49.7741 138.81 49.4553C138.912 49.43 139.014 49.4049 139.116 49.3802L139.74 49.8425C139.631 50.0906 139.528 50.3434 139.428 50.599C139.295 50.9387 139.169 51.2832 139.042 51.6279C138.731 52.4736 138.42 53.3202 138.02 54.0991C137.78 54.5671 137.508 55.0107 137.184 55.4149C134.668 58.3975 131.984 61.2408 129.144 63.9317C128.878 64.2181 128.547 64.4404 128.178 64.5812C127.808 64.722 127.411 64.7775 127.016 64.7433C126.621 64.7091 126.24 64.5862 125.902 64.3842C125.564 64.1822 125.278 63.9065 125.068 63.5788ZM130.861 56.0134C129.766 57.202 128.641 58.3647 127.487 59.5006C126.997 58.6881 126.601 57.7946 126.245 56.781C127.857 56.6188 129.396 56.3413 130.861 56.0134Z" fill="black"/>
<path d="M198.276 60.1474C195.783 63.5176 193.39 66.7175 190.971 69.8809C190.135 71.0623 189.174 72.1552 188.104 73.1416C187.42 73.8273 186.508 74.2521 185.531 74.3392C184.555 74.4263 183.578 74.1701 182.778 73.6167C181.978 73.0633 181.407 72.2492 181.168 71.3211C180.928 70.3929 181.036 69.4119 181.473 68.5547C181.999 67.2868 182.695 66.0923 183.542 65.002C188.964 57.8965 194.462 50.8276 199.921 43.7465C200.657 42.7853 201.318 41.7633 202.415 40.2303C201.396 40.3365 200.385 40.499 199.385 40.717C193.514 42.4203 187.656 44.1845 181.772 45.8757C180.442 46.3121 179.059 46.5779 177.658 46.6665C176.567 46.7183 175.494 46.3741 174.647 45.7002C173.801 45.0263 173.239 44.0703 173.071 43.0165C172.863 42.0132 173.044 40.9702 173.578 40.0892C174.112 39.2083 174.962 38.5519 175.963 38.2471C185.487 35.6677 195.035 33.1127 204.633 30.8375C207.563 30.1318 210.866 30.144 212.886 33.0519C214.905 35.9597 213.658 39.0745 212.013 41.7755C210.166 44.8111 208.117 47.7252 205.88 50.4991C204.434 52.2755 204.633 53.4556 205.98 55.159C211.947 62.3076 217.116 70.0571 221.399 78.276C222.331 80.0795 223.119 81.9507 223.755 83.8727C224.161 85.1764 224.272 86.5505 224.079 87.8999C224.033 88.585 223.78 89.2415 223.354 89.7879C222.928 90.3342 222.347 90.7464 221.683 90.9732C221.02 91.2 220.302 91.2315 219.62 91.0636C218.938 90.8958 218.321 90.5361 217.847 90.0291C216.689 88.827 215.779 87.4183 215.167 85.8802C211.165 76.7916 205.431 68.7615 199.323 60.9504C199.003 60.6488 198.652 60.3798 198.276 60.1474V60.1474Z" fill="#42E532"/>
<path fill-rule="evenodd" clip-rule="evenodd" d="M198.277 60.1481C195.784 63.5183 193.391 66.7182 190.972 69.8816C190.136 71.0631 189.175 72.1559 188.105 73.1423C187.421 73.8281 186.509 74.2528 185.532 74.3399C184.556 74.427 183.579 74.1708 182.779 73.6174C181.979 73.064 181.408 72.2499 181.169 71.3218C180.929 70.3936 181.037 69.4126 181.474 68.5554C182 67.2875 182.696 66.093 183.543 65.0027C187.272 60.1167 191.036 55.248 194.799 50.3807C196.081 48.7217 197.364 47.0628 198.645 45.4036C199.071 44.8515 199.497 44.2994 199.922 43.7472C199.964 43.6932 200.005 43.6391 200.046 43.5846C200.097 43.516 200.149 43.447 200.2 43.3774C200.534 42.9234 200.867 42.4444 201.247 41.8961C201.586 41.4067 201.964 40.8622 202.416 40.231C201.397 40.3372 200.386 40.4997 199.386 40.7177C198.527 40.9671 197.667 41.2178 196.808 41.4694C196.802 41.4711 196.797 41.4728 196.791 41.4744C196.526 41.552 196.261 41.6296 195.997 41.7073C194.513 42.1426 193.03 42.5801 191.547 43.0176C188.292 43.9778 185.036 44.9383 181.773 45.8764C180.443 46.3128 179.06 46.5786 177.659 46.6673C176.568 46.719 175.495 46.3748 174.648 45.7009C173.802 45.027 173.24 44.0711 173.072 43.0172C172.864 42.0139 173.045 40.9709 173.579 40.09C174.113 39.209 174.963 38.5527 175.964 38.2478C185.488 35.6685 195.036 33.1134 204.634 30.8382C207.564 30.1326 210.867 30.1447 212.887 33.0526C214.906 35.9605 213.659 39.0752 212.014 41.7762C210.167 44.8118 208.118 47.7259 205.881 50.4998C204.435 52.2762 204.634 53.4564 205.981 55.1597C211.948 62.3083 217.117 70.0578 221.4 78.2767C222.332 80.0803 223.12 81.9514 223.756 83.8734C224.162 85.1771 224.273 86.5512 224.08 87.9006C224.034 88.5857 223.781 89.2422 223.355 89.7886C222.929 90.3349 222.348 90.7471 221.684 90.9739C221.021 91.2008 220.303 91.2322 219.621 91.0643C218.939 90.8965 218.322 90.5368 217.848 90.0298C216.69 88.8277 215.78 87.4191 215.168 85.881C211.591 77.7572 206.63 70.4792 201.255 63.4473C200.617 62.6121 199.973 61.7804 199.324 60.9511C199.19 60.8243 199.05 60.7033 198.904 60.5883C198.705 60.4298 198.495 60.2828 198.277 60.1481ZM198.548 67.0836C197.208 68.8731 195.881 70.6312 194.545 72.3795C193.56 73.7598 192.435 75.0393 191.186 76.1984C189.78 77.5741 187.922 78.427 185.933 78.6044C183.91 78.7849 181.889 78.2539 180.233 77.1089C178.578 75.964 177.398 74.2812 176.904 72.3652C176.425 70.508 176.62 68.548 177.453 66.8171C178.115 65.2557 178.979 63.7829 180.024 62.4346C183.758 57.5422 187.532 52.6601 191.296 47.7918C191.371 47.6943 191.447 47.5969 191.522 47.4994C188.705 48.3301 185.88 49.1605 183.093 49.962C181.427 50.5008 179.696 50.8297 177.944 50.9406L177.909 50.9429L177.873 50.9446C175.694 51.0478 173.555 50.3606 171.867 49.0172C170.204 47.6944 169.095 45.8279 168.743 43.7692C168.351 41.7591 168.723 39.6766 169.793 37.9124C170.88 36.1199 172.61 34.7822 174.652 34.1605L174.719 34.1403L174.786 34.122C184.308 31.543 193.915 28.972 203.587 26.6792C206.977 25.8641 212.88 25.3996 216.529 30.6534C220.158 35.8791 217.484 41.1892 215.795 43.9613C213.936 47.0177 211.882 49.9571 209.646 52.7625C215.703 60.0628 220.957 67.9649 225.321 76.3385L225.325 76.3452L225.328 76.3518C226.362 78.3522 227.235 80.4274 227.941 82.559L227.953 82.5952L227.964 82.6315C228.541 84.4842 228.708 86.4346 228.454 88.3538C228.322 89.8133 227.769 91.2087 226.857 92.3782C225.911 93.5925 224.618 94.5099 223.14 95.0149C221.661 95.52 220.063 95.5901 218.544 95.2162C217.036 94.8453 215.674 94.0538 214.622 92.9404C213.106 91.3615 211.911 89.5171 211.099 87.5051C207.895 80.2486 203.492 73.6327 198.548 67.0836Z" fill="black"/>
<path d="M244.911 67.4484C244.911 68.373 244.911 69.0909 244.911 69.7966C244.524 77.9848 244.15 86.1853 243.664 94.3857C243.58 95.535 243.311 96.6642 242.866 97.7316C242.569 98.6763 241.933 99.4845 241.074 100.008C240.215 100.531 239.192 100.734 238.192 100.579C237.224 100.441 236.34 99.9654 235.703 99.2409C235.066 98.5163 234.719 97.5913 234.726 96.6366C234.646 94.9816 234.733 93.3228 234.988 91.6847C236.495 80.7363 236.399 69.6344 234.701 58.7126C233.669 51.764 231.233 45.0849 227.534 39.0631C226.07 36.9881 224.484 34.9976 222.784 33.1014C221.991 32.254 221.262 31.3513 220.603 30.4004C220.039 29.4955 219.833 28.4201 220.026 27.3776C220.219 26.335 220.797 25.3977 221.65 24.7428C222.469 24.092 223.512 23.7722 224.564 23.8491C225.617 23.9261 226.599 24.394 227.309 25.1565C230.04 27.8751 232.541 30.8047 234.789 33.9166C239.226 40.4258 241.632 47.7989 243.165 55.4154C243.202 56.1856 243.525 56.9166 244.073 57.4718C244.621 58.027 245.357 58.3686 246.145 58.4327C252.527 59.6494 258.61 58.4327 264.743 56.924C266.014 56.5461 267.303 56.2334 268.607 55.9872C269.416 55.8209 270.258 55.9206 271.002 56.2705C271.746 56.6205 272.35 57.2011 272.721 57.9217C273.172 58.6001 273.373 59.4081 273.292 60.2128C273.21 61.0176 272.851 61.7714 272.272 62.3505C271.108 63.5368 269.679 64.4446 268.096 65.0028C261.144 67.3142 253.765 68.1439 246.456 67.4362C246.057 67.3632 245.671 67.4484 244.911 67.4484Z" fill="#42E532"/>
<path fill-rule="evenodd" clip-rule="evenodd" d="M220.603 30.3985C220.039 29.4937 219.833 28.4183 220.026 27.3757C220.219 26.3332 220.797 25.3958 221.65 24.741C222.469 24.0902 223.512 23.7704 224.564 23.8473C225.617 23.9243 226.599 24.3921 227.309 25.1546C230.04 27.8733 232.541 30.8029 234.789 33.9148C239.226 40.424 241.632 47.7971 243.165 55.4135C243.202 56.1838 243.525 56.9147 244.073 57.47C244.621 58.0252 245.357 58.3667 246.145 58.4309C252.527 59.6476 258.61 58.4309 264.743 56.9222C266.014 56.5443 267.303 56.2316 268.607 55.9854C269.416 55.8191 270.258 55.9187 271.002 56.2687C271.746 56.6187 272.351 57.1993 272.721 57.9199C273.172 58.5983 273.373 59.4062 273.292 60.211C273.21 61.0158 272.851 61.7696 272.272 62.3486C271.108 63.535 269.679 64.4428 268.096 65.001C262.047 67.012 255.675 67.9015 249.308 67.6325C248.399 67.5941 247.491 67.5322 246.584 67.4465C246.541 67.4425 246.499 67.4385 246.456 67.4344C246.217 67.3906 245.982 67.4037 245.669 67.4212C245.459 67.4329 245.215 67.4465 244.911 67.4465V69.7947C244.87 70.6473 244.83 71.4999 244.79 72.3527C244.445 79.6906 244.1 87.0372 243.664 94.3839C243.58 95.5332 243.311 96.6624 242.866 97.7298C242.569 98.6744 241.933 99.4827 241.074 100.006C240.215 100.529 239.192 100.732 238.192 100.577C237.224 100.439 236.34 99.9636 235.703 99.239C235.066 98.5145 234.719 97.5895 234.726 96.6348C234.646 94.9797 234.733 93.321 234.988 91.6828C236.495 80.7345 236.399 69.6326 234.701 58.7107C233.669 51.7622 231.233 45.0831 227.534 39.0613C226.07 36.9863 224.484 34.9957 222.785 33.0996C221.991 32.2522 221.262 31.3495 220.603 30.3985ZM219.502 35.9488C218.577 34.9582 217.727 33.9038 216.958 32.7938L216.9 32.7094L216.845 32.6223C215.723 30.8235 215.316 28.6869 215.699 26.6161C216.08 24.5571 217.217 22.7026 218.899 21.4002C220.585 20.0718 222.729 19.4187 224.893 19.577C227.039 19.7338 229.041 20.6753 230.501 22.2084C233.379 25.0783 236.015 28.1692 238.385 31.4512L238.419 31.4981L238.452 31.546C243.272 38.6166 245.827 46.4899 247.423 54.3066C252.582 55.1875 257.674 54.2409 263.565 52.7951C264.939 52.3904 266.332 52.0539 267.741 51.787C269.489 51.4367 271.306 51.6564 272.914 52.4124C274.461 53.14 275.729 54.3248 276.541 55.7936C277.443 57.2438 277.839 58.9413 277.667 60.6316C277.489 62.3937 276.704 64.0461 275.439 65.3194C273.809 66.9769 271.809 68.2461 269.593 69.0275L269.555 69.0409L269.517 69.0537C262.98 71.2271 256.094 72.194 249.212 71.9148C249.202 72.1264 249.192 72.338 249.183 72.5497C248.838 79.8841 248.491 87.257 248.054 94.6307L248.052 94.6592L248.05 94.6876C247.937 96.2285 247.585 97.7435 247.006 99.1807C246.375 101.025 245.103 102.603 243.405 103.637C241.655 104.703 239.568 105.12 237.528 104.81C235.517 104.517 233.684 103.527 232.363 102.024C231.066 100.549 230.347 98.6757 230.33 96.7374C230.244 94.8463 230.346 92.9514 230.635 91.0793C232.082 80.5438 231.987 69.8611 230.354 59.3515L230.352 59.3377L230.35 59.3239C229.407 52.9798 227.192 46.8805 223.831 41.3751C222.494 39.4884 221.048 37.6767 219.502 35.9488Z" fill="black"/>
<path d="M306.688 93.0821C307.673 92.8752 308.508 92.6684 309.356 92.5102C316.461 91.1597 323.542 89.6754 330.684 88.5317C333.468 88.1666 336.29 88.1666 339.073 88.5317C339.707 88.551 340.331 88.6961 340.906 88.9581C341.48 89.2201 341.994 89.5935 342.417 90.0556C342.839 90.5177 343.16 91.0589 343.361 91.6461C343.562 92.2334 343.639 92.8544 343.586 93.4714C343.528 94.1085 343.336 94.7269 343.021 95.2879C342.706 95.8489 342.276 96.3402 341.757 96.7311C341.239 97.1219 340.643 97.4037 340.007 97.5589C339.372 97.714 338.71 97.739 338.064 97.6325C329.512 96.2941 321.497 98.8491 313.395 100.638C302.587 102.998 291.867 105.784 281.084 108.315C279.655 108.66 278.178 108.783 276.709 108.68C275.625 108.604 274.607 108.141 273.849 107.381C273.09 106.621 272.645 105.615 272.595 104.555C272.577 103.505 272.943 102.482 273.629 101.672C274.315 100.863 275.274 100.319 276.335 100.139C282.68 98.7518 289.025 97.3283 295.395 96.0508C297.177 95.6979 297.8 95.1504 297.514 93.2037C296.453 86.8658 294.516 80.6977 291.755 74.8683C290.645 72.4893 289.672 70.0522 288.838 67.5682C288.429 66.4001 288.291 65.158 288.433 63.9314C288.575 62.7048 288.995 61.5243 289.661 60.475C290.207 59.5181 291.081 58.7787 292.128 58.3852C293.176 57.9918 294.332 57.9692 295.395 58.3214C297.464 59.088 298.125 60.8278 297.888 63.4923C297.8 65.1133 298.046 66.7349 298.611 68.2617C300.805 74.4547 303.223 80.5624 305.392 86.7553C305.974 88.8322 306.408 90.9463 306.688 93.0821V93.0821Z" fill="#42E532"/>
<path fill-rule="evenodd" clip-rule="evenodd" d="M311.004 92.1969C310.455 92.3027 309.906 92.4079 309.357 92.5123C308.843 92.6082 308.334 92.722 307.793 92.8428C307.442 92.9213 307.077 93.0027 306.689 93.0841C306.503 91.6658 306.249 90.2571 305.929 88.8625C305.767 88.157 305.589 87.4551 305.393 86.7574C304.258 83.5173 303.055 80.3005 301.852 77.0827C300.755 74.1501 299.658 71.2166 298.612 68.2638C298.047 66.737 297.801 65.1154 297.889 63.4944C298.126 60.8299 297.465 59.09 295.396 58.3235C294.333 57.9713 293.177 57.9938 292.129 58.3873C291.082 58.7808 290.208 59.5202 289.662 60.477C288.996 61.5264 288.576 62.7069 288.434 63.9335C288.292 65.1601 288.43 66.4022 288.839 67.5703C289.673 70.0543 290.646 72.4914 291.756 74.8704C294.517 80.6997 296.454 86.8678 297.515 93.2058C297.801 95.1525 297.178 95.7 295.396 96.0528C290.263 97.0823 285.146 98.2065 280.033 99.33C278.8 99.6008 277.568 99.8715 276.336 100.141C275.275 100.321 274.316 100.865 273.63 101.675C272.944 102.484 272.578 103.507 272.596 104.557C272.645 105.617 273.091 106.623 273.85 107.383C274.608 108.143 275.626 108.606 276.71 108.682C278.179 108.786 279.656 108.662 281.085 108.317C285.152 107.363 289.209 106.372 293.266 105.381C299.966 103.745 306.664 102.11 313.396 100.64C314.722 100.347 316.047 100.033 317.372 99.72C324.137 98.1189 330.914 96.5153 338.065 97.6345C338.711 97.7411 339.373 97.7161 340.008 97.5609C340.644 97.4058 341.24 97.1239 341.758 96.7331C342.277 96.3423 342.707 95.8509 343.022 95.29C343.337 94.729 343.529 94.1105 343.587 93.4735C343.64 92.8565 343.563 92.2355 343.362 91.6482C343.161 91.061 342.84 90.5198 342.418 90.0577C341.995 89.5956 341.481 89.2221 340.907 88.9601C340.332 88.6981 339.708 88.5531 339.074 88.5338C336.291 88.1687 333.469 88.1687 330.685 88.5338C325.558 89.3547 320.463 90.3512 315.368 91.3478C313.913 91.6322 312.459 91.9166 311.004 92.1969ZM310.232 87.9803C310.052 87.1921 309.853 86.4081 309.634 85.6289L309.599 85.5007L309.554 85.3749C308.453 82.2311 307.292 79.1169 306.143 76.0452C306.091 75.9058 306.039 75.7666 305.987 75.6274C304.887 72.6862 303.802 69.7842 302.768 66.8671L302.759 66.8399L302.749 66.8129C302.389 65.8414 302.229 64.8105 302.277 63.7788C302.415 62.1263 302.334 60.2317 301.525 58.4579C300.617 56.4688 298.999 55.0766 296.959 54.3209L296.886 54.2939L296.812 54.2694C294.773 53.5939 292.556 53.6372 290.547 54.3917C288.571 55.1338 286.921 56.5168 285.872 58.304C284.893 59.8717 284.276 61.6288 284.065 63.4528C283.851 65.2976 284.057 67.1657 284.667 68.9241C285.55 71.5499 286.579 74.1261 287.752 76.6413L287.758 76.6527L287.763 76.664C290.109 81.6183 291.823 86.8331 292.867 92.1911C288.239 93.1369 283.623 94.1511 279.048 95.1565C277.849 95.4199 276.652 95.6828 275.46 95.9436C273.412 96.3195 271.564 97.3834 270.238 98.95C268.885 100.548 268.163 102.563 268.2 104.632L268.201 104.691L268.204 104.75C268.301 106.856 269.187 108.854 270.696 110.367C272.204 111.88 274.231 112.801 276.393 112.953C278.318 113.089 280.254 112.928 282.128 112.477C286.278 111.503 290.364 110.505 294.427 109.513C301.078 107.889 307.665 106.28 314.358 104.818L314.368 104.816C315.841 104.491 317.261 104.157 318.641 103.833C325.382 102.25 331.156 100.894 337.352 101.86C338.591 102.062 339.859 102.012 341.077 101.715C342.302 101.416 343.45 100.873 344.449 100.12C345.448 99.3675 346.276 98.4219 346.881 97.3431C347.486 96.2642 347.856 95.0753 347.967 93.8511L347.968 93.84L347.969 93.8288C348.071 92.6341 347.923 91.4314 347.533 90.2938C347.144 89.1562 346.521 88.1074 345.703 87.2112C344.884 86.315 343.886 85.5902 342.771 85.0816C341.732 84.6081 340.611 84.3311 339.467 84.2648C336.357 83.8737 333.207 83.882 330.098 84.2897L330.035 84.298L329.972 84.3081C324.763 85.1422 319.55 86.1618 314.426 87.1638C313.021 87.4387 311.622 87.7122 310.232 87.9803Z" fill="black"/>
<path d="M60.1597 25.5805C60.2469 23.2323 60.9824 21.6385 63.0018 20.9815C63.9132 20.6326 64.9239 20.622 65.8428 20.9516C66.7617 21.2812 67.5249 21.9282 67.9879 22.77C68.78 24.0701 69.3485 25.488 69.6708 26.9676C71.204 34.2676 72.7373 41.6651 74.0087 49.0503C74.4076 51.362 75.3425 51.873 77.5115 51.581C81.9741 50.9849 86.4617 50.5104 90.9493 50.048C93.4423 49.7803 96.0476 49.8534 98.0296 51.7149C98.2982 51.9876 98.5039 52.3133 98.6329 52.6701C98.7619 53.0268 98.8112 53.4064 98.7775 53.7832C98.5417 54.9007 97.9511 55.9171 97.0895 56.6882C96.2279 57.4592 95.1393 57.9455 93.9784 58.0781C90.6002 58.8081 87.1473 59.2948 83.7068 59.7328C81.6625 60.0248 79.5933 60.183 77.4741 60.329C76.2276 60.4263 75.8287 60.986 76.0032 62.1662C77.5323 72.2322 79.0406 82.2901 80.5282 92.3399C80.7961 93.6786 80.9297 95.0396 80.9271 96.4036C80.9755 97.537 80.5728 98.6447 79.8033 99.4947C79.0338 100.345 77.9572 100.871 76.799 100.964C75.6407 101.057 74.4906 100.709 73.5894 99.9924C72.6883 99.2762 72.1059 98.2474 71.9644 97.1215C71.7525 96.282 71.7026 95.406 71.578 94.5543C68.4118 74.4628 65.2373 54.3713 62.0544 34.2798C61.668 31.2381 60.7829 28.2451 60.1597 25.5805Z" fill="#42E532"/>
<path fill-rule="evenodd" clip-rule="evenodd" d="M55.7461 25.9876L55.7669 25.4277C55.8229 23.9216 56.0929 22.1633 57.0254 20.549C58.0237 18.821 59.5772 17.6086 61.5047 16.9568C63.3904 16.2645 65.4702 16.256 67.3638 16.9352C69.2603 17.6155 70.8388 18.9385 71.8138 20.658C72.8283 22.3404 73.5575 24.1717 73.9734 26.0809L73.9767 26.0962L73.9799 26.1114C75.433 33.0301 76.8997 40.0992 78.1439 47.1794C82.2694 46.6482 86.3988 46.2128 90.4786 45.7925C93.1859 45.5026 97.5915 45.3551 101.083 48.6344L101.145 48.6925L101.204 48.7529C101.907 49.4664 102.445 50.3178 102.782 51.2496C103.118 52.1814 103.247 53.1725 103.159 54.1565L103.137 54.4041L103.086 54.6475C102.664 56.6449 101.608 58.4632 100.066 59.8435C98.5854 61.1684 96.7293 62.0248 94.7421 62.3017C91.2387 63.0493 87.7043 63.5446 84.3115 63.9769C83.1289 64.145 81.9488 64.2706 80.7839 64.3735C82.1618 73.466 83.5227 82.5519 84.8667 91.6313C85.1697 93.1808 85.3232 94.7546 85.3254 96.3321C85.3922 98.5311 84.5993 100.676 83.1029 102.329C81.5826 104.008 79.4536 105.051 77.1607 105.234C74.8677 105.418 72.5922 104.728 70.8106 103.312C69.0978 101.951 67.9696 100.02 67.6373 97.8987C67.4516 97.0661 67.3337 96.0596 67.269 95.5072C67.252 95.3625 67.2387 95.2489 67.2288 95.1778C64.0642 75.0968 60.8914 55.0159 57.7102 34.9349L57.7001 34.8714L57.692 34.8077C57.44 32.8238 56.9707 30.9562 56.467 28.9519C56.2709 28.1716 56.0696 27.3705 55.8739 26.5338L55.7461 25.9876ZM71.5793 94.5563C71.619 94.8274 71.6511 95.1009 71.6833 95.375C71.7521 95.9619 71.8213 96.5512 71.9658 97.1236C72.1073 98.2494 72.6896 99.2782 73.5908 99.9945C74.4919 100.711 75.642 101.059 76.8003 100.966C77.9586 100.873 79.0352 100.347 79.8046 99.4968C80.5741 98.6467 80.9768 97.5391 80.9284 96.4057C80.931 95.0417 80.7974 93.6807 80.5295 92.342C79.042 82.2922 77.5336 72.2343 76.0046 62.1683C75.83 60.9881 76.2289 60.4284 77.4755 60.3311C79.5946 60.1851 81.6638 60.0269 83.7082 59.7349C87.1486 59.2969 90.6016 58.8102 93.9797 58.0802C95.1406 57.9476 96.2293 57.4613 97.0908 56.6902C97.9524 55.9192 98.5431 54.9027 98.7789 53.7853C98.8125 53.4084 98.7632 53.0289 98.6342 52.6721C98.5052 52.3154 98.2995 51.9897 98.0309 51.717C96.0489 49.8554 93.4437 49.7824 90.9506 50.0501C86.463 50.5124 81.9755 50.9869 77.5129 51.5831C75.3439 51.8751 74.409 51.3641 74.0101 49.0524C72.7386 41.6671 71.2054 34.2697 69.6721 26.9696C69.3499 25.4901 68.7814 24.0721 67.9893 22.7721C67.5262 21.9302 66.763 21.2833 65.8441 20.9537C64.9253 20.6241 63.9145 20.6347 63.0031 20.9835C60.9837 21.6406 60.2483 23.2344 60.161 25.5826C60.3229 26.2746 60.5024 26.9887 60.6862 27.72C61.2103 29.8049 61.7697 32.0301 62.0558 34.2819C65.2386 54.3734 68.4131 74.4649 71.5793 94.5563ZM80.3559 61.5529C80.35 61.511 80.3546 61.5199 80.3585 61.5698C80.3576 61.5642 80.3568 61.5585 80.3559 61.5529Z" fill="black"/>
<path d="M51.0103 34.9262C50.3497 41.9586 49.4771 48.845 46.61 55.2813C42.9327 63.6277 39.0435 71.889 35.2042 80.1503C34.6438 81.3283 33.9452 82.4388 33.1224 83.4597C31.4147 85.6254 29.0837 86.4284 27.3759 85.5888C25.6681 84.7493 24.8828 82.316 25.7679 79.6149C26.2037 78.3892 26.7157 77.1906 27.3011 76.0257C30.8662 68.2511 34.4937 60.5252 37.984 52.7262C40.3229 47.0982 41.643 41.1166 41.8857 35.0478C42.1599 31.118 41.2374 30.1811 37.1737 30.6556C34.5307 30.9342 31.9316 31.5224 29.4327 32.4076C24.1723 34.3057 19.049 36.5687 13.8011 38.491C12.0865 39.1292 10.2632 39.443 8.42847 39.4157C7.38002 39.3576 6.39014 38.9249 5.64757 38.2001C4.905 37.4753 4.46168 36.5092 4.40214 35.4858C4.35305 34.4743 4.65486 33.4761 5.2588 32.6526C5.86273 31.8291 6.7335 31.2284 7.7304 30.9476C11.8191 29.5119 15.8703 27.9667 19.9714 26.5554C24.0466 25.0014 28.2084 23.6731 32.4369 22.5768C35.4669 21.9686 38.5782 21.8453 41.6488 22.2118C47.1211 22.7715 50.038 25.8619 50.786 31.2153C50.8981 32.432 50.9231 33.7338 51.0103 34.9262Z" fill="#42E532"/>
<path fill-rule="evenodd" clip-rule="evenodd" d="M55.4216 34.9714L55.389 35.3184C54.7276 42.3596 53.8184 49.8565 50.6476 56.9791C47.5601 63.9867 44.3226 70.9378 41.1115 77.8325C40.4762 79.1966 39.8419 80.5585 39.21 81.9182L39.2019 81.9355L39.1937 81.9527C38.4935 83.4246 37.6213 84.8127 36.5944 86.0894C34.2578 89.0392 29.8047 91.5818 25.3946 89.4139C20.9533 87.2306 20.3553 82.0496 21.579 78.3151L21.5954 78.2652L21.613 78.2157C22.0985 76.8501 22.6675 75.5141 23.3169 74.2149C24.5008 71.6334 25.6859 69.0692 26.8676 66.5126C29.2482 61.3618 31.6147 56.2414 33.9295 51.0702C36.0583 45.931 37.2628 40.4715 37.49 34.9321C35.257 35.1796 33.0612 35.6822 30.9478 36.4298C28.4086 37.3463 25.888 38.3559 23.2903 39.4005C23.1894 39.4411 23.0882 39.4818 22.987 39.5225C20.5067 40.5201 17.952 41.5476 15.3594 42.4975C13.126 43.3272 10.7512 43.7352 8.36134 43.6997L8.26992 43.6983L8.17864 43.6932C6.04922 43.5752 4.04056 42.6964 2.53507 41.227C1.02982 39.7578 0.132703 37.801 0.0122129 35.7302L0.0110459 35.7102L0.0100722 35.6901C-0.0855994 33.7186 0.502474 31.7723 1.6808 30.1656C2.82706 28.6027 4.46727 27.4493 6.34973 26.8823C7.99998 26.3018 9.76866 25.6576 11.5663 25.0028C13.8719 24.163 16.2251 23.3059 18.4373 22.5436C22.6447 20.9421 26.941 19.5723 31.3058 18.4407L31.4267 18.4093L31.5492 18.3847C35.0351 17.685 38.614 17.5412 42.1469 17.959C45.6448 18.3234 48.7729 19.5563 51.144 21.9352C53.4917 24.2906 54.6839 27.3555 55.1428 30.64L55.1564 30.7369L55.1653 30.8343C55.2299 31.5341 55.2839 32.5726 55.3282 33.4247C55.3541 33.9232 55.3767 34.3579 55.3962 34.6238L55.4216 34.9714ZM41.6488 22.2139C38.5782 21.8474 35.467 21.9706 32.4369 22.5789C28.2084 23.6752 24.0466 25.0035 19.9715 26.5575C17.7057 27.3372 15.4551 28.1578 13.2051 28.9782C11.3825 29.6428 9.56018 30.3072 7.73042 30.9497C6.73352 31.2305 5.86274 31.8312 5.25881 32.6546C4.65487 33.4781 4.35306 34.4763 4.40215 35.4879C4.4617 36.5113 4.90502 37.4774 5.64758 38.2022C6.39015 38.927 7.38003 39.3597 8.42849 39.4178C10.2632 39.4451 12.0865 39.1313 13.8011 38.4931C16.3301 37.5667 18.8302 36.5612 21.3306 35.5556C24.0187 34.4744 26.7073 33.3931 29.4327 32.4097C31.9316 31.5245 34.5307 30.9362 37.1737 30.6577C41.2375 30.1832 42.1599 31.12 41.8857 35.0499C41.643 41.1187 40.3229 47.1003 37.984 52.7283C35.6516 57.94 33.2579 63.1192 30.8625 68.302C29.6734 70.8749 28.4838 73.4487 27.3011 76.0278C26.7157 77.1927 26.2037 78.3913 25.7679 79.617C24.8828 82.3181 25.6682 84.7514 27.3759 85.5909C29.0837 86.4304 31.4147 85.6274 33.1225 83.4617C33.9452 82.4409 34.6438 81.3304 35.2042 80.1524C35.8392 78.7861 36.4755 77.4198 37.112 76.0531C40.3242 69.1562 43.5409 62.2494 46.6101 55.2834C49.4771 48.8471 50.3497 41.9607 51.0104 34.9282C50.9732 34.421 50.9474 33.8939 50.9213 33.362C50.8861 32.6436 50.8504 31.9164 50.786 31.2174C50.0381 25.864 47.1211 22.7736 41.6488 22.2139ZM39.1041 34.8389C39.1041 34.8389 39.1032 34.8388 39.1013 34.8384ZM37.5014 33.3551C37.501 33.353 37.5008 33.3519 37.5008 33.3519C37.5008 33.3519 37.501 33.353 37.5014 33.3551Z" fill="black"/>
<path d="M299.945 15.0347C303.46 15.3632 307.013 15.5578 310.503 16.0689C317.584 17.1274 322.071 21.3858 322.62 28.3817C322.788 32.8995 322.546 37.4229 321.897 41.899C321.573 45.1111 320.775 48.2745 320.189 51.4622C320.189 51.6082 320.189 51.742 320.102 51.888C319.204 55.7327 317.172 57.6794 314.592 57.1806C312.012 56.6817 310.715 54.0659 311.326 50.3185C312.061 45.6951 312.947 41.0839 313.582 36.4483C313.908 34.1708 313.967 31.8645 313.757 29.574C313.458 26.4228 312.037 25.1818 308.858 24.7073C302.046 23.7454 295.12 23.844 288.34 24.9993C287.468 25.1572 286.584 25.2427 285.697 25.2548C285.097 25.3233 284.489 25.2734 283.909 25.1082C283.329 24.943 282.789 24.6658 282.321 24.293C281.852 23.9202 281.466 23.4594 281.183 22.938C280.901 22.4166 280.729 21.8451 280.677 21.2576C280.625 20.67 280.695 20.0783 280.882 19.5175C281.069 18.9567 281.369 18.4382 281.766 17.9929C282.162 17.5475 282.645 17.1844 283.188 16.9249C283.731 16.6655 284.321 16.515 284.924 16.4825C288.801 15.9837 292.703 15.6917 296.604 15.3632C297.701 15.2658 298.811 15.3632 299.92 15.3632L299.945 15.0347Z" fill="#42E532"/>
<path fill-rule="evenodd" clip-rule="evenodd" d="M295.891 10.3521L300.364 10.7701C301.304 10.8579 302.292 10.9388 303.31 11.0222C305.843 11.2296 308.558 11.452 311.156 11.8323L311.163 11.8333L311.17 11.8343C315.444 12.4733 319.281 14.1361 322.157 17.0061C325.055 19.8984 326.662 23.7049 327.003 28.0538L327.01 28.1393L327.013 28.225C327.189 32.965 326.938 37.7109 326.262 42.4079C326.013 44.8172 325.497 47.3355 325.036 49.5916C324.87 50.4041 324.71 51.1826 324.573 51.9097C324.549 52.2235 324.482 52.6732 324.306 53.1746C323.737 55.4224 322.739 57.6027 321.063 59.2113C319.138 61.0599 316.527 61.9189 313.735 61.3792C310.973 60.8453 308.899 59.1087 307.78 56.7837C306.727 54.596 306.587 52.08 306.981 49.6536C307.274 47.8151 307.577 46.0461 307.876 44.3059C308.36 41.4792 308.832 38.7286 309.223 35.8795L309.225 35.8675L309.226 35.8555C309.506 33.9024 309.556 31.9245 309.377 29.9601C309.338 29.5546 309.282 29.3122 309.241 29.1803C309.089 29.1221 308.777 29.0268 308.207 28.9409C301.869 28.0479 295.426 28.1395 289.118 29.2122C288.075 29.3997 287.019 29.5063 285.959 29.5312C284.854 29.6268 283.74 29.5203 282.674 29.2166C281.527 28.8901 280.461 28.3424 279.537 27.6065C278.612 26.8706 277.85 25.9615 277.293 24.9336C276.737 23.9057 276.397 22.7795 276.295 21.6219C276.193 20.4642 276.331 19.2983 276.699 18.1933C277.067 17.0881 277.66 16.0658 278.441 15.1872C279.223 14.3086 280.177 13.5915 281.249 13.0791C282.263 12.5943 283.362 12.302 284.487 12.2174C287.852 11.7887 291.237 11.5085 294.509 11.2377C294.952 11.2011 295.393 11.1646 295.832 11.1279L295.891 10.3521ZM296.603 15.3614C296.023 15.4102 295.443 15.4583 294.863 15.5063C291.542 15.7813 288.223 16.0561 284.923 16.4807C284.32 16.5132 283.73 16.6637 283.187 16.9231C282.644 17.1826 282.161 17.5457 281.765 17.9911C281.368 18.4364 281.068 18.9549 280.881 19.5157C280.694 20.0765 280.625 20.6682 280.676 21.2558C280.728 21.8433 280.9 22.4148 281.182 22.9362C281.465 23.4576 281.851 23.9184 282.32 24.2912C282.788 24.664 283.328 24.9412 283.908 25.1064C284.488 25.2716 285.096 25.3215 285.696 25.253C286.583 25.2409 287.467 25.1554 288.339 24.9975C295.119 23.8422 302.045 23.7436 308.857 24.7055C312.036 25.18 313.457 26.421 313.756 29.5722C313.966 31.8627 313.907 34.169 313.581 36.4465C313.184 39.3466 312.688 42.2372 312.193 45.1272C311.897 46.8566 311.6 48.5858 311.325 50.3167C310.714 54.0641 312.011 56.6799 314.591 57.1788C317.171 57.6776 319.203 55.7309 320.101 51.8862C320.188 51.7402 320.188 51.6064 320.188 51.4604C320.369 50.4734 320.571 49.4888 320.773 48.5044C321.222 46.3092 321.672 44.1148 321.896 41.8972C322.545 37.4211 322.787 32.8977 322.619 28.3799C322.07 21.384 317.583 17.1256 310.502 16.067C308.458 15.7677 306.392 15.5769 304.325 15.4042C303.917 15.3701 303.509 15.3368 303.101 15.3034C302.047 15.2172 300.994 15.131 299.944 15.0329L299.919 15.3614C299.917 15.3614 299.914 15.3614 299.912 15.3614C299.544 15.3612 299.176 15.3505 298.809 15.3397C298.071 15.3181 297.334 15.2965 296.603 15.3614ZM309.362 29.235C309.362 29.2351 309.362 29.2346 309.36 29.2338C309.362 29.2346 309.362 29.235 309.362 29.235ZM309.2 29.07C309.191 29.0563 309.187 29.0483 309.188 29.0477C309.188 29.0472 309.193 29.054 309.2 29.07Z" fill="black"/>
</svg>
