<svg width="53" height="33" viewBox="0 0 53 33" fill="none" xmlns="http://www.w3.org/2000/svg">
<path d="M20.0078 21.0194C19.4697 20.9692 18.9259 20.8659 18.3936 20.8799C16.2559 20.9468 14.1238 21.0612 11.9861 21.131C11.3186 21.1533 10.6309 21.1422 9.96914 21.0445C9.36205 20.9552 8.86429 20.5562 8.98514 20.054C9.06858 19.7052 9.49728 19.242 9.88283 19.1723C12.9816 18.6003 16.1235 18.1818 19.3661 18.4859C20.1775 18.5612 21.0004 18.7537 21.7772 18.9993C23.4173 19.5183 24.0416 20.5255 23.3856 21.8146C23.0547 22.4619 22.3354 22.9642 21.76 23.5082C21.0896 24.1416 20.3386 24.7164 19.7114 25.3777C19.2338 25.8827 18.6411 26.0724 17.9016 26.0585C16.1667 26.025 14.4317 25.9999 12.6939 25.9273C12.1098 25.9022 11.9199 26.0334 11.9515 26.5244C11.9918 27.1522 11.9314 27.78 11.9141 28.4776C12.2968 28.5083 12.6104 28.5306 12.924 28.5585C14.5669 28.7064 16.2127 28.8431 17.8556 29.0133C18.3188 29.0607 18.7878 29.1835 19.2309 29.323C20.3847 29.683 20.9745 30.4614 20.7328 31.2566C20.5026 32.0239 19.6193 32.3727 18.4282 32.2248C16.3796 31.9681 14.331 31.7254 12.2795 31.5077C11.7904 31.4547 11.2783 31.4826 10.7978 31.5524C9.26135 31.7728 8.2831 31.0808 8.4471 29.7722C8.59096 28.6394 8.85278 27.5205 9.08872 26.4017C9.18942 25.9246 9.17216 25.5674 8.62261 25.1824C7.85151 24.6411 8.1306 23.7147 9.11173 23.4524C9.62388 23.3157 10.1993 23.2906 10.7517 23.2878C12.6306 23.2739 14.5151 23.3129 16.3911 23.2767C16.7623 23.2683 17.1478 23.0562 17.4585 22.8665C18.0944 22.4731 18.6785 22.0183 19.2971 21.6053C19.5273 21.4519 19.8006 21.343 20.0538 21.2147C20.0423 21.1533 20.025 21.0863 20.0078 21.0194Z" fill="#69D743"/>
<path d="M20.0073 20.6708C19.5153 20.6206 19.0233 20.5341 18.5285 20.5313C18.0106 20.5285 17.4898 20.562 16.9719 20.5843C15.9505 20.6233 14.9319 20.6708 13.9105 20.7126C12.9121 20.7545 11.908 20.827 10.9096 20.7852C10.2507 20.7573 9.05954 20.7377 8.97034 19.8812C8.97034 20.11 8.97034 20.3387 8.97034 20.5675C9.01063 19.3845 10.7197 19.3678 11.5742 19.231C12.8172 19.0329 14.0716 18.8739 15.329 18.793C16.5806 18.7121 17.8379 18.7093 19.0866 18.8097C20.2289 18.9018 21.4949 19.1139 22.5134 19.6468C22.8615 19.8309 23.1924 20.0737 23.4053 20.4029C23.4917 20.5369 23.5578 20.6819 23.5981 20.8326C23.6039 20.8577 23.624 21.0419 23.6355 21.0475C23.5837 21.0251 23.6988 20.562 23.6154 20.8047C23.5981 20.8549 23.5924 20.9135 23.5808 20.9638C23.3219 21.9403 22.4271 22.5374 21.7135 23.2015C21.2963 23.5893 20.859 23.9548 20.4332 24.3343C20.039 24.6887 19.6909 25.1491 19.2219 25.4169C18.796 25.6597 18.3155 25.7155 17.8293 25.7071C17.1963 25.6987 16.5633 25.6848 15.9303 25.6708C15.2024 25.6569 14.4773 25.6401 13.7494 25.615C13.3984 25.6039 13.0445 25.5843 12.6935 25.576C12.5122 25.5704 12.2705 25.5564 12.1123 25.6652C11.8648 25.8354 11.9454 26.2819 11.9454 26.5302C11.9483 27.0659 11.9281 27.5988 11.9137 28.1374C11.9109 28.196 11.8994 28.821 11.9137 28.8237C13.0963 28.9186 14.2788 29.0246 15.4585 29.1307C16.6525 29.2395 17.8897 29.273 19.0464 29.6162C19.4981 29.7501 19.944 29.9287 20.2922 30.2495C20.4217 30.3667 20.5339 30.5007 20.6202 30.6513C20.6605 30.7211 20.695 30.7936 20.7209 30.869C20.7353 30.9136 20.7382 30.9806 20.7641 31.0196C20.7784 31.1089 20.7813 31.0699 20.7727 30.9024C20.7842 30.735 20.7813 30.6988 20.7669 30.788C20.6892 30.9164 20.6777 31.0894 20.5914 31.2233C20.4936 31.374 20.3584 31.5023 20.2059 31.6C19.8692 31.8176 19.4549 31.8958 19.0579 31.9069C18.4997 31.9237 17.9386 31.812 17.3891 31.7451C16.7849 31.6697 16.1778 31.5972 15.5736 31.5274C14.3565 31.3851 13.1107 31.1619 11.885 31.134C10.9988 31.1117 10.0493 31.4493 9.21491 31.0224C8.93294 30.8773 8.70276 30.6513 8.57329 30.3695C8.55027 30.3221 8.46971 29.9426 8.45245 29.937C8.47834 29.9454 8.40353 30.6095 8.45532 30.124C8.46395 30.057 8.47259 29.9873 8.48122 29.9203C8.50424 29.7613 8.52725 29.605 8.55315 29.446C8.65961 28.7903 8.79771 28.1401 8.93582 27.4928C9.03077 27.0464 9.14298 26.6167 9.14586 26.1591C9.14873 25.7992 9.19189 25.4253 8.94733 25.1212C8.65673 24.7612 8.22802 24.6189 8.18486 24.1083C8.18486 24.3064 8.18774 24.5045 8.18774 24.7026C8.18774 24.6803 8.18774 24.6552 8.18774 24.6329C8.18774 24.6663 8.18486 24.6998 8.18486 24.7361C8.27981 23.7986 9.48249 23.6842 10.2392 23.6479C11.4419 23.5921 12.6532 23.6368 13.8559 23.6396C14.4658 23.6423 15.0787 23.6423 15.6886 23.634C16.2756 23.6284 16.7475 23.62 17.2654 23.3271C17.7516 23.0536 18.2005 22.7188 18.6522 22.3979C19.1068 22.077 19.5527 21.8064 20.0563 21.5581C20.1023 21.5357 20.0735 20.9275 20.0563 20.8605C20.0419 20.8047 20.0246 20.7377 20.0073 20.6708C20.062 20.8884 19.9527 21.1479 20.0073 21.3683C20.0246 21.4353 20.0419 21.4995 20.0591 21.5664C20.0591 21.3348 20.0591 21.1005 20.0591 20.8689C19.2823 21.2539 18.6177 21.7506 17.9041 22.2333C17.602 22.437 17.2913 22.6518 16.9517 22.7941C16.5489 22.9643 16.1231 22.9364 15.6915 22.942C13.8587 22.9615 12.0087 22.8611 10.1759 22.9587C9.54291 22.9922 8.69701 23.0564 8.32009 23.6368C8.11293 23.9604 8.14171 24.4822 8.18486 24.8477C8.21651 25.1044 8.34887 25.3137 8.54739 25.4811C8.67111 25.5843 8.80347 25.668 8.90992 25.7908C9.0135 25.9108 9.03077 26.081 9.11996 26.1898C8.99049 26.0308 9.16887 25.7378 9.09982 26.0168C9.07392 26.12 9.05666 26.2261 9.03364 26.3293C8.99049 26.5302 8.94733 26.7311 8.90417 26.9348C8.80347 27.4063 8.70564 27.8751 8.61932 28.3494C8.50424 28.9772 8.42367 29.5855 8.42943 30.2216C8.43231 30.6848 8.4956 31.134 8.8495 31.4772C9.22354 31.84 9.77596 31.9543 10.2881 31.9488C10.6852 31.946 11.0736 31.8623 11.4706 31.8427C11.931 31.8204 12.3856 31.8734 12.8431 31.9237C14.6615 32.119 16.477 32.3394 18.2925 32.5626C19.4261 32.7021 20.7813 32.4705 20.7928 31.1229C20.7986 30.5341 20.7928 30.0319 20.3296 29.5883C19.7369 29.0191 18.7845 28.7931 17.9847 28.687C15.9792 28.4164 13.9364 28.2964 11.9195 28.1346C11.9195 28.3634 11.9195 28.5922 11.9195 28.821C11.9425 28.115 11.9799 27.4147 11.9742 26.7088C11.9742 26.5972 11.9713 26.4828 11.9684 26.3712C11.9511 25.9554 12.0835 26.4632 11.9626 26.653C11.9828 26.6195 11.9713 26.5693 11.9914 26.5358C12.1151 26.3377 12.2676 26.2902 12.5093 26.2819C13.4099 26.2456 14.3306 26.3433 15.234 26.3628C16.126 26.3823 17.0179 26.4102 17.907 26.413C18.6407 26.4158 19.2478 26.2093 19.7599 25.6876C20.3325 25.1016 20.9741 24.5882 21.5812 24.033C22.125 23.5363 22.758 23.0731 23.1953 22.4788C23.5175 22.0408 23.647 21.5553 23.6528 21.0279C23.6557 20.5815 23.6758 20.1406 23.4312 19.7416C23.1205 19.2366 22.5508 18.9269 21.9984 18.726C20.3181 18.115 18.4939 18.0117 16.7187 18.0424C14.9492 18.0703 13.1883 18.274 11.4448 18.5586C11.016 18.6284 10.5873 18.7009 10.1615 18.779C9.79035 18.846 9.51126 18.952 9.26094 19.2394C8.93294 19.6161 8.93006 20.1016 8.9761 20.5759C9.05091 21.3934 10.1442 21.4437 10.7801 21.4771C11.7986 21.533 12.8258 21.4576 13.8443 21.4158C14.8888 21.3739 15.9332 21.3237 16.9776 21.2846C17.4955 21.2651 18.0163 21.2288 18.5342 21.2316C19.0291 21.2344 19.5211 21.3237 20.0131 21.3711C19.9872 21.3683 20.0361 20.6764 20.0073 20.6708Z" fill="black"/>
<path d="M41.9917 4.7693C41.658 7.34744 40.8063 9.95907 37.6615 11.5662C37.4831 11.6583 37.3162 11.9485 37.345 12.1243C37.5694 13.5194 37.9233 14.9033 38.0758 16.304C38.2571 17.953 38.2744 19.6159 38.3607 21.2733C38.4096 22.2332 37.86 22.9056 36.9595 22.9949C36.0589 23.0842 35.3453 22.554 35.1554 21.5802C35.0404 20.9943 35.003 20.3944 34.9656 19.7973C34.8649 18.2069 34.7929 16.6137 34.6951 15.0233C34.6404 14.1332 34.4218 13.2934 33.8262 12.5121C33.2248 11.7225 33.5471 10.6594 34.4275 10.0735C34.6117 9.9507 34.8131 9.8363 35.0289 9.76654C37.8226 8.8681 38.7865 6.91496 39.1346 4.62421C39.313 3.45511 37.8226 2.52319 36.3668 2.91102C35.1957 3.22353 34.3239 3.83737 33.9125 4.8837C33.7945 5.18504 33.3457 5.64263 33.1299 5.61194C32.7213 5.55613 32.2121 5.26316 32.0308 4.95066C31.5935 4.18894 31.769 3.39094 32.2667 2.66549C34.1225 -0.0354273 38.1852 -0.445587 40.7315 1.80331C41.6349 2.59852 42.0205 3.42721 41.9917 4.7693Z" fill="#69D743"/>
<path d="M41.9917 4.42055C41.727 6.44065 41.0998 8.43286 39.5633 9.89213C39.1461 10.2883 38.68 10.6343 38.1823 10.9301C37.9492 11.0668 37.6385 11.1673 37.4774 11.3877C37.3536 11.5551 37.3421 11.7225 37.3421 11.9178C37.3364 13.1762 37.7392 14.429 37.9406 15.6706C38.188 17.1773 38.2398 18.7064 38.3002 20.2298C38.3146 20.5981 38.329 20.9664 38.3492 21.3347C38.352 21.424 38.3492 21.5217 38.3635 21.611C38.2916 21.1087 38.3779 21.2817 38.3348 21.4101C38.2887 21.5524 38.2657 21.6947 38.1995 21.8314C37.9981 22.2443 37.6097 22.5289 37.1522 22.621C36.6832 22.7159 36.1769 22.6322 35.7971 22.3392C35.3626 22.0016 35.2015 21.4966 35.118 20.9804C34.8792 19.4988 34.8879 17.9586 34.8044 16.4631C34.7354 15.1796 34.7987 13.7928 34.1398 12.6321C33.993 12.3754 33.783 12.1494 33.6593 11.8788C33.6075 11.7699 33.5989 11.6388 33.55 11.5328C33.4723 11.3681 33.4751 11.8648 33.55 11.6974C33.5787 11.6304 33.5816 11.5467 33.6046 11.477C33.7744 10.9496 34.1887 10.545 34.6749 10.2772C35.19 9.99258 35.7827 9.86423 36.3006 9.57405C36.7322 9.33409 37.1321 9.03833 37.4774 8.68956C38.1506 8.01433 38.5908 7.16332 38.8584 6.26766C39.0828 5.51152 39.3217 4.55448 39.1145 3.76764C38.8354 2.70737 37.4658 2.31953 36.4818 2.53438C35.446 2.76038 34.4793 3.36306 34.0161 4.31173C33.8549 4.64377 33.5931 5.25203 33.1356 5.26319C32.8824 5.27156 32.5602 5.08183 32.3674 4.93953C32.1114 4.75537 31.9617 4.50984 31.8697 4.21687C31.8466 4.14432 31.8409 4.0662 31.815 3.99644C31.7575 3.84298 31.7517 4.1778 31.8236 4.03271C31.8783 3.9211 31.8869 3.77043 31.933 3.65046C32.0538 3.33795 32.2351 3.05056 32.4422 2.7827C32.7415 2.39207 33.1011 2.04609 33.5039 1.75312C34.3124 1.16718 35.2907 0.812822 36.2948 0.720745C38.2772 0.533802 40.6768 1.42388 41.6205 3.22634C41.7241 3.42445 41.8047 3.63371 41.8622 3.84856C41.8939 3.97133 41.9198 4.0941 41.9399 4.21687C41.9514 4.29778 41.986 4.89767 41.9917 4.51542C41.9888 4.68004 41.986 4.84466 41.9917 5.00928C41.9946 5.10973 41.9946 5.14321 41.9975 5.00928C42.009 4.13595 42.0205 3.2403 41.5774 2.45067C41.1199 1.63872 40.297 1.00535 39.4569 0.595186C37.8111 -0.208391 35.7884 -0.205601 34.1628 0.6482C33.3255 1.08905 32.5717 1.7587 32.1113 2.57623C31.8754 2.99755 31.7891 3.41887 31.7862 3.8932C31.7833 4.33963 31.7718 4.77491 31.979 5.18786C32.1603 5.55058 32.7328 6.01375 33.1846 5.95795C33.5931 5.90773 33.8492 5.36085 33.993 5.05114C34.4074 4.16664 35.2303 3.60581 36.1653 3.31563C37.1033 3.02545 38.2887 3.17054 38.8929 4.01039C39.0138 4.18059 39.0656 4.3508 39.1289 4.54332C39.2181 4.81955 39.1922 4.02713 39.1145 4.40381C39.0886 4.53495 39.0685 4.66888 39.0426 4.80002C38.9591 5.21297 38.8498 5.62034 38.703 6.01654C38.4067 6.81733 37.9521 7.55395 37.3134 8.14268C36.9681 8.45797 36.5797 8.72583 36.1625 8.94625C35.682 9.20016 35.1382 9.32014 34.6663 9.57963C34.2347 9.8168 33.8607 10.16 33.6622 10.6092C33.4982 10.9775 33.5154 11.3598 33.5154 11.7532C33.5183 12.1661 33.5816 12.5121 33.8262 12.8637C34.1743 13.3604 34.4333 13.8737 34.5685 14.4653C34.7152 15.1154 34.721 15.7906 34.7584 16.4547C34.7958 17.1355 34.8332 17.8191 34.8706 18.4999C34.908 19.1723 34.9425 19.8476 34.9914 20.52C35.0317 21.0808 35.0519 21.6807 35.2331 22.2192C35.518 23.0702 36.384 23.5446 37.2817 23.2851C38.2226 23.0144 38.3693 22.1551 38.3693 21.3292C38.3664 20.0736 38.2859 18.8068 38.2082 17.5512C38.1305 16.2622 37.9607 14.9982 37.7133 13.7314C37.5867 13.0813 37.3623 12.3782 37.345 11.7141C37.345 11.9429 37.345 12.1717 37.345 12.4005C37.4256 11.9597 37.8313 11.8369 38.1823 11.6248C38.5448 11.4072 38.8929 11.1645 39.2152 10.8966C39.8108 10.3999 40.3172 9.81401 40.7171 9.15831C41.4681 7.92783 41.8047 6.52157 41.9917 5.11531C42.0205 4.88651 41.9601 4.64656 41.9917 4.42055Z" fill="black"/>
<path d="M46.8542 13.9994C47.5274 11.5412 48.1633 9.07744 48.8855 6.63323C49.3545 5.04281 49.9155 3.46914 50.5025 1.90942C50.8736 0.918899 51.5325 0.50595 52.2058 0.684523C52.8532 0.857515 53.1438 1.4602 52.9193 2.47583C51.5555 8.65054 50.0047 14.7834 47.8554 20.7851C47.8152 20.8967 47.7662 21.0055 47.7116 21.1088C47.3116 21.8482 46.5089 22.197 45.7234 21.9765C44.9667 21.7645 44.5179 21.1088 44.6502 20.3192C44.7624 19.6439 44.9725 19.1361 45.0243 19.0412C45.3954 18.3744 45.9565 16.9179 46.8542 13.9994Z" fill="#69D743"/>
<path d="M46.8543 14.3481C47.8239 10.8073 48.7014 7.24145 49.9415 3.77881C50.2724 2.85526 50.8104 0.452893 52.3497 1.0779C52.5627 1.16439 52.7324 1.31227 52.8417 1.51038C52.8964 1.61083 52.9338 1.72243 52.9597 1.83404C53.0345 2.17166 52.9511 1.78382 52.977 1.7894C52.9885 1.79219 52.9223 2.11306 52.9194 2.12422C52.7382 3.00314 52.5281 3.87647 52.3267 4.7498C51.5182 8.24592 50.6292 11.7281 49.5905 15.1684C49.0697 16.8927 48.5202 18.6115 47.9044 20.308C47.6628 20.9748 47.2168 21.5524 46.4543 21.6724C45.8357 21.77 45.1596 21.5105 44.8316 20.9776C44.7424 20.8325 44.7079 20.6874 44.6561 20.5312C44.5525 20.2242 44.5899 20.9302 44.6446 20.7153C44.6791 20.5814 44.6906 20.4419 44.7222 20.3052C44.7913 20.015 44.8719 19.7164 44.9985 19.443C45.1423 19.1333 45.2977 18.8347 45.4272 18.5194C45.9882 17.1606 46.4227 15.7488 46.8543 14.3481C46.9204 14.1332 46.7881 13.8626 46.8543 13.6505C46.4342 15.0149 46.0112 16.3821 45.4761 17.7103C45.1308 18.5669 44.6446 19.3565 44.6273 20.308C44.6187 20.8493 44.5813 21.4101 44.961 21.8509C45.4128 22.3783 46.2299 22.529 46.8658 22.2499C47.68 21.8956 47.8901 21.0501 48.1519 20.3024C48.4713 19.3872 48.7762 18.4664 49.0697 17.5429C50.2436 13.8598 51.2276 10.1237 52.1138 6.36533C52.3411 5.4055 52.5598 4.44288 52.7756 3.48026C52.9252 2.80782 53.0173 2.1884 52.9971 1.50201C52.9798 0.974661 52.7727 0.486376 52.2059 0.335705C51.5412 0.157132 50.9917 0.606354 50.6925 1.14486C50.445 1.59129 50.2983 2.09911 50.1257 2.57624C49.9415 3.08405 49.7602 3.59466 49.5847 4.10526C49.2337 5.12927 48.9172 6.16443 48.618 7.20518C48.0023 9.34805 47.4412 11.5049 46.8543 13.6561C46.7938 13.8682 46.9118 14.1305 46.8543 14.3481Z" fill="black"/>
<path d="M26.4294 14.3454C25.6496 14.1333 24.8095 13.952 23.9981 13.9547C21.4777 13.9631 18.9572 14.0636 16.4368 14.1249C16.1491 14.1333 15.8614 14.1249 15.5449 14.1249C15.7578 12.6043 15.0385 11.3459 14.3192 10.0987C13.7869 9.17513 13.8732 9.0998 14.6673 8.37993C15.6945 7.45079 16.7101 7.29175 18.0682 7.85537C19.2507 8.34644 20.5627 8.59756 21.2849 9.68574C21.446 9.93128 22.125 10.1098 22.4905 10.0401C22.8616 9.97034 23.3594 9.5825 23.4112 9.28674C23.4975 8.79845 23.4486 8.17066 23.1378 7.78282C22.6947 7.23315 22.0272 6.75045 21.3338 6.41283C20.5627 6.03616 19.6564 5.84921 18.6925 5.54508C19.2478 5.08749 19.7801 4.68849 20.2577 4.24485C20.7641 3.7761 21.0576 3.22085 20.7123 2.59305C20.3786 1.982 19.6996 1.81459 18.9716 1.86481C17.5934 1.95968 16.2152 2.09082 14.8428 2.23312C13.9739 2.3224 13.1136 2.45912 12.2274 2.57631C12.3022 1.23981 11.8045 0.793373 10.3227 1.02775C7.76487 1.42954 5.22716 1.92898 2.6837 2.39495C2.41324 2.44517 2.14854 2.51772 1.89247 2.607C1.27387 2.81906 0.862424 3.18457 0.937232 3.77052C1.01492 4.38157 1.51843 4.72197 2.21472 4.77778C2.70097 4.81684 3.2016 4.73034 3.6936 4.68012C3.97269 4.65222 4.24315 4.58246 4.51937 4.53224C4.5654 4.59362 4.61144 4.65501 4.65747 4.71918C4.42442 4.87544 4.18849 5.0289 3.96119 5.19073C2.86209 5.9664 1.75148 6.73371 0.672528 7.52891C0.0107686 8.01999 -0.147478 8.67569 0.220805 9.2142C0.612107 9.78619 1.24222 10.0178 1.98454 9.8392C2.44777 9.72759 2.91388 9.51554 3.28504 9.25605C4.28056 8.5585 5.23004 7.81072 6.19391 7.08248C6.51328 6.83974 6.82402 6.59141 7.15202 6.33471C8.09862 7.0769 8.9733 7.76887 9.87386 8.47479C9.07688 9.25884 8.0756 9.97313 9.05098 11.039C9.59477 11.6333 10.2565 11.5635 11.7671 10.8744C12.2361 12.0183 12.7079 13.1651 13.2028 14.3677C12.8316 14.4095 12.4777 14.4402 12.1296 14.4905C9.53435 14.8616 6.9391 15.2327 4.34961 15.6205C3.94392 15.6819 3.4663 15.7488 3.19009 15.9609C2.84195 16.226 2.43338 16.6724 2.48517 16.9961C2.53696 17.3197 3.06349 17.6741 3.48069 17.8527C3.80869 17.9922 4.29494 17.9168 4.70351 17.8833C11.7325 17.3114 18.7184 16.2399 25.8338 16.7422C26.6682 16.8007 27.2868 16.3599 27.4364 15.7712C27.5831 15.1769 27.2264 14.563 26.4294 14.3454ZM12.5094 6.65837C12.2677 6.7644 11.816 6.78114 11.6088 6.65837C10.6881 6.11986 9.8192 5.51718 8.77765 4.83637C9.28403 4.41226 9.80193 3.97699 10.3659 3.50266C11.0737 4.6578 11.3844 4.8001 12.8201 4.70244C13.3438 4.66617 13.8617 4.60479 14.3825 4.55177C14.863 4.50155 15.3435 4.44295 15.8239 4.38994C15.8556 4.44016 15.8844 4.49039 15.916 4.54061C15.2025 4.98704 14.4889 5.43626 13.7754 5.8827C13.3553 6.14777 12.9669 6.45748 12.5094 6.65837Z" fill="#69D743"/>
<path d="M26.429 13.9967C25.5831 13.7679 24.7344 13.606 23.8539 13.606C22.9275 13.6088 21.9981 13.6256 21.0717 13.6479C19.2302 13.6925 17.3888 13.7818 15.5474 13.779C15.5474 14.0106 15.5474 14.245 15.5474 14.4766C15.6337 13.7846 15.6366 13.0201 15.4841 12.3365C15.2885 11.4492 14.8339 10.6428 14.3821 9.856C14.2786 9.67464 14.1663 9.49327 14.0829 9.30354C14.057 9.24774 14.0426 9.18635 14.0167 9.13055C13.8988 8.87385 14.3246 9.09427 13.9966 9.5156C14.0685 9.42352 14.0973 9.29796 14.1779 9.20309C14.3102 9.04684 14.4713 8.91012 14.6238 8.7734C15.2252 8.22931 15.933 7.84147 16.7789 7.88612C17.6104 7.93076 18.4016 8.33534 19.1698 8.62273C19.9294 8.90733 20.6976 9.25053 21.1925 9.90901C21.6039 10.4559 22.4326 10.5647 22.9936 10.1629C23.2699 9.96761 23.4108 9.75834 23.4396 9.42631C23.4684 9.11102 23.4597 8.78735 23.4511 8.46927C23.4195 7.48154 22.6829 6.86211 21.8715 6.36267C20.899 5.76278 19.7769 5.53677 18.6922 5.19916C18.6922 5.43074 18.6922 5.66512 18.6922 5.89671C19.1842 5.49213 19.6964 5.10708 20.1682 4.68018C20.5106 4.36768 20.8242 4.01053 20.8616 3.5362C20.9249 2.73262 20.8098 1.88998 19.9035 1.60538C19.3741 1.43797 18.7987 1.52725 18.2577 1.56911C17.5931 1.61933 16.9285 1.67792 16.2638 1.7421C14.9115 1.87045 13.5708 2.04623 12.2271 2.22759C12.2271 2.45639 12.2271 2.68519 12.2271 2.91398C12.2587 2.26387 12.417 1.13104 11.6948 0.759948C11.2834 0.547893 10.7597 0.614858 10.3224 0.681823C9.48511 0.804592 8.65072 0.955262 7.81633 1.10314C6.15042 1.3989 4.48739 1.7142 2.82148 2.02391C2.2374 2.12994 1.43754 2.26945 1.07788 2.79121C0.850585 3.12325 0.902375 3.63385 0.925392 4.01332C0.962796 4.61879 1.41452 4.99547 2.00723 5.09871C2.45032 5.17683 2.91067 5.11545 3.35376 5.06523C3.58106 5.04011 3.80836 5.015 4.03566 4.97594C4.12773 4.9592 4.21981 4.93967 4.309 4.92293C4.52767 4.87828 4.52479 4.89781 4.65426 5.06802C4.65426 4.83643 4.65426 4.60205 4.65426 4.37047C3.47748 5.16009 2.31797 5.98041 1.17283 6.81189C0.695215 7.15788 0.116895 7.50944 0.0334554 8.13724C-0.00970289 8.45253 -0.0154573 8.82921 0.042087 9.14171C0.131281 9.63278 0.580126 10.0485 1.06062 10.188C1.6188 10.3471 2.22014 10.1657 2.72365 9.92854C3.34225 9.63836 3.88605 9.18077 4.42696 8.7734C4.98227 8.35766 5.53182 7.93355 6.08424 7.51223C6.24537 7.38946 6.40361 7.26948 6.56186 7.14392C6.69997 7.0379 6.87835 6.83142 7.03948 6.76725C7.21499 6.69749 7.03372 6.65843 7.25527 6.76725C7.35309 6.81468 7.44229 6.91234 7.52573 6.9793C7.68397 7.10486 7.8451 7.23042 8.00334 7.35598C8.62482 7.84426 9.24918 8.33534 9.87066 8.82363C9.87066 8.59204 9.87066 8.35766 9.87066 8.12608C9.28946 8.69249 8.64784 9.18077 8.64209 10.0374C8.63921 10.3694 8.61331 10.6958 8.77156 11.0028C8.92693 11.3041 9.20027 11.6055 9.53115 11.7254C9.83613 11.8343 10.1728 11.7896 10.4806 11.7115C10.6763 11.6613 10.8691 11.5943 11.0589 11.5217C11.2114 11.4632 11.3639 11.399 11.5135 11.3348C11.5538 11.3153 11.597 11.2985 11.6373 11.279C11.7466 11.1786 11.8041 11.2009 11.8157 11.3432C11.8905 11.4269 11.9221 11.6027 11.9681 11.7115C12.0343 11.8761 12.1034 12.0407 12.1696 12.2026C12.2703 12.4509 12.3738 12.6964 12.4745 12.9447C12.7162 13.5335 12.9579 14.1222 13.1996 14.7137C13.1996 14.4821 13.1996 14.2478 13.1996 14.0162C10.1843 14.3454 7.17183 14.8226 4.17665 15.2913C3.53215 15.3918 3.03151 15.6038 2.65172 16.1451C2.42442 16.4688 2.44456 16.8734 2.47334 17.25C2.50786 17.7076 3.0718 18.0424 3.47461 18.1959C4.04142 18.4108 4.80963 18.2182 5.39659 18.168C11.3956 17.6518 17.3917 16.8231 23.431 16.9738C24.2682 16.9933 25.1055 17.0826 25.9428 17.091C26.5211 17.0966 27.1167 16.8427 27.3641 16.3097C27.5281 15.9554 27.4965 15.481 27.4677 15.1044C27.4217 14.5268 26.97 14.1613 26.429 13.9967C26.4923 14.0162 26.3571 14.6719 26.429 14.6942C26.757 14.7947 27.0591 14.9537 27.2606 15.2299C27.344 15.3471 27.3785 15.4671 27.4332 15.5954C27.5339 15.8326 27.2404 15.7266 27.4504 15.3359C27.4073 15.4141 27.4015 15.5257 27.3641 15.6094C27.0534 16.2874 26.3053 16.4185 25.6177 16.3711C23.6266 16.24 21.6327 16.2288 19.6388 16.2958C15.7143 16.4297 11.8128 16.8622 7.9084 17.2361C6.80067 17.3421 5.69294 17.437 4.58521 17.5346C4.12773 17.5765 3.70766 17.6211 3.29046 17.4063C2.97397 17.2444 2.49348 16.9654 2.47621 16.572C2.47621 16.8008 2.47621 17.0296 2.47621 17.2584C2.58842 16.4688 3.47461 16.0949 4.17665 15.9861C5.17504 15.8298 6.17344 15.6903 7.17471 15.5452C9.18013 15.2522 11.1855 14.9314 13.1996 14.7109C13.2054 14.7109 13.2226 14.0664 13.1996 14.0134C12.8889 13.26 12.581 12.5039 12.2703 11.7505C12.1954 11.5664 12.1178 11.3822 12.043 11.1953C11.9739 11.0251 11.925 10.7879 11.8157 10.6428C11.715 10.5089 11.807 10.5452 11.6373 10.5787C11.5366 10.5982 11.4301 10.6707 11.338 10.7098C11.1798 10.7768 11.0187 10.8409 10.8547 10.8967C10.4461 11.039 9.95985 11.1758 9.53402 11.0223C9.05928 10.8521 8.691 10.3359 8.64784 9.85879C8.64784 10.0346 8.65072 10.2076 8.65072 10.3833C8.65072 10.3554 8.65072 10.3275 8.65072 10.2996C8.65072 10.3582 8.64784 10.414 8.64784 10.4726C8.71689 9.77229 9.39592 9.28122 9.87066 8.81804C9.90806 8.78177 9.90518 8.14561 9.87066 8.12049C9.37002 7.72708 8.86939 7.33366 8.37163 6.94024C8.14433 6.76167 7.91703 6.58309 7.68685 6.40173C7.56025 6.30407 7.43653 6.20363 7.30994 6.10597C7.29267 6.09202 7.27253 6.07807 7.25527 6.06412C7.2006 5.96367 7.14593 5.94972 7.09127 6.02226C7.02509 6.03901 6.93014 6.14782 6.87548 6.19247C5.8742 6.98209 4.85855 7.76056 3.8285 8.51112C3.02001 9.09985 1.84035 9.91738 0.790163 9.38166C0.585881 9.27843 0.410371 9.12497 0.275142 8.94639C0.21472 8.86827 0.16293 8.78456 0.119772 8.69807C0.0938769 8.64505 0.082368 8.57809 0.0564731 8.52786C-0.0816333 8.26838 0.116895 8.80688 0.0334554 8.78735C-0.0384751 8.76782 0.298159 8.22094 0.326931 8.18746C0.528337 7.9475 0.801672 7.77172 1.05487 7.58757C2.2374 6.72819 3.43432 5.87996 4.64851 5.06523C4.68591 5.04011 4.68016 4.41232 4.64851 4.36768C4.56219 4.25328 4.55932 4.21422 4.44135 4.19468C4.34353 4.17794 4.19966 4.24491 4.09896 4.26165C3.87166 4.3035 3.64436 4.3314 3.41706 4.35652C2.9826 4.40674 2.53951 4.46812 2.10217 4.41511C1.46919 4.33419 0.974305 3.96589 0.919638 3.32693C0.919638 3.44412 0.922515 3.55852 0.922515 3.67571C0.922515 3.6478 0.922515 3.61711 0.922515 3.58921C0.922515 3.7064 0.919638 3.8208 0.919638 3.93799C1.02034 2.84423 2.67474 2.74378 3.50913 2.58753C4.87293 2.33362 6.23673 2.07413 7.60053 1.83138C8.27093 1.71141 8.94419 1.59422 9.61746 1.4854C10.121 1.40169 10.6446 1.28172 11.1568 1.32078C11.4531 1.3431 11.7495 1.42681 11.948 1.65281C12.0372 1.75605 12.0976 1.87882 12.1408 2.00438C12.1696 2.08808 12.1868 2.17737 12.2012 2.26387C12.2127 2.33362 12.2185 2.40617 12.2242 2.47592C12.23 2.1104 12.23 2.02949 12.2213 2.23317C12.2185 2.29177 12.2329 2.91677 12.2213 2.91956C13.9448 2.68798 15.6625 2.47871 17.3975 2.33083C18.5196 2.23317 20.7091 1.79232 20.8559 3.44412C20.8559 3.24602 20.853 3.04791 20.853 2.84981C20.853 2.88329 20.853 2.91398 20.853 2.94746C20.853 2.91398 20.8559 2.8805 20.8559 2.84423C20.8012 3.36041 20.4502 3.72314 20.0704 4.05796C19.6244 4.45138 19.1468 4.81411 18.6864 5.19358C18.649 5.22427 18.6778 5.88834 18.6864 5.89113C19.5669 6.16736 20.4933 6.3543 21.3277 6.75888C22.0326 7.10207 22.9562 7.65732 23.2871 8.38835C23.3245 8.46927 23.3878 8.87943 23.4252 8.89896C23.3101 8.83758 23.5202 8.4023 23.4137 8.8878C23.3993 8.95197 23.3878 9.00778 23.359 9.06916C23.2152 9.35655 22.8411 9.61046 22.5275 9.68301C22.2398 9.74997 21.9061 9.68301 21.6385 9.57698C21.3105 9.44584 21.1839 9.16961 20.9479 8.93244C20.4099 8.39114 19.6762 8.10933 18.9655 7.84985C18.2405 7.58478 17.5125 7.21368 16.7242 7.18578C15.9704 7.16067 15.3086 7.48154 14.7533 7.95866C14.5202 8.15956 14.2095 8.39393 14.057 8.66458C13.9534 8.85153 13.9764 9.06637 13.9764 9.27285C13.9764 9.53234 13.9736 9.75834 14.08 10.0011C14.2584 10.4112 14.5174 10.7879 14.7332 11.1813C14.9605 11.5971 15.1676 12.024 15.323 12.4732C15.4007 12.6936 15.464 12.9224 15.5071 13.1512C15.5301 13.2684 15.5474 13.3828 15.5618 13.5C15.5819 13.8292 15.5877 13.8013 15.5819 13.4163C15.5762 13.5363 15.5647 13.659 15.5474 13.779C15.5388 13.846 15.5445 14.4766 15.5474 14.4766C17.3888 14.4794 19.2302 14.3901 21.0717 14.3482C21.9981 14.3259 22.9275 14.3092 23.8539 14.3064C24.7344 14.3036 25.5831 14.4682 26.429 14.697C26.3744 14.6775 26.4981 14.0134 26.429 13.9967Z" fill="black"/>
<path d="M12.509 6.30959C11.8155 6.56629 11.3005 6.1366 10.7452 5.78225C10.0835 5.36093 9.43321 4.92007 8.7772 4.49038C8.7772 4.72197 8.7772 4.95635 8.7772 5.18793C9.09945 4.91728 9.42458 4.64384 9.74683 4.3732C9.91083 4.23648 10.0748 4.05232 10.259 3.9435C10.4201 3.84585 10.3683 3.86538 10.469 4.02163C10.5007 4.07185 10.5352 4.12208 10.5668 4.1723C10.8171 4.5434 11.1077 4.89496 11.5681 5.01494C12.1493 5.16561 12.8197 5.06237 13.4066 5.00657C13.8411 4.96472 14.2756 4.91728 14.71 4.86985C14.9287 4.84474 15.1474 4.81963 15.366 4.79452C15.4667 4.78335 15.5933 4.74429 15.694 4.75824C15.8465 4.77498 15.8264 4.74429 15.9156 4.89496C15.9156 4.66338 15.9156 4.429 15.9156 4.19741C15.32 4.5713 14.7273 4.9424 14.1317 5.31628C13.5965 5.64832 13.0844 6.04453 12.509 6.30959C12.4111 6.35424 12.5981 6.96529 12.509 7.00714C13.0844 6.74207 13.5965 6.34587 14.1317 6.00825C14.7273 5.63437 15.32 5.26327 15.9156 4.88938C15.9559 4.86427 15.9472 4.24206 15.9156 4.19183C15.8494 4.08301 15.8638 4.07464 15.7602 4.04953C15.671 4.02721 15.5272 4.07464 15.4322 4.0858C15.2135 4.11092 14.9949 4.13603 14.7762 4.16114C14.3417 4.20857 13.9073 4.25601 13.4728 4.30065C12.8686 4.35924 12.1694 4.47364 11.571 4.31739C11.125 4.2002 10.8402 3.86817 10.5927 3.51102C10.5496 3.44964 10.5093 3.38826 10.469 3.32408C10.4517 3.29618 10.4345 3.27107 10.4172 3.24316C10.3971 3.14551 10.3597 3.13156 10.3136 3.20131C10.1755 3.232 9.90795 3.54172 9.79862 3.63379C9.4591 3.91839 9.11959 4.20578 8.7772 4.49038C8.74268 4.51829 8.74843 5.1684 8.7772 5.18793C9.43321 5.61762 10.0835 6.05848 10.7452 6.4798C11.3005 6.83415 11.8127 7.26384 12.509 7.00714C12.5924 6.97645 12.4341 6.3375 12.509 6.30959Z" fill="black"/>
<path d="M44.0086 28.0147C44.9763 28.0147 45.7608 27.2539 45.7608 26.3154C45.7608 25.377 44.9763 24.6162 44.0086 24.6162C43.0408 24.6162 42.2563 25.377 42.2563 26.3154C42.2563 27.2539 43.0408 28.0147 44.0086 28.0147Z" fill="#69D743" stroke="black" stroke-width="0.5" stroke-miterlimit="10"/>
<path d="M38.6426 28.0147C39.6103 28.0147 40.3948 27.2539 40.3948 26.3154C40.3948 25.377 39.6103 24.6162 38.6426 24.6162C37.6749 24.6162 36.8904 25.377 36.8904 26.3154C36.8904 27.2539 37.6749 28.0147 38.6426 28.0147Z" fill="#69D743" stroke="black" stroke-width="0.5" stroke-miterlimit="10"/>
</svg>
