<svg width="35" height="22" viewBox="0 0 35 22" fill="none" xmlns="http://www.w3.org/2000/svg">
<path d="M13.2121 14.186C12.8568 14.1521 12.4977 14.0824 12.1462 14.0918C10.7345 14.137 9.32651 14.2142 7.91478 14.2613C7.47396 14.2763 7.01985 14.2688 6.58284 14.2029C6.18193 14.1427 5.85322 13.8734 5.93302 13.5344C5.98812 13.299 6.27123 12.9864 6.52584 12.9394C8.57219 12.5533 10.6471 12.2709 12.7884 12.4761C13.3242 12.527 13.8676 12.6569 14.3807 12.8226C15.4637 13.1729 15.876 13.8527 15.4428 14.7226C15.2243 15.1595 14.7493 15.4985 14.3693 15.8657C13.9265 16.2931 13.4306 16.681 13.0164 17.1273C12.701 17.4682 12.3096 17.5962 11.8213 17.5868C10.6756 17.5642 9.52982 17.5473 8.38219 17.4983C7.99648 17.4813 7.87107 17.5698 7.89198 17.9013C7.91858 18.325 7.87867 18.7487 7.86727 19.2194C8.11998 19.2401 8.32709 19.2552 8.53419 19.274C9.61912 19.3738 10.706 19.4661 11.7909 19.581C12.0968 19.613 12.4065 19.6958 12.6991 19.79C13.461 20.0329 13.8505 20.5583 13.6909 21.095C13.5389 21.6128 12.9556 21.8482 12.169 21.7484C10.8162 21.5751 9.46332 21.4113 8.10858 21.2644C7.78557 21.2287 7.44736 21.2475 7.13005 21.2946C6.11542 21.4433 5.46941 20.9763 5.57771 20.0932C5.67271 19.3286 5.84562 18.5735 6.00142 17.8184C6.06792 17.4964 6.05652 17.2554 5.69361 16.9955C5.1844 16.6302 5.3687 16.005 6.01662 15.828C6.35483 15.7357 6.73484 15.7188 7.09965 15.7169C8.34039 15.7075 9.58492 15.7338 10.8238 15.7094C11.0689 15.7037 11.3235 15.5606 11.5287 15.4326C11.9486 15.167 12.3343 14.8601 12.7428 14.5814C12.8948 14.4778 13.0753 14.4044 13.2425 14.3178C13.2349 14.2763 13.2235 14.2312 13.2121 14.186Z" fill="black" fill-opacity="0.3"/>
<path d="M13.2121 13.9504C12.8872 13.9166 12.5622 13.8582 12.2354 13.8563C11.8934 13.8544 11.5495 13.877 11.2075 13.8921C10.533 13.9184 9.86037 13.9504 9.18585 13.9787C8.52653 14.0069 7.86342 14.0559 7.2041 14.0277C6.76899 14.0088 5.98236 13.9956 5.92346 13.4175C5.92346 13.5719 5.92346 13.7264 5.92346 13.8808C5.95006 13.0824 7.07869 13.0711 7.64301 12.9788C8.46383 12.8451 9.29226 12.7377 10.1226 12.6831C10.9491 12.6285 11.7794 12.6266 12.604 12.6944C13.3584 12.7566 14.1944 12.8997 14.867 13.2594C15.0969 13.3836 15.3154 13.5475 15.456 13.7697C15.513 13.8601 15.5567 13.958 15.5833 14.0597C15.5871 14.0766 15.6004 14.2009 15.608 14.2047C15.5738 14.1896 15.6498 13.877 15.5947 14.0408C15.5833 14.0747 15.5795 14.1143 15.5719 14.1482C15.4009 14.8072 14.81 15.2102 14.3388 15.6584C14.0633 15.9201 13.7745 16.1668 13.4933 16.4229C13.233 16.6621 13.0031 16.9728 12.6934 17.1536C12.4121 17.3174 12.0948 17.355 11.7737 17.3494C11.3557 17.3437 10.9377 17.3343 10.5197 17.3249C10.039 17.3155 9.56016 17.3042 9.07945 17.2873C8.84764 17.2797 8.61394 17.2665 8.38213 17.2609C8.26243 17.2571 8.10282 17.2477 7.99832 17.3212C7.83491 17.436 7.88812 17.7373 7.88812 17.9049C7.89002 18.2665 7.87672 18.6261 7.86722 18.9896C7.86532 19.0291 7.85772 19.4509 7.86722 19.4528C8.64814 19.5168 9.42906 19.5884 10.2081 19.6599C10.9966 19.7334 11.8136 19.756 12.5774 19.9876C12.8758 20.078 13.1703 20.1985 13.4002 20.415C13.4857 20.4941 13.5598 20.5845 13.6168 20.6862C13.6434 20.7333 13.6662 20.7822 13.6833 20.8331C13.6928 20.8632 13.6947 20.9084 13.7118 20.9348C13.7213 20.995 13.7232 20.9687 13.7175 20.8557C13.7251 20.7427 13.7232 20.7182 13.7137 20.7785C13.6624 20.8651 13.6548 20.9819 13.5978 21.0722C13.5332 21.1739 13.4439 21.2605 13.3432 21.3265C13.1209 21.4733 12.8473 21.5261 12.585 21.5336C12.2164 21.5449 11.8459 21.4696 11.483 21.4244C11.084 21.3735 10.6831 21.3246 10.2841 21.2775C9.48036 21.1815 8.65764 21.0308 7.84822 21.012C7.263 20.9969 6.63598 21.2248 6.08497 20.9367C5.89876 20.8387 5.74676 20.6862 5.66125 20.496C5.64605 20.464 5.59285 20.2079 5.58145 20.2041C5.59855 20.2098 5.54915 20.658 5.58335 20.3303C5.58905 20.2851 5.59475 20.238 5.60045 20.1928C5.61565 20.0855 5.63085 19.9801 5.64795 19.8727C5.71826 19.4302 5.80946 18.9914 5.90066 18.5546C5.96336 18.2533 6.03746 17.9633 6.03936 17.6545C6.04126 17.4115 6.06977 17.1592 5.90826 16.954C5.71636 16.711 5.43325 16.615 5.40475 16.2704C5.40475 16.4041 5.40665 16.5378 5.40665 16.6715C5.40665 16.6564 5.40665 16.6395 5.40665 16.6244C5.40665 16.647 5.40475 16.6696 5.40475 16.6941C5.46745 16.0614 6.26167 15.9842 6.76138 15.9597C7.55561 15.922 8.35553 15.9522 9.14975 15.954C9.55256 15.9559 9.95727 15.9559 10.3601 15.9503C10.7477 15.9465 11.0593 15.9409 11.4013 15.7431C11.7224 15.5586 12.0188 15.3326 12.3171 15.1161C12.6173 14.8995 12.9119 14.7169 13.2444 14.5493C13.2748 14.5342 13.2558 14.1237 13.2444 14.0785C13.2349 14.0408 13.2235 13.9956 13.2121 13.9504C13.2482 14.0973 13.176 14.2725 13.2121 14.4212C13.2235 14.4664 13.2349 14.5097 13.2463 14.5549C13.2463 14.3986 13.2463 14.2404 13.2463 14.0841C12.7333 14.344 12.2943 14.6792 11.8231 15.005C11.6236 15.1424 11.4184 15.2874 11.1942 15.3835C10.9282 15.4983 10.647 15.4795 10.362 15.4833C9.15165 15.4965 7.92992 15.4287 6.71958 15.4946C6.30157 15.5172 5.74296 15.5605 5.49405 15.9522C5.35725 16.1706 5.37625 16.5227 5.40475 16.7694C5.42565 16.9427 5.51305 17.0839 5.64415 17.1969C5.72586 17.2665 5.81326 17.323 5.88356 17.4059C5.95196 17.4869 5.96336 17.6017 6.02226 17.6752C5.93676 17.5678 6.05457 17.3701 6.00896 17.5584C5.99186 17.6281 5.98046 17.6996 5.96526 17.7693C5.93676 17.9049 5.90826 18.0405 5.87976 18.178C5.81326 18.4962 5.74866 18.8125 5.69166 19.1327C5.61565 19.5564 5.56245 19.9669 5.56625 20.3962C5.56815 20.7088 5.60995 21.012 5.84366 21.2436C6.09067 21.4884 6.45548 21.5656 6.79369 21.5618C7.05589 21.56 7.3124 21.5035 7.57461 21.4903C7.87862 21.4752 8.17882 21.511 8.48093 21.5449C9.68177 21.6767 10.8807 21.8255 12.0796 21.9761C12.8283 22.0703 13.7232 21.914 13.7308 21.0044C13.7346 20.6071 13.7308 20.2682 13.4249 19.9688C13.0335 19.5846 12.4045 19.4321 11.8763 19.3605C10.552 19.1779 9.20295 19.0969 7.87102 18.9877C7.87102 19.1421 7.87102 19.2965 7.87102 19.4509C7.88622 18.9745 7.91092 18.5018 7.90712 18.0254C7.90712 17.9501 7.90522 17.8729 7.90332 17.7976C7.89192 17.517 7.97932 17.8597 7.89952 17.9878C7.91282 17.9652 7.90522 17.9313 7.91852 17.9087C8.00022 17.775 8.10092 17.743 8.26053 17.7373C8.85524 17.7128 9.46326 17.7787 10.0599 17.7919C10.6489 17.8051 11.2379 17.8239 11.825 17.8258C12.3095 17.8277 12.7105 17.6884 13.0487 17.3362C13.4268 16.9408 13.8505 16.5943 14.2514 16.2196C14.6105 15.8844 15.0285 15.5718 15.3173 15.1707C15.5301 14.875 15.6156 14.5474 15.6194 14.1915C15.6213 13.8902 15.6346 13.5927 15.4731 13.3234C15.2679 12.9825 14.8917 12.7735 14.5269 12.6379C13.4173 12.2255 12.2126 12.1559 11.0403 12.1766C9.87177 12.1954 8.70894 12.3329 7.55751 12.525C7.2744 12.572 6.99129 12.621 6.71008 12.6737C6.46498 12.7189 6.28067 12.7905 6.11537 12.9844C5.89876 13.2386 5.89686 13.5663 5.92726 13.8864C5.97666 14.4382 6.69868 14.4721 7.1186 14.4947C7.79121 14.5323 8.46953 14.4815 9.14215 14.4532C9.83187 14.425 10.5216 14.3911 11.2113 14.3647C11.5533 14.3515 11.8972 14.3271 12.2392 14.3289C12.566 14.3308 12.891 14.3911 13.2159 14.4231C13.1988 14.4212 13.2311 13.9542 13.2121 13.9504Z" fill="black" fill-opacity="0.3"/>
<path d="M27.7305 3.21849C27.5101 4.95845 26.9477 6.72101 24.871 7.80566C24.7531 7.86781 24.6429 8.06365 24.6619 8.18228C24.8102 9.12382 25.0439 10.0578 25.1446 11.0031C25.2643 12.116 25.2757 13.2383 25.3327 14.3569C25.365 15.0047 25.0021 15.4585 24.4073 15.5187C23.8126 15.579 23.3414 15.2212 23.216 14.564C23.14 14.1686 23.1153 13.7637 23.0906 13.3607C23.0241 12.2874 22.9766 11.2121 22.912 10.1388C22.8759 9.53809 22.7315 8.97129 22.3382 8.44403C21.9411 7.91112 22.1539 7.19367 22.7353 6.79822C22.8569 6.71536 22.9899 6.63816 23.1324 6.59108C24.9774 5.98473 25.6139 4.66658 25.8438 3.12057C25.9616 2.33156 24.9774 1.70262 24.0159 1.96436C23.2426 2.17527 22.6669 2.58955 22.3952 3.2957C22.3173 3.49907 22.0209 3.8079 21.8784 3.78718C21.6086 3.74952 21.2722 3.5518 21.1525 3.34089C20.8637 2.82681 20.9796 2.28825 21.3084 1.79865C22.5339 -0.024164 25.2168 -0.300976 26.8983 1.21678C27.4949 1.75346 27.7495 2.31273 27.7305 3.21849Z" fill="black" fill-opacity="0.3"/>
<path d="M27.7302 2.98338C27.5554 4.34673 27.1412 5.69124 26.1265 6.67609C25.851 6.94349 25.5432 7.17699 25.2145 7.3766C25.0606 7.46887 24.8554 7.53666 24.749 7.68542C24.6673 7.79841 24.6597 7.91139 24.6597 8.04321C24.6559 8.89247 24.9219 9.73797 25.0549 10.5759C25.2183 11.5928 25.2525 12.6247 25.2924 13.6529C25.3019 13.9015 25.3114 14.15 25.3247 14.3986C25.3266 14.4588 25.3247 14.5248 25.3342 14.585C25.2867 14.2461 25.3437 14.3628 25.3152 14.4494C25.2848 14.5455 25.2696 14.6415 25.2259 14.7338C25.0929 15.0125 24.8364 15.2045 24.5343 15.2667C24.2246 15.3307 23.8902 15.2742 23.6394 15.0765C23.3525 14.8486 23.246 14.5078 23.1909 14.1594C23.0332 13.1595 23.0389 12.1201 22.9838 11.1107C22.9382 10.2445 22.98 9.30863 22.5449 8.52527C22.448 8.35203 22.3093 8.1995 22.2276 8.01684C22.1934 7.9434 22.1877 7.8549 22.1554 7.78334C22.1041 7.67224 22.106 8.00743 22.1554 7.89444C22.1744 7.84925 22.1763 7.79276 22.1915 7.74568C22.3036 7.38978 22.5772 7.11673 22.8983 6.93596C23.2384 6.74388 23.6299 6.65726 23.9719 6.46142C24.2569 6.29948 24.521 6.09987 24.749 5.86449C25.1936 5.40878 25.4843 4.83444 25.661 4.22998C25.8092 3.71966 25.9669 3.07377 25.8301 2.54274C25.6458 1.82717 24.7414 1.56543 24.0916 1.71042C23.4076 1.86295 22.7691 2.2697 22.4632 2.90994C22.3568 3.13403 22.1839 3.54454 21.8818 3.55207C21.7146 3.55772 21.5018 3.42967 21.3745 3.33363C21.2054 3.20935 21.1066 3.04364 21.0458 2.84592C21.0306 2.79696 21.0268 2.74423 21.0097 2.69715C20.9717 2.59359 20.9679 2.81955 21.0154 2.72163C21.0515 2.64631 21.0572 2.54463 21.0876 2.46365C21.1674 2.25275 21.2871 2.05879 21.4239 1.87802C21.6215 1.61439 21.859 1.38088 22.125 1.18316C22.6589 0.787715 23.3049 0.548565 23.9681 0.486423C25.2772 0.360257 26.8619 0.960958 27.4851 2.17743C27.5535 2.31112 27.6067 2.45235 27.6447 2.59735C27.6656 2.68021 27.6827 2.76306 27.696 2.84592C27.7036 2.90053 27.7264 3.30539 27.7302 3.04741C27.7283 3.15851 27.7264 3.26961 27.7302 3.38071C27.7321 3.4485 27.7321 3.4711 27.734 3.38071C27.7416 2.79131 27.7492 2.18684 27.4566 1.65393C27.1545 1.10596 26.611 0.678497 26.0562 0.401685C24.9694 -0.140641 23.6337 -0.138758 22.5601 0.437463C22.0072 0.734989 21.5094 1.18693 21.2054 1.73867C21.0496 2.02301 20.9926 2.30736 20.9907 2.62748C20.9888 2.92877 20.9812 3.22253 21.118 3.50123C21.2377 3.74603 21.6158 4.05862 21.9141 4.02096C22.1839 3.98706 22.353 3.61798 22.448 3.40896C22.7216 2.81202 23.265 2.43352 23.8826 2.23768C24.502 2.04184 25.2848 2.13976 25.6838 2.70657C25.7636 2.82144 25.7978 2.9363 25.8396 3.06624C25.8985 3.25266 25.8814 2.71787 25.8301 2.97208C25.813 3.06059 25.7997 3.15098 25.7826 3.23948C25.7275 3.51818 25.6553 3.7931 25.5584 4.0605C25.3627 4.60094 25.0625 5.09808 24.6407 5.4954C24.4127 5.70819 24.1562 5.88897 23.8807 6.03773C23.5634 6.20909 23.2042 6.29006 22.8926 6.46519C22.6076 6.62525 22.3606 6.85687 22.2295 7.16004C22.1212 7.40861 22.1326 7.66659 22.1326 7.9321C22.1345 8.2108 22.1763 8.4443 22.3378 8.68157C22.5677 9.01676 22.7387 9.36324 22.828 9.76245C22.9249 10.2012 22.9287 10.6569 22.9534 11.1051C22.9781 11.5646 23.0028 12.0259 23.0275 12.4854C23.0522 12.9392 23.075 13.3949 23.1073 13.8487C23.1339 14.2272 23.1472 14.6321 23.2669 14.9955C23.4551 15.5699 24.027 15.89 24.6198 15.7149C25.2411 15.5322 25.338 14.9522 25.338 14.3948C25.3361 13.5474 25.2829 12.6925 25.2316 11.8451C25.1803 10.9752 25.0682 10.1221 24.9048 9.26721C24.8212 8.82845 24.673 8.35391 24.6616 7.90574C24.6616 8.06015 24.6616 8.21457 24.6616 8.36898C24.7148 8.07145 24.9827 7.9886 25.2145 7.84548C25.4539 7.6986 25.6838 7.53478 25.8966 7.354C26.2899 7.01881 26.6243 6.62337 26.8884 6.18084C27.3844 5.35041 27.6067 4.40134 27.7302 3.45227C27.7492 3.29786 27.7093 3.13591 27.7302 2.98338Z" fill="black" fill-opacity="0.3"/>
<path d="M30.9417 9.44793C31.3863 7.78894 31.8062 6.12618 32.2832 4.47661C32.5929 3.40325 32.9634 2.3412 33.351 1.28856C33.5961 0.620068 34.0312 0.341373 34.4758 0.46189C34.9033 0.57864 35.0952 0.985385 34.947 1.67082C34.0464 5.83807 33.0223 9.97707 31.6029 14.0276C31.5763 14.1029 31.544 14.1763 31.5079 14.246C31.2438 14.745 30.7137 14.9804 30.195 14.8316C29.6953 14.6885 29.3989 14.246 29.4863 13.7131C29.5604 13.2574 29.6991 12.9147 29.7333 12.8506C29.9784 12.4006 30.3489 11.4176 30.9417 9.44793Z" fill="black" fill-opacity="0.3"/>
<path d="M30.9415 9.68338C31.5819 7.29376 32.1614 4.88718 32.9803 2.55029C33.1988 1.92699 33.5541 0.305661 34.5706 0.72747C34.7112 0.785846 34.8234 0.885649 34.8956 1.01935C34.9317 1.08714 34.9564 1.16246 34.9735 1.23778C35.0229 1.46564 34.9678 1.20389 34.9849 1.20765C34.9925 1.20954 34.9488 1.42609 34.9469 1.43362C34.8271 2.02679 34.6884 2.61619 34.5554 3.2056C34.0215 5.56509 33.4344 7.91517 32.7485 10.237C32.4046 11.4007 32.0417 12.5607 31.6351 13.7056C31.4755 14.1557 31.1809 14.5455 30.6774 14.6265C30.2689 14.6924 29.8224 14.5172 29.6058 14.1576C29.5469 14.0596 29.5241 13.9617 29.4899 13.8563C29.4215 13.6491 29.4462 14.1256 29.4823 13.9806C29.5051 13.8902 29.5127 13.796 29.5336 13.7037C29.5792 13.5079 29.6324 13.3064 29.716 13.1219C29.811 12.9129 29.9136 12.7114 29.9991 12.4986C30.3696 11.5815 30.6565 10.6287 30.9415 9.68338C30.9852 9.53838 30.8978 9.35572 30.9415 9.21261C30.6641 10.1334 30.3848 11.0561 30.0314 11.9525C29.8034 12.5306 29.4823 13.0635 29.4709 13.7056C29.4652 14.0709 29.4405 14.4494 29.6913 14.747C29.9896 15.1029 30.5292 15.2046 30.9491 15.0162C31.4869 14.7771 31.6256 14.2065 31.7985 13.7019C32.0094 13.0842 32.2108 12.4628 32.4046 11.8395C33.1798 9.35384 33.8296 6.8324 34.4148 4.2959C34.5649 3.64812 34.7093 2.99846 34.8519 2.3488C34.9507 1.89498 35.0115 1.47693 34.9982 1.0137C34.9868 0.657796 34.85 0.328258 34.4756 0.226572C34.0367 0.106055 33.6738 0.40923 33.4762 0.772664C33.3128 1.07396 33.2159 1.41668 33.1019 1.73868C32.9803 2.0814 32.8606 2.426 32.7447 2.77061C32.5129 3.4617 32.3039 4.16032 32.1063 4.8627C31.6997 6.30891 31.3292 7.76452 30.9415 9.21637C30.9016 9.35949 30.9795 9.5365 30.9415 9.68338Z" fill="black" fill-opacity="0.3"/>
<path d="M17.4529 9.68139C16.938 9.53827 16.3832 9.41587 15.8474 9.41776C14.1829 9.42341 12.5185 9.4912 10.854 9.53262C10.664 9.53827 10.474 9.53262 10.265 9.53262C10.4056 8.50635 9.9306 7.65708 9.45559 6.81535C9.10408 6.19205 9.16108 6.14121 9.6855 5.65537C10.3638 5.02831 11.0345 4.92097 11.9314 5.30135C12.7123 5.63278 13.5787 5.80225 14.0556 6.53665C14.162 6.70236 14.6104 6.82288 14.8517 6.7758C15.0968 6.72872 15.4256 6.46698 15.4598 6.26737C15.5168 5.93783 15.4845 5.51414 15.2793 5.25239C14.9866 4.88143 14.5458 4.55566 14.0879 4.3278C13.5787 4.07359 12.9802 3.94742 12.3437 3.74217C12.7104 3.43334 13.0619 3.16406 13.3773 2.86465C13.7117 2.5483 13.9055 2.17357 13.6775 1.74987C13.4571 1.33748 13.0087 1.2245 12.528 1.25839C11.6179 1.32242 10.7077 1.41092 9.8014 1.50696C9.22758 1.56722 8.65947 1.65949 8.07425 1.73858C8.12365 0.836582 7.79494 0.53529 6.81642 0.693468C5.12727 0.964631 3.45142 1.3017 1.77178 1.61618C1.59317 1.65007 1.41837 1.69903 1.24926 1.75929C0.840751 1.9024 0.569043 2.14909 0.618445 2.54453C0.669746 2.95693 1.00226 3.18666 1.46207 3.22432C1.78318 3.25068 2.11379 3.19231 2.4387 3.15841C2.623 3.13958 2.80161 3.09251 2.98401 3.05861C3.01441 3.10004 3.04481 3.14147 3.07521 3.18478C2.92131 3.29023 2.7655 3.3938 2.6154 3.50302C1.88958 4.02651 1.15616 4.54436 0.44364 5.08103C0.00662763 5.41246 -0.0978753 5.85498 0.145331 6.21841C0.403739 6.60444 0.81985 6.76074 1.31006 6.64022C1.61597 6.5649 1.92378 6.42178 2.16889 6.24666C2.82631 5.77589 3.45332 5.27122 4.08984 4.77974C4.30075 4.61591 4.50595 4.44832 4.72256 4.27508C5.34768 4.77598 5.92529 5.24298 6.52001 5.7194C5.99369 6.24854 5.33248 6.73061 5.97659 7.44994C6.3357 7.85104 6.77272 7.80396 7.77024 7.33884C8.07995 8.1109 8.39156 8.88485 8.71837 9.69645C8.47326 9.7247 8.23956 9.74541 8.00965 9.77931C6.2958 10.0298 4.58195 10.2802 2.87191 10.542C2.604 10.5834 2.28859 10.6286 2.10619 10.7717C1.87628 10.9506 1.60647 11.2519 1.64067 11.4703C1.67487 11.6887 2.02258 11.9279 2.29809 12.0484C2.5147 12.1426 2.83581 12.0917 3.10561 12.0691C7.74744 11.6831 12.3608 10.96 17.0596 11.2989C17.6106 11.3385 18.0191 11.041 18.1179 10.6436C18.2148 10.2425 17.9792 9.82827 17.4529 9.68139ZM8.26046 4.49351C8.10085 4.56507 7.80254 4.57637 7.66574 4.49351C7.05772 4.13008 6.48391 3.72334 5.79609 3.26387C6.1305 2.97764 6.47251 2.68388 6.84492 2.36376C7.31233 3.14335 7.51754 3.23939 8.46566 3.17348C8.81147 3.149 9.15348 3.10757 9.49739 3.07179C9.8147 3.0379 10.132 2.99835 10.4493 2.96257C10.4702 2.99647 10.4892 3.03036 10.5101 3.06426C10.0389 3.36555 9.56769 3.66873 9.09648 3.97002C8.81907 4.14891 8.56257 4.35793 8.26046 4.49351Z" fill="black" fill-opacity="0.3"/>
<path d="M17.4532 9.44585C16.8946 9.29143 16.334 9.18221 15.7526 9.18221C15.1408 9.1841 14.5271 9.1954 13.9153 9.21046C12.6992 9.24059 11.4832 9.30085 10.2672 9.29897C10.2672 9.45526 10.2672 9.61344 10.2672 9.76973C10.3242 9.30273 10.3261 8.78677 10.2254 8.32542C10.0962 7.7266 9.79597 7.18239 9.49766 6.65136C9.42925 6.52896 9.35515 6.40656 9.30005 6.27851C9.28295 6.24085 9.27345 6.19942 9.25635 6.16176C9.17845 5.98852 9.45966 6.13728 9.24305 6.42163C9.29055 6.35948 9.30955 6.27475 9.36275 6.21072C9.45015 6.10527 9.55656 6.013 9.65726 5.92073C10.0544 5.55353 10.5218 5.29178 11.0804 5.32191C11.6295 5.35204 12.152 5.62508 12.6593 5.81904C13.161 6.01112 13.6683 6.24273 13.9951 6.68714C14.2668 7.05622 14.814 7.12966 15.1845 6.8585C15.3669 6.72668 15.46 6.58545 15.479 6.36137C15.498 6.14858 15.4923 5.93014 15.4866 5.71547C15.4657 5.04886 14.9793 4.63082 14.4435 4.29375C13.8013 3.88889 13.0603 3.73636 12.3439 3.50851C12.3439 3.6648 12.3439 3.82298 12.3439 3.97928C12.6688 3.70623 13.0071 3.44637 13.3187 3.15826C13.5448 2.94735 13.7519 2.70632 13.7766 2.38619C13.8184 1.84387 13.7424 1.27518 13.1439 1.08311C12.7942 0.970122 12.4142 1.03038 12.057 1.05863C11.6181 1.09252 11.1792 1.13207 10.7403 1.17538C9.84727 1.262 8.96184 1.38063 8.07452 1.50303C8.07452 1.65744 8.07452 1.81186 8.07452 1.96627C8.09542 1.52751 8.19992 0.762983 7.72301 0.512534C7.4513 0.36942 7.10549 0.414614 6.81668 0.459808C6.26377 0.542663 5.71275 0.644349 5.16174 0.744152C4.06161 0.943758 2.96337 1.15655 1.86324 1.36557C1.47753 1.43712 0.949319 1.53128 0.711812 1.88341C0.561708 2.1075 0.595909 2.4521 0.61111 2.7082C0.63581 3.11683 0.934119 3.37104 1.32553 3.44072C1.61814 3.49344 1.92215 3.45202 2.21475 3.41812C2.36486 3.40117 2.51496 3.38422 2.66507 3.35786C2.72587 3.34656 2.78667 3.33338 2.84557 3.32208C2.98998 3.29195 2.98808 3.30514 3.07358 3.42C3.07358 3.26371 3.07358 3.10553 3.07358 2.94923C2.29646 3.48214 1.53074 4.03577 0.774514 4.59693C0.459105 4.83043 0.0771947 5.06769 0.0220932 5.49139C-0.00640758 5.70417 -0.0102077 5.95839 0.0277934 6.16929C0.086695 6.50072 0.383103 6.78129 0.700412 6.87545C1.06902 6.98278 1.46613 6.86038 1.79864 6.70032C2.20715 6.50448 2.56626 6.19566 2.92347 5.92073C3.29018 5.64015 3.65309 5.35392 4.0179 5.06958C4.12431 4.98672 4.22881 4.90575 4.33331 4.82101C4.42452 4.74945 4.54232 4.61011 4.64872 4.5668C4.76462 4.51972 4.64492 4.49336 4.79123 4.5668C4.85583 4.59881 4.91473 4.66472 4.96983 4.70991C5.07433 4.79465 5.18074 4.87939 5.28524 4.96413C5.69565 5.29366 6.10796 5.62508 6.51837 5.95462C6.51837 5.79833 6.51837 5.64015 6.51837 5.48385C6.13456 5.86612 5.71085 6.19566 5.70705 6.77376C5.70515 6.99785 5.68805 7.21817 5.79255 7.4253C5.89516 7.62868 6.07566 7.83205 6.29417 7.91302C6.49557 7.98646 6.71788 7.95633 6.92118 7.90361C7.05039 7.86971 7.17769 7.82452 7.30309 7.77556C7.4038 7.73601 7.5045 7.6927 7.6033 7.64939C7.6299 7.63621 7.65841 7.62491 7.68501 7.61173C7.75721 7.54394 7.79521 7.559 7.80281 7.65504C7.85221 7.71153 7.87311 7.83017 7.90351 7.90361C7.94721 8.01471 7.99281 8.12581 8.03652 8.23503C8.10302 8.40262 8.17142 8.56833 8.23792 8.73593C8.39753 9.13325 8.55713 9.53058 8.71673 9.9298C8.71673 9.7735 8.71673 9.61532 8.71673 9.45903C6.72548 9.68123 4.73612 10.0032 2.75817 10.3196C2.33256 10.3874 2.00195 10.5305 1.75114 10.8958C1.60104 11.1143 1.61434 11.3873 1.63334 11.6415C1.65614 11.9503 2.02855 12.1763 2.29456 12.2799C2.66887 12.4249 3.17618 12.2949 3.56379 12.261C7.5254 11.9127 11.4851 11.3534 15.4733 11.4551C16.0262 11.4683 16.5792 11.5285 17.1321 11.5342C17.514 11.5379 17.9073 11.3666 18.0707 11.0069C18.179 10.7678 18.1581 10.4476 18.1391 10.1934C18.1087 9.80363 17.8104 9.55695 17.4532 9.44585C17.495 9.45903 17.4057 9.90155 17.4532 9.91661C17.6698 9.9844 17.8693 10.0917 18.0023 10.2782C18.0574 10.3573 18.0802 10.4382 18.1163 10.5248C18.1828 10.6849 17.989 10.6134 18.1277 10.3497C18.0992 10.4024 18.0954 10.4778 18.0707 10.5343C17.8655 10.9918 17.3715 11.0804 16.9174 11.0483C15.6025 10.9598 14.2858 10.9523 12.9691 10.9975C10.3774 11.0879 7.80091 11.3798 5.22254 11.6321C4.49102 11.7037 3.7595 11.7677 3.02798 11.8336C2.72587 11.8618 2.44846 11.892 2.17295 11.747C1.96395 11.6377 1.64664 11.4494 1.63524 11.1839C1.63524 11.3383 1.63524 11.4927 1.63524 11.6472C1.70934 11.1143 2.29456 10.8619 2.75817 10.7885C3.41749 10.683 4.07681 10.5889 4.73802 10.491C6.06236 10.2932 7.3867 10.0767 8.71673 9.92791C8.72053 9.92791 8.73194 9.49292 8.71673 9.45714C8.51153 8.94871 8.30822 8.4384 8.10302 7.92997C8.05362 7.80569 8.00231 7.6814 7.95291 7.55524C7.90731 7.44037 7.87501 7.28031 7.80281 7.18239C7.73631 7.092 7.79711 7.11648 7.68501 7.13908C7.6185 7.15226 7.5482 7.20122 7.4874 7.22758C7.3829 7.27278 7.27649 7.31609 7.16819 7.35375C6.89838 7.44978 6.57727 7.54206 6.29607 7.43849C5.98256 7.32362 5.73935 6.97525 5.71085 6.65324C5.71085 6.77188 5.71275 6.88863 5.71275 7.00726C5.71275 6.98843 5.71275 6.9696 5.71275 6.95077C5.71275 6.99031 5.71085 7.02798 5.71085 7.06752C5.75645 6.59487 6.20486 6.26345 6.51837 5.95086C6.54307 5.92638 6.54117 5.49704 6.51837 5.48009C6.18776 5.21457 5.85716 4.94906 5.52845 4.68355C5.37834 4.56303 5.22824 4.44251 5.07623 4.32011C4.99263 4.25421 4.91093 4.18641 4.82733 4.12051C4.81593 4.11109 4.80263 4.10168 4.79123 4.09226C4.75512 4.02447 4.71902 4.01505 4.68292 4.06401C4.63922 4.07531 4.57652 4.14875 4.54042 4.17888C3.8792 4.71179 3.20848 5.23717 2.52826 5.74372C1.99435 6.14105 1.21533 6.69279 0.521807 6.33124C0.386903 6.26156 0.271 6.158 0.181698 6.03748C0.141797 5.98475 0.107596 5.92826 0.0790948 5.86988C0.0619943 5.83411 0.0543941 5.78891 0.0372936 5.75502C-0.0539089 5.57989 0.0771947 5.94332 0.0220932 5.93014C-0.0254081 5.91696 0.196898 5.54788 0.215899 5.52528C0.348902 5.36334 0.529407 5.2447 0.696612 5.12042C1.47753 4.54043 2.26796 3.96798 3.06978 3.41812C3.09448 3.40117 3.09068 2.97748 3.06978 2.94735C3.01278 2.87015 3.01088 2.84378 2.93297 2.8306C2.86837 2.8193 2.77337 2.8645 2.70687 2.87579C2.55676 2.90404 2.40666 2.92287 2.25656 2.93982C1.96965 2.97371 1.67704 3.01514 1.38823 2.97936C0.970219 2.92475 0.64341 2.67619 0.607309 2.24496C0.607309 2.32405 0.609209 2.40126 0.609209 2.48035C0.609209 2.46152 0.609209 2.4408 0.609209 2.42197C0.609209 2.50106 0.607309 2.57827 0.607309 2.65736C0.673811 1.91919 1.76634 1.8514 2.31736 1.74595C3.21798 1.57459 4.11861 1.39946 5.01923 1.23564C5.46194 1.15466 5.90656 1.07557 6.35117 1.00213C6.68368 0.945642 7.02949 0.864669 7.3677 0.891032C7.5634 0.906097 7.75911 0.962589 7.89021 1.11512C7.94911 1.18479 7.98901 1.26765 8.01752 1.35239C8.03652 1.40888 8.04792 1.46914 8.05742 1.52751C8.06502 1.57459 8.06882 1.62355 8.07262 1.67063C8.07642 1.42394 8.07642 1.36933 8.07072 1.5068C8.06882 1.54634 8.07832 1.96815 8.07072 1.97003C9.20885 1.81374 10.3432 1.67251 11.4889 1.57271C12.2299 1.5068 13.6759 1.20927 13.7728 2.32405C13.7728 2.19035 13.7709 2.05666 13.7709 1.92296C13.7709 1.94555 13.7709 1.96627 13.7709 1.98887C13.7709 1.96627 13.7728 1.94367 13.7728 1.91919C13.7367 2.26756 13.5049 2.51236 13.2541 2.73833C12.9596 3.00384 12.6441 3.24864 12.3401 3.50474C12.3154 3.52546 12.3344 3.97363 12.3401 3.97551C12.9216 4.16193 13.5334 4.2881 14.0844 4.56115C14.5499 4.79277 15.1598 5.1675 15.3783 5.66086C15.403 5.71547 15.4448 5.99228 15.4695 6.00547C15.3935 5.96404 15.5322 5.67028 15.4619 5.99793C15.4524 6.04124 15.4448 6.07891 15.4258 6.12033C15.3308 6.31429 15.0838 6.48565 14.8767 6.53461C14.6867 6.5798 14.4663 6.53461 14.2896 6.46305C14.073 6.37455 13.9894 6.18812 13.8336 6.02806C13.4783 5.66275 12.9938 5.47256 12.5244 5.29743C12.0456 5.11854 11.5649 4.86809 11.0443 4.84926C10.5465 4.83231 10.1095 5.04886 9.74276 5.37087C9.58886 5.50645 9.38365 5.66463 9.28295 5.84729C9.21455 5.97345 9.22975 6.11845 9.22975 6.2578C9.22975 6.43292 9.22785 6.58545 9.29815 6.74928C9.41595 7.02609 9.58696 7.28031 9.72946 7.54582C9.87957 7.8264 10.0164 8.11451 10.119 8.41769C10.1703 8.56645 10.2121 8.72086 10.2406 8.87527C10.2558 8.95436 10.2672 9.03157 10.2767 9.11066C10.29 9.33286 10.2938 9.31403 10.29 9.05417C10.2862 9.13514 10.2786 9.21799 10.2672 9.29897C10.2615 9.34416 10.2653 9.76973 10.2672 9.76973C11.4832 9.77162 12.6992 9.71136 13.9153 9.68311C14.5271 9.66805 15.1408 9.65675 15.7526 9.65487C16.334 9.65298 16.8946 9.76409 17.4532 9.9185C17.4171 9.90532 17.4988 9.45714 17.4532 9.44585Z" fill="black" fill-opacity="0.3"/>
<path d="M8.26035 4.25803C7.80244 4.43127 7.46233 4.14128 7.09562 3.90213C6.6586 3.61778 6.22919 3.32026 5.79598 3.03026C5.79598 3.18656 5.79598 3.34474 5.79598 3.50103C6.00879 3.31837 6.22349 3.13383 6.4363 2.95117C6.5446 2.8589 6.6529 2.73462 6.77451 2.66118C6.88091 2.59527 6.84671 2.60845 6.91321 2.71391C6.93411 2.7478 6.95691 2.7817 6.97781 2.81559C7.14312 3.06604 7.33502 3.30331 7.63903 3.38428C8.02284 3.48597 8.46555 3.41629 8.85317 3.37863C9.14007 3.35039 9.42698 3.31837 9.71389 3.28636C9.85829 3.26941 10.0027 3.25247 10.1471 3.23552C10.2136 3.22799 10.2972 3.20162 10.3637 3.21104C10.4644 3.22234 10.4511 3.20162 10.51 3.30331C10.51 3.14701 10.51 2.98884 10.51 2.83254C10.1167 3.08487 9.72529 3.33532 9.33198 3.58765C8.97857 3.81174 8.64036 4.07914 8.26035 4.25803C8.19575 4.28816 8.31925 4.70055 8.26035 4.7288C8.64036 4.54991 8.97857 4.28251 9.33198 4.05466C9.72529 3.80232 10.1167 3.55188 10.51 3.29954C10.5366 3.2826 10.5309 2.86267 10.51 2.82877C10.4663 2.75533 10.4758 2.74969 10.4074 2.73274C10.3485 2.71767 10.2535 2.74969 10.1908 2.75722C10.0464 2.77417 9.90199 2.79111 9.75759 2.80806C9.47068 2.84007 9.18378 2.87209 8.89687 2.90221C8.49786 2.94176 8.03614 3.01896 7.64093 2.91351C7.34642 2.83442 7.15832 2.61034 6.99491 2.3693C6.96641 2.32788 6.93981 2.28645 6.91321 2.24314C6.90181 2.22431 6.89041 2.20736 6.87901 2.18853C6.86571 2.12262 6.84101 2.11321 6.81061 2.16028C6.71941 2.181 6.5427 2.39002 6.4705 2.45216C6.24629 2.64423 6.02209 2.83819 5.79598 3.03026C5.77318 3.04909 5.77698 3.48785 5.79598 3.50103C6.22919 3.79103 6.6586 4.08855 7.09562 4.3729C7.46233 4.61205 7.80054 4.90204 8.26035 4.7288C8.31545 4.70808 8.21095 4.27686 8.26035 4.25803Z" fill="black" fill-opacity="0.3"/>
<path d="M29.0622 18.9069C29.7012 18.9069 30.2193 18.3934 30.2193 17.7601C30.2193 17.1267 29.7012 16.6133 29.0622 16.6133C28.4231 16.6133 27.905 17.1267 27.905 17.7601C27.905 18.3934 28.4231 18.9069 29.0622 18.9069Z" fill="black" fill-opacity="0.3" stroke="black" stroke-opacity="0.3" stroke-width="0.5" stroke-miterlimit="10"/>
<path d="M25.5188 18.9069C26.1579 18.9069 26.676 18.3934 26.676 17.7601C26.676 17.1267 26.1579 16.6133 25.5188 16.6133C24.8798 16.6133 24.3617 17.1267 24.3617 17.7601C24.3617 18.3934 24.8798 18.9069 25.5188 18.9069Z" fill="black" fill-opacity="0.3" stroke="black" stroke-opacity="0.3" stroke-width="0.5" stroke-miterlimit="10"/>
</svg>
