<svg width="55" height="55" viewBox="0 0 55 55" fill="none" xmlns="http://www.w3.org/2000/svg">
<path fill-rule="evenodd" clip-rule="evenodd" d="M24.5643 3.73212C27.829 1.635 32.3786 0.668964 36.1485 1.10123C38.1908 1.33541 40.7019 2.31782 42.9009 3.45567C45.1135 4.60059 47.3391 6.07389 48.7492 7.51288C50.272 9.06677 51.4414 11.481 52.2597 13.7258C53.0988 16.0273 53.6888 18.4884 53.8996 20.3865C54.3421 24.3699 53.2927 27.8542 51.3179 31.0723C50.078 33.093 48.1081 34.2759 46.3166 35.0721C45.1094 35.6086 43.7254 36.068 42.5411 36.4611C42.0293 36.631 41.5547 36.7885 41.1478 36.9345C37.9825 38.0705 34.0475 38.203 30.6959 37.3562L28.5782 39.52C28.1559 39.9515 27.583 40.1939 26.9858 40.1939H23.4144L20.2295 43.4481V47.097C20.2295 47.7072 19.9922 48.2925 19.5699 48.724L15.0657 53.3261C14.6434 53.7576 14.0705 54 13.4732 54H4.4649C3.30686 54 2.33759 53.1027 2.22372 51.9252L1.00107 40.1939C0.921182 39.3678 5.33851 37.8334 6.00339 37.3562L19.7893 24.3681C19.3045 22.9534 18.7337 21.2164 18.3031 19.4802C17.992 18.2262 17.7357 16.9047 17.6387 15.6398C17.5438 14.4021 17.5868 13.049 18.0069 11.822C19.3039 8.0339 21.4213 5.75103 24.5643 3.73212ZM35.6462 5.67455C32.8268 5.35127 29.3103 6.1194 26.9616 7.62813C24.4911 9.21508 23.1509 10.735 22.2584 13.3416C22.1312 13.7133 22.0573 14.3431 22.1291 15.2805C22.1989 16.1907 22.393 17.2364 22.6692 18.3496C23.1422 20.2562 23.8023 22.1616 24.3382 23.7086C24.4323 23.9802 24.5226 24.2407 24.6074 24.4883C24.9401 25.4601 24.6005 26.5393 23.776 27.131L6.00339 41.6016L6.50543 49.398H12.5404L15.7253 46.1439V42.495C15.7253 41.8847 15.9626 41.2994 16.3849 40.8679L20.8891 36.2659C21.3115 35.8343 21.8843 35.5919 22.4816 35.5919H26.0529L28.4561 33.1365C29.0671 32.5123 29.9736 32.3002 30.7895 32.5906C33.4441 33.5356 37.0139 33.5404 39.6552 32.5926C40.2751 32.3701 40.865 32.1752 41.4362 31.9864C42.5047 31.6333 43.5079 31.3018 44.5199 30.8521C46.0103 30.1897 46.9806 29.477 47.5018 28.6278C49.0492 26.106 49.7295 23.6537 49.4242 20.9055C49.2612 19.4379 48.772 17.3433 48.0389 15.3321C47.285 13.2643 46.3893 11.6089 45.5663 10.769C44.6307 9.8143 42.8733 8.59996 40.8659 7.56122C38.8448 6.5154 36.8985 5.81814 35.6462 5.67455Z" fill="#42E532" stroke="black" stroke-width="1.4" stroke-linecap="round" stroke-linejoin="round"/>
<path d="M37.804 15.1016C37.804 17.2799 36.251 18.9016 34.5032 18.9016C32.7554 18.9016 31.2024 17.2799 31.2024 15.1016C31.2024 12.9232 32.7554 11.3016 34.5032 11.3016C36.251 11.3016 37.804 12.9232 37.804 15.1016Z" fill="#42E532" stroke="black" stroke-width="1.4"/>
</svg>
