<svg width="92" height="57" viewBox="0 0 92 57" fill="none" xmlns="http://www.w3.org/2000/svg">
<path d="M34.7304 36.4866C33.7964 36.3995 32.8525 36.2202 31.9285 36.2445C28.2176 36.3607 24.5167 36.5593 20.8059 36.6804C19.6472 36.7191 18.4535 36.6997 17.3048 36.5302C16.251 36.3752 15.3869 35.6826 15.5967 34.8108C15.7415 34.2054 16.4857 33.4014 17.1549 33.2803C22.534 32.2874 27.9879 31.5609 33.6166 32.0888C35.025 32.2196 36.4535 32.5538 37.8019 32.98C40.6488 33.8809 41.7326 35.6294 40.5938 37.867C40.0195 38.9907 38.7709 39.8625 37.772 40.8069C36.6083 41.9064 35.3047 42.9041 34.2159 44.052C33.3869 44.9287 32.358 45.258 31.0744 45.2338C28.0628 45.1757 25.0512 45.1321 22.0345 45.0062C21.0206 44.9626 20.691 45.1902 20.7459 46.0426C20.8159 47.1324 20.711 48.2222 20.681 49.433C21.3453 49.4863 21.8897 49.525 22.4341 49.5735C25.2859 49.8302 28.1427 50.0675 30.9945 50.3629C31.7986 50.4453 32.6127 50.6584 33.3819 50.9006C35.3846 51.5254 36.4085 52.8767 35.989 54.257C35.5894 55.589 34.0561 56.1944 31.9884 55.9377C28.4324 55.4921 24.8763 55.0707 21.3153 54.6929C20.4663 54.6009 19.5772 54.6493 18.7432 54.7704C16.0761 55.1531 14.378 53.9519 14.6627 51.6803C14.9124 49.7139 15.3669 47.7717 15.7765 45.8295C15.9513 45.0013 15.9213 44.3814 14.9674 43.713C13.6289 42.7734 14.1133 41.1653 15.8164 40.7101C16.7054 40.4727 17.7043 40.4292 18.6633 40.4243C21.9246 40.4001 25.196 40.4679 28.4524 40.4049C29.0966 40.3904 29.7659 40.0223 30.3053 39.693C31.4091 39.01 32.4229 38.2206 33.4967 37.5038C33.8963 37.2374 34.3708 37.0485 34.8103 36.8257C34.7903 36.7191 34.7603 36.6029 34.7304 36.4866Z" fill="#69D743"/>
<path d="M34.7297 35.8814C33.8756 35.7942 33.0216 35.6441 32.1625 35.6392C31.2635 35.6344 30.3595 35.6925 29.4605 35.7312C27.6875 35.799 25.9195 35.8814 24.1465 35.954C22.4134 36.0267 20.6703 36.1526 18.9373 36.08C17.7935 36.0315 15.7258 35.9976 15.571 34.5107C15.571 34.9079 15.571 35.305 15.571 35.7022C15.6409 33.6486 18.6076 33.6195 20.091 33.3822C22.2486 33.0383 24.4262 32.7622 26.6087 32.6218C28.7813 32.4813 30.9639 32.4765 33.1315 32.6508C35.1143 32.8107 37.3118 33.1788 39.0798 34.1039C39.6842 34.4235 40.2585 34.8449 40.6281 35.4164C40.7779 35.6489 40.8928 35.9008 40.9627 36.1623C40.9727 36.2059 41.0077 36.5256 41.0277 36.5352C40.9378 36.4965 41.1375 35.6925 40.9927 36.1139C40.9627 36.201 40.9527 36.3028 40.9328 36.3899C40.4833 38.0851 38.93 39.1216 37.6914 40.2743C36.9672 40.9476 36.208 41.582 35.4689 42.2407C34.7846 42.8559 34.1803 43.655 33.3662 44.12C32.627 44.5414 31.793 44.6382 30.9489 44.6237C29.8501 44.6092 28.7513 44.5849 27.6526 44.5607C26.389 44.5365 25.1304 44.5075 23.8668 44.4639C23.2575 44.4445 22.6431 44.4106 22.0338 44.3961C21.7192 44.3864 21.2996 44.3622 21.0249 44.551C20.5954 44.8465 20.7353 45.6214 20.7353 46.0525C20.7403 46.9824 20.7053 47.9075 20.6803 48.8423C20.6753 48.944 20.6554 50.0289 20.6803 50.0338C22.733 50.1984 24.7858 50.3825 26.8335 50.5665C28.9062 50.7554 31.0538 50.8135 33.0615 51.4093C33.8457 51.6418 34.6198 51.9517 35.2241 52.5087C35.4489 52.7122 35.6437 52.9446 35.7935 53.2062C35.8634 53.3273 35.9234 53.4532 35.9683 53.584C35.9933 53.6615 35.9983 53.7777 36.0432 53.8455C36.0682 54.0005 36.0732 53.9327 36.0582 53.6421C36.0782 53.3515 36.0732 53.2885 36.0482 53.4435C35.9134 53.6663 35.8934 53.9666 35.7436 54.1991C35.5737 54.4606 35.339 54.6834 35.0743 54.8529C34.4899 55.2307 33.7707 55.3663 33.0815 55.3857C32.1126 55.4148 31.1387 55.221 30.1847 55.1048C29.1359 54.974 28.0821 54.8481 27.0333 54.727C24.9206 54.48 22.758 54.0925 20.6304 54.0441C19.0921 54.0053 17.4439 54.5914 15.9955 53.8504C15.5061 53.5985 15.1065 53.2062 14.8818 52.717C14.8418 52.6347 14.702 51.976 14.672 51.9663C14.717 51.9808 14.5871 53.1335 14.677 52.2908C14.692 52.1745 14.707 52.0535 14.722 51.9372C14.7619 51.6611 14.8019 51.3899 14.8468 51.1138C15.0316 49.9756 15.2714 48.8471 15.5111 47.7235C15.6759 46.9485 15.8707 46.2026 15.8757 45.4083C15.8807 44.7835 15.9556 44.1345 15.5311 43.6066C15.0266 42.9818 14.2825 42.7348 14.2075 41.8484C14.2075 42.1923 14.2125 42.5362 14.2125 42.8801C14.2125 42.8413 14.2125 42.7977 14.2125 42.759C14.2125 42.8171 14.2075 42.8752 14.2075 42.9382C14.3724 41.3108 16.46 41.1122 17.7736 41.0493C19.8612 40.9524 21.9639 41.0299 24.0516 41.0347C25.1104 41.0396 26.1742 41.0396 27.233 41.0251C28.2519 41.0154 29.071 41.0008 29.97 40.4923C30.814 40.0176 31.5932 39.4364 32.3773 38.8794C33.1664 38.3224 33.9406 37.8526 34.8146 37.4216C34.8945 37.3828 34.8446 36.327 34.8146 36.2107C34.7896 36.1139 34.7596 35.9976 34.7297 35.8814C34.8246 36.2592 34.6348 36.7096 34.7297 37.0922C34.7596 37.2085 34.7896 37.3199 34.8196 37.4361C34.8196 37.0341 34.8196 36.6273 34.8196 36.2253C33.4711 36.8936 32.3174 37.7558 31.0787 38.5937C30.5543 38.9472 30.0149 39.3202 29.4256 39.5672C28.7264 39.8626 27.9872 39.8142 27.238 39.8239C24.0566 39.8578 20.8451 39.6834 17.6637 39.853C16.5649 39.9111 15.0965 40.0225 14.4423 41.0299C14.0827 41.5917 14.1326 42.4974 14.2075 43.1319C14.2625 43.5775 14.4922 43.9408 14.8368 44.2314C15.0516 44.4106 15.2813 44.5559 15.4661 44.769C15.6459 44.9773 15.6759 45.2727 15.8307 45.4616C15.606 45.1855 15.9156 44.677 15.7958 45.1613C15.7508 45.3405 15.7209 45.5246 15.6809 45.7038C15.606 46.0525 15.5311 46.4012 15.4561 46.7548C15.2813 47.5733 15.1115 48.387 14.9617 49.2104C14.7619 50.3001 14.6221 51.356 14.6321 52.4603C14.6371 53.2643 14.7469 54.0441 15.3613 54.6398C16.0105 55.2695 16.9695 55.468 17.8585 55.4584C18.5477 55.4535 19.222 55.3082 19.9112 55.2743C20.7103 55.2356 21.4994 55.3276 22.2935 55.4148C25.45 55.7538 28.6015 56.1364 31.753 56.5239C33.7208 56.7661 36.0732 56.3641 36.0932 54.0247C36.1032 53.0028 36.0932 52.1309 35.2891 51.3608C34.2602 50.3728 32.607 49.9805 31.2186 49.7964C27.7375 49.3266 24.1914 49.1184 20.6903 48.8374C20.6903 49.2346 20.6903 49.6318 20.6903 50.0289C20.7303 48.8035 20.7952 47.5878 20.7852 46.3625C20.7852 46.1687 20.7802 45.9702 20.7752 45.7764C20.7453 45.0548 20.975 45.9363 20.7652 46.2656C20.8002 46.2075 20.7802 46.1203 20.8152 46.0622C21.0299 45.7183 21.2946 45.636 21.7142 45.6214C23.2774 45.5585 24.8757 45.728 26.4439 45.7619C27.9922 45.7958 29.5405 45.8442 31.0837 45.8491C32.3573 45.8539 33.4111 45.4955 34.3002 44.5898C35.294 43.5727 36.4078 42.6815 37.4616 41.7177C38.4056 40.8555 39.5044 40.0515 40.2635 39.0199C40.8229 38.2595 41.0476 37.4167 41.0576 36.5013C41.0626 35.7264 41.0976 34.9611 40.6731 34.2685C40.1337 33.3919 39.1448 32.8543 38.1858 32.5055C35.2691 31.4448 32.1026 31.2656 29.021 31.3189C25.9495 31.3673 22.8929 31.7209 19.8662 32.2149C19.1221 32.336 18.3779 32.4619 17.6387 32.5976C16.9944 32.7138 16.51 32.8979 16.0755 33.3967C15.5061 34.0506 15.5011 34.8933 15.581 35.7167C15.7109 37.1358 17.6088 37.223 18.7125 37.2811C20.4806 37.378 22.2636 37.2472 24.0316 37.1746C25.8446 37.1019 27.6576 37.0147 29.4705 36.9469C30.3695 36.913 31.2735 36.8501 32.1725 36.8549C33.0316 36.8597 33.8856 37.0147 34.7397 37.0971C34.6947 37.0922 34.7796 35.8911 34.7297 35.8814Z" fill="black"/>
<path d="M72.8913 8.27885C72.312 12.7541 70.8336 17.2876 65.3747 20.0773C65.0651 20.2372 64.7754 20.7409 64.8253 21.046C65.2149 23.4677 65.8292 25.87 66.0939 28.3014C66.4086 31.1639 66.4385 34.0505 66.5884 36.9275C66.6733 38.5936 65.7193 39.7609 64.1561 39.9159C62.5928 40.0709 61.3542 39.1506 61.0246 37.4603C60.8248 36.4432 60.7598 35.4018 60.6949 34.3653C60.5201 31.6046 60.3953 28.839 60.2254 26.0783C60.1305 24.5333 59.751 23.0754 58.7171 21.7193C57.6733 20.3486 58.2327 18.5032 59.761 17.4861C60.0806 17.273 60.4302 17.0744 60.8048 16.9534C65.6544 15.3938 67.3275 12.0034 67.9319 8.027C68.2415 5.99762 65.6544 4.37992 63.1272 5.05316C61.0945 5.59562 59.5812 6.66116 58.867 8.47743C58.6622 9.00052 57.8831 9.79483 57.5085 9.74156C56.7993 9.64469 55.9152 9.13613 55.6006 8.59367C54.8414 7.27143 55.1461 5.88622 56.0101 4.62694C59.2315 -0.0614628 66.2837 -0.773441 70.7038 3.13033C72.272 4.5107 72.9413 5.94918 72.8913 8.27885Z" fill="#69D743"/>
<path d="M72.8914 7.67344C72.4319 11.1801 71.3431 14.6382 68.6761 17.1713C67.9519 17.8591 67.1428 18.4597 66.2788 18.9731C65.8742 19.2104 65.3348 19.3848 65.0551 19.7674C64.8404 20.058 64.8204 20.3486 64.8204 20.6876C64.8104 22.872 65.5096 25.0467 65.8592 27.202C66.2888 29.8174 66.3787 32.4716 66.4836 35.1161C66.5085 35.7554 66.5335 36.3947 66.5685 37.0341C66.5735 37.1891 66.5685 37.3586 66.5934 37.5136C66.4686 36.6418 66.6184 36.942 66.5435 37.1648C66.4636 37.4119 66.4236 37.6589 66.3087 37.8962C65.9591 38.613 65.2849 39.107 64.4908 39.2669C63.6767 39.4315 62.7977 39.2862 62.1384 38.7777C61.3842 38.1916 61.1045 37.315 60.9597 36.419C60.5452 33.8471 60.5601 31.1736 60.4153 28.5775C60.2954 26.3496 60.4053 23.9424 59.2616 21.9275C59.0069 21.4819 58.6423 21.0896 58.4275 20.6198C58.3376 20.4309 58.3226 20.2033 58.2377 20.0192C58.1029 19.7335 58.1079 20.5956 58.2377 20.305C58.2877 20.1888 58.2927 20.0435 58.3326 19.9224C58.6273 19.007 59.3465 18.3047 60.1906 17.8397C61.0846 17.3457 62.1134 17.1229 63.0124 16.6192C63.7616 16.2027 64.4558 15.6893 65.0551 15.0838C66.2238 13.9117 66.988 12.4345 67.4525 10.8798C67.842 9.56721 68.2566 7.90593 67.897 6.54009C67.4125 4.6996 65.0352 4.02637 63.3271 4.39931C61.5291 4.79163 59.8509 5.8378 59.0468 7.48455C58.7671 8.06092 58.3127 9.11677 57.5185 9.13615C57.079 9.15068 56.5197 8.82133 56.185 8.57432C55.7405 8.25465 55.4808 7.82843 55.321 7.31988C55.281 7.19395 55.271 7.05833 55.2261 6.93725C55.1262 6.67086 55.1162 7.25207 55.2411 7.00021C55.336 6.80648 55.351 6.54494 55.4309 6.33667C55.6406 5.79421 55.9553 5.29534 56.3149 4.83038C56.8343 4.1523 57.4586 3.55172 58.1578 3.04316C59.5613 2.02605 61.2594 1.41094 63.0024 1.25111C66.4436 0.926604 70.609 2.47164 72.2471 5.60047C72.4269 5.94435 72.5668 6.30761 72.6667 6.68055C72.7216 6.89366 72.7665 7.10677 72.8015 7.31988C72.8215 7.46034 72.8814 8.50166 72.8914 7.83812C72.8864 8.12388 72.8814 8.40964 72.8914 8.6954C72.8964 8.86976 72.8964 8.92788 72.9014 8.6954C72.9214 7.17942 72.9414 5.62469 72.1722 4.25401C71.3781 2.84459 69.9497 1.74514 68.4913 1.03316C65.6345 -0.361738 62.1234 -0.356894 59.3016 1.12518C57.8482 1.89044 56.5396 3.05285 55.7405 4.47196C55.331 5.20332 55.1811 5.93467 55.1761 6.75804C55.1712 7.53299 55.1512 8.28856 55.5108 9.00538C55.8254 9.63502 56.8193 10.439 57.6034 10.3422C58.3127 10.255 58.7572 9.30567 59.0069 8.76805C59.7261 7.2327 61.1545 6.25917 62.7777 5.75546C64.4059 5.25175 66.4636 5.50361 67.5124 6.96147C67.7222 7.25691 67.8121 7.55236 67.922 7.88655C68.0768 8.36605 68.0318 6.99053 67.897 7.64438C67.852 7.87202 67.8171 8.10451 67.7721 8.33215C67.6273 9.04897 67.4375 9.7561 67.1828 10.4439C66.6683 11.8339 65.8792 13.1126 64.7705 14.1345C64.1711 14.6818 63.4969 15.1468 62.7727 15.5294C61.9386 15.9702 60.9947 16.1784 60.1756 16.6289C59.4264 17.0406 58.7771 17.6363 58.4325 18.4161C58.1478 19.0554 58.1778 19.719 58.1778 20.4019C58.1828 21.1187 58.2927 21.7193 58.7172 22.3295C59.3215 23.1917 59.771 24.0828 60.0058 25.1096C60.2605 26.2382 60.2705 27.4103 60.3354 28.563C60.4003 29.7448 60.4653 30.9314 60.5302 32.1132C60.5951 33.2804 60.655 34.4525 60.74 35.6198C60.8099 36.5933 60.8448 37.6346 61.1595 38.5694C61.6539 40.0467 63.1573 40.87 64.7155 40.4196C66.3487 39.9498 66.6034 38.458 66.6034 37.0244C66.5984 34.8449 66.4586 32.646 66.3237 30.4664C66.1889 28.2288 65.8942 26.0347 65.4647 23.8358C65.2449 22.7073 64.8554 21.4868 64.8254 20.3341C64.8254 20.7312 64.8254 21.1284 64.8254 21.5255C64.9652 20.7603 65.6695 20.5472 66.2788 20.1791C66.9081 19.8013 67.5124 19.3799 68.0718 18.9149C69.1056 18.0528 69.9846 17.0357 70.6789 15.8975C71.9824 13.7616 72.5668 11.3205 72.8914 8.87945C72.9414 8.48229 72.8365 8.06576 72.8914 7.67344Z" fill="black"/>
<path d="M81.3319 24.3011C82.5006 20.0341 83.6044 15.7573 84.858 11.5145C85.6721 8.7538 86.646 6.02213 87.6648 3.31468C88.3091 1.59528 89.4528 0.878454 90.6215 1.18843C91.7453 1.48872 92.2497 2.53489 91.8602 4.29789C89.4928 15.0163 86.8008 25.6621 83.07 36.0802C83 36.2739 82.9151 36.4628 82.8202 36.642C82.126 37.9255 80.7326 38.531 79.3691 38.1483C78.0555 37.7802 77.2764 36.642 77.5062 35.2714C77.7009 34.0993 78.0655 33.2178 78.1554 33.0531C78.7997 31.8955 79.7736 29.3673 81.3319 24.3011Z" fill="#69D743"/>
<path d="M81.332 24.9063C83.0151 18.76 84.5384 12.5702 86.691 6.55951C87.2654 4.95635 88.1994 0.786193 90.8714 1.87111C91.241 2.02126 91.5357 2.27796 91.7254 2.62184C91.8203 2.7962 91.8853 2.98993 91.9302 3.18367C92.0601 3.76972 91.9152 3.09649 91.9602 3.10618C91.9801 3.11102 91.8653 3.66801 91.8603 3.68738C91.5456 5.21305 91.181 6.72903 90.8314 8.24501C89.428 14.3138 87.8847 20.3583 86.0817 26.3302C85.1777 29.3234 84.2238 32.307 83.155 35.2517C82.7355 36.4093 81.9613 37.4119 80.6378 37.6202C79.564 37.7897 78.3903 37.3392 77.8209 36.4142C77.6661 36.1623 77.6062 35.9104 77.5163 35.6392C77.3365 35.1064 77.4014 36.3318 77.4963 35.9589C77.5562 35.7264 77.5762 35.4842 77.6311 35.2469C77.751 34.7432 77.8908 34.225 78.1106 33.7503C78.3603 33.2127 78.63 32.6944 78.8548 32.1471C79.8287 29.7884 80.5828 27.3376 81.332 24.9063C81.4469 24.5333 81.2171 24.0635 81.332 23.6954C80.6028 26.0638 79.8686 28.4371 78.9397 30.7426C78.3403 32.2295 77.4963 33.6002 77.4663 35.2517C77.4513 36.1914 77.3864 37.1649 78.0457 37.9301C78.8298 38.8455 80.2482 39.1071 81.352 38.6227C82.7654 38.0076 83.13 36.5401 83.5845 35.2421C84.1389 33.6534 84.6683 32.0551 85.1777 30.4519C87.2155 24.0587 88.9236 17.5734 90.4618 11.0493C90.8564 9.38321 91.236 7.71224 91.6106 6.04127C91.8703 4.87401 92.0301 3.79878 91.9951 2.60731C91.9652 1.69191 91.6056 0.844314 90.6217 0.582771C89.468 0.272794 88.514 1.05258 87.9946 1.98735C87.5651 2.7623 87.3104 3.64379 87.0107 4.47201C86.691 5.35351 86.3764 6.23985 86.0717 7.12619C85.4624 8.90371 84.913 10.7006 84.3936 12.5072C83.3248 16.2269 82.3509 19.9709 81.332 23.7051C81.2271 24.0732 81.4319 24.5285 81.332 24.9063Z" fill="black"/>
<path d="M45.8774 24.9014C44.5239 24.5333 43.0656 24.2185 41.6571 24.2233C37.282 24.2379 32.9069 24.4122 28.5318 24.5188C28.0323 24.5333 27.5329 24.5188 26.9835 24.5188C27.3531 21.8791 26.1045 19.6948 24.8559 17.5298C23.9319 15.9266 24.0817 15.7958 25.4602 14.5463C27.2432 12.9334 29.0062 12.6573 31.3636 13.6357C33.4163 14.4881 35.6938 14.924 36.9474 16.813C37.2271 17.2392 38.4058 17.5492 39.04 17.4281C39.6843 17.307 40.5484 16.6338 40.6383 16.1204C40.7881 15.2728 40.7032 14.183 40.1638 13.5098C39.3947 12.5556 38.2359 11.7177 37.0323 11.1317C35.6938 10.4778 34.1205 10.1533 32.4474 9.62537C33.4113 8.83106 34.3353 8.13845 35.1644 7.36835C36.0434 6.55466 36.5528 5.59083 35.9535 4.50107C35.3741 3.44037 34.1954 3.14976 32.9319 3.23694C30.5395 3.40162 28.1472 3.62926 25.7648 3.87627C24.2565 4.03126 22.7632 4.26859 21.2249 4.47201C21.3548 2.15202 20.4907 1.37708 17.9186 1.78393C13.4785 2.48138 9.07343 3.34834 4.65835 4.15719C4.18887 4.24437 3.72939 4.3703 3.28488 4.52529C2.21108 4.89338 1.49687 5.52787 1.62673 6.54498C1.76158 7.60568 2.6356 8.19657 3.84426 8.29344C4.68832 8.36125 5.55735 8.2111 6.4114 8.12392C6.89586 8.07549 7.36534 7.9544 7.8448 7.86722C7.92471 7.97378 8.00462 8.08033 8.08453 8.19173C7.67999 8.46296 7.27044 8.72935 6.87588 9.01026C4.96801 10.3567 3.04015 11.6887 1.16724 13.069C0.0185198 13.9215 -0.256174 15.0597 0.383114 15.9944C1.06236 16.9873 2.15614 17.3893 3.4447 17.0793C4.24881 16.8856 5.05791 16.5175 5.70219 16.0671C7.43026 14.8562 9.07843 13.5582 10.7516 12.2941C11.3059 11.8727 11.8453 11.4416 12.4147 10.9961C14.0579 12.2844 15.5762 13.4856 17.1394 14.7109C15.756 16.0719 14.0179 17.3118 15.711 19.162C16.655 20.1936 17.8037 20.0726 20.4258 18.8762C21.2399 20.862 22.059 22.8527 22.918 24.9402C22.2737 25.0128 21.6594 25.0661 21.0551 25.1533C16.5501 25.7974 12.0451 26.4416 7.55013 27.1148C6.84591 27.2214 6.01684 27.3376 5.53737 27.7057C4.93304 28.1659 4.22383 28.9408 4.31373 29.5026C4.40363 30.0645 5.31762 30.6796 6.04181 30.9896C6.61118 31.2317 7.45524 31.101 8.16445 31.0428C20.3659 30.0499 32.4923 28.1901 44.8436 29.0619C46.292 29.1636 47.3658 28.3983 47.6255 27.3764C47.8802 26.3447 47.2609 25.2792 45.8774 24.9014ZM21.7144 11.5579C21.2948 11.7419 20.5107 11.771 20.1511 11.5579C18.5529 10.6231 17.0446 9.57694 15.2366 8.39515C16.1156 7.65896 17.0146 6.90339 17.9935 6.08001C19.2221 8.08518 19.7615 8.33219 22.2538 8.16267C23.1627 8.09971 24.0617 7.99315 24.9657 7.90113C25.7998 7.81395 26.6339 7.71223 27.4679 7.62021C27.5229 7.70739 27.5728 7.79457 27.6278 7.88175C26.3891 8.6567 25.1505 9.43648 23.9119 10.2114C23.1827 10.6715 22.5085 11.2092 21.7144 11.5579Z" fill="#69D743"/>
<path d="M45.877 24.2959C44.4087 23.8987 42.9353 23.6178 41.407 23.6178C39.7988 23.6226 38.1856 23.6517 36.5774 23.6905C33.381 23.768 30.1845 23.9229 26.9881 23.9181C26.9881 24.3201 26.9881 24.7269 26.9881 25.1289C27.1379 23.9278 27.1429 22.6007 26.8782 21.4141C26.5386 19.8739 25.7495 18.4741 24.9653 17.1083C24.7855 16.7935 24.5908 16.4787 24.4459 16.1493C24.401 16.0524 24.376 15.9459 24.331 15.849C24.1263 15.4034 24.8654 15.786 24.2961 16.5174C24.4209 16.3576 24.4709 16.1396 24.6107 15.9749C24.8405 15.7037 25.1202 15.4664 25.3849 15.2291C26.4287 14.2846 27.6573 13.6114 29.1257 13.6889C30.5691 13.7664 31.9426 14.4686 33.2761 14.9675C34.5946 15.4615 35.9281 16.0573 36.7872 17.2003C37.5014 18.1496 38.9398 18.3385 39.9137 17.6411C40.3931 17.302 40.6379 16.9388 40.6878 16.3624C40.7378 15.8151 40.7228 15.2533 40.7078 14.7011C40.6529 12.9866 39.3743 11.9113 37.9659 11.0444C36.2777 10.003 34.3299 9.61073 32.447 9.02468C32.447 9.42668 32.447 9.83352 32.447 10.2355C33.301 9.53323 34.1901 8.86484 35.0091 8.1238C35.6035 7.58135 36.1479 6.96139 36.2128 6.13802C36.3227 4.74312 36.1229 3.28042 34.5497 2.78639C33.6307 2.49579 32.6318 2.65078 31.6928 2.72343C30.5391 2.81061 29.3854 2.91232 28.2317 3.02372C25.8843 3.24651 23.5569 3.55165 21.2245 3.86647C21.2245 4.26362 21.2245 4.66078 21.2245 5.05794C21.2794 3.92943 21.5541 1.96301 20.3005 1.31884C19.5863 0.950746 18.6773 1.06699 17.9182 1.18323C16.4648 1.39634 15.0164 1.65788 13.568 1.91458C10.6762 2.42798 7.78946 2.97528 4.89768 3.5129C3.88381 3.69695 2.49536 3.93912 1.87105 4.84483C1.47649 5.42119 1.56639 6.30753 1.60635 6.96623C1.67128 8.01725 2.4554 8.67111 3.48426 8.85031C4.2534 8.98593 5.05251 8.87937 5.82165 8.79219C6.21621 8.7486 6.61078 8.70501 7.00534 8.6372C7.16516 8.60814 7.32498 8.57424 7.47981 8.54518C7.85939 8.46769 7.85439 8.50159 8.07914 8.79704C8.07914 8.39503 8.07914 7.98819 8.07914 7.58619C6.03642 8.95687 4.02366 10.3808 2.03587 11.8242C1.20679 12.4247 0.202912 13.035 0.0580737 14.1248C-0.0168428 14.6721 -0.0268317 15.3259 0.073057 15.8684C0.227885 16.7208 1.00702 17.4425 1.84109 17.6847C2.81001 17.9607 3.85385 17.6459 4.72787 17.2342C5.80168 16.7305 6.74563 15.9362 7.68458 15.2291C8.64851 14.5074 9.60244 13.7712 10.5614 13.0398C10.8411 12.8267 11.1158 12.6185 11.3905 12.4005C11.6302 12.2165 11.9398 11.8581 12.2195 11.7467C12.5242 11.6256 12.2095 11.5578 12.5941 11.7467C12.7639 11.829 12.9187 11.9985 13.0636 12.1148C13.3383 12.3327 13.618 12.5507 13.8927 12.7686C14.9715 13.6162 16.0553 14.4686 17.1341 15.3162C17.1341 14.9142 17.1341 14.5074 17.1341 14.1054C16.1252 15.0886 15.0114 15.9362 15.0014 17.4231C14.9964 17.9995 14.9515 18.5662 15.2262 19.0989C15.4959 19.622 15.9704 20.1451 16.5447 20.3534C17.0741 20.5423 17.6585 20.4648 18.1929 20.3291C18.5325 20.242 18.8671 20.1257 19.1968 19.9998C19.4615 19.8981 19.7262 19.7867 19.9859 19.6753C20.0558 19.6414 20.1307 19.6123 20.2006 19.5784C20.3904 19.4041 20.4903 19.4428 20.5103 19.6898C20.6402 19.8351 20.6951 20.1403 20.775 20.3291C20.8899 20.6149 21.0097 20.9007 21.1246 21.1816C21.2994 21.6126 21.4792 22.0389 21.654 22.4699C22.0736 23.4919 22.4931 24.5138 22.9126 25.5406C22.9126 25.1386 22.9126 24.7318 22.9126 24.3298C17.6784 24.9013 12.4493 25.7295 7.25006 26.5432C6.13131 26.7176 5.26228 27.0857 4.60301 28.0253C4.20845 28.5871 4.24341 29.2894 4.29336 29.9433C4.35329 30.7376 5.3322 31.3188 6.03142 31.5852C7.01533 31.9581 8.34884 31.6239 9.36771 31.5367C19.7811 30.6407 30.1895 29.2022 40.6728 29.4638C42.1262 29.4977 43.5796 29.6527 45.033 29.6672C46.0369 29.6769 47.0707 29.2361 47.5002 28.311C47.7849 27.6959 47.73 26.8726 47.68 26.2187C47.6001 25.2161 46.816 24.5816 45.877 24.2959C45.9869 24.3298 45.7522 25.468 45.877 25.5067C46.4464 25.6811 46.9708 25.9572 47.3204 26.4367C47.4653 26.6401 47.5252 26.8483 47.6201 27.0711C47.7949 27.4828 47.2855 27.2988 47.6501 26.6207C47.5751 26.7563 47.5652 26.9501 47.5002 27.0954C46.9608 28.2723 45.6623 28.4999 44.4686 28.4176C41.0125 28.19 37.5513 28.1706 34.0902 28.2868C27.2778 28.5193 20.5053 29.27 13.7278 29.9191C11.805 30.1031 9.88213 30.2678 7.95927 30.4373C7.16516 30.5099 6.43597 30.5874 5.71178 30.2145C5.16239 29.9336 4.32832 29.4492 4.29835 28.7663C4.29835 29.1635 4.29835 29.5606 4.29835 29.9578C4.49313 28.5871 6.03142 27.9381 7.25006 27.7492C8.98313 27.478 10.7162 27.2358 12.4543 26.984C15.9354 26.4754 19.4165 25.9184 22.9126 25.5358C22.9226 25.5358 22.9526 24.417 22.9126 24.3249C22.3732 23.0172 21.8388 21.7047 21.2994 20.397C21.1696 20.0773 21.0347 19.7576 20.9049 19.4331C20.785 19.1377 20.7001 18.726 20.5103 18.4741C20.3355 18.2416 20.4953 18.3046 20.2006 18.3627C20.0258 18.3966 19.841 18.5226 19.6812 18.5904C19.4065 18.7066 19.1268 18.818 18.8422 18.9149C18.1329 19.1619 17.2889 19.3992 16.5497 19.1328C15.7256 18.8374 15.0863 17.9414 15.0114 17.1131C15.0114 17.4183 15.0164 17.7186 15.0164 18.0237C15.0164 17.9753 15.0164 17.9268 15.0164 17.8784C15.0164 17.9801 15.0114 18.077 15.0114 18.1787C15.1313 16.963 16.31 16.1106 17.1341 15.3066C17.199 15.2436 17.194 14.1393 17.1341 14.0957C16.265 13.4128 15.396 12.7299 14.532 12.047C14.1374 11.737 13.7428 11.427 13.3433 11.1122C13.1235 10.9427 12.9088 10.7683 12.689 10.5988C12.659 10.5746 12.6241 10.5503 12.5941 10.5261C12.4992 10.3518 12.4043 10.3275 12.3094 10.4535C12.1946 10.4825 12.0297 10.6714 11.9348 10.7489C10.1968 12.1196 8.43375 13.4709 6.64574 14.7738C5.2423 15.7957 3.19458 17.2148 1.37161 16.2849C1.01701 16.1057 0.712345 15.8393 0.477606 15.5293C0.372723 15.3937 0.282823 15.2484 0.207907 15.0983C0.162957 15.0063 0.142979 14.89 0.0980292 14.8028C-0.141704 14.3524 0.202912 15.2872 0.0580737 15.2533C-0.0667872 15.2194 0.517562 14.2701 0.567506 14.2119C0.917117 13.7954 1.39159 13.4903 1.8311 13.1706C3.88381 11.6789 5.9615 10.2065 8.06915 8.79219C8.13408 8.7486 8.12409 7.65884 8.06915 7.58135C7.91932 7.38277 7.91432 7.31496 7.70955 7.28106C7.53974 7.252 7.29002 7.36824 7.11521 7.3973C6.72065 7.46995 6.32609 7.51838 5.93153 7.56197C5.17737 7.64915 4.40823 7.75571 3.64907 7.66368C2.5503 7.52322 1.69125 6.8839 1.59636 5.77476C1.59636 5.97818 1.60135 6.17676 1.60135 6.38018C1.60135 6.33175 1.60135 6.27847 1.60135 6.23004C1.60135 6.43346 1.59636 6.63204 1.59636 6.83546C1.77117 4.93686 4.64297 4.76249 6.09135 4.49126C8.45872 4.05051 10.8261 3.60008 13.1934 3.1787C14.3571 2.97044 15.5258 2.76702 16.6945 2.57812C17.5686 2.43282 18.4776 2.22456 19.3666 2.29236C19.881 2.33111 20.3954 2.47641 20.74 2.86873C20.8949 3.04793 20.9998 3.26104 21.0747 3.47899C21.1246 3.6243 21.1546 3.77929 21.1795 3.92943C21.1995 4.05051 21.2095 4.17644 21.2195 4.29753C21.2295 3.66304 21.2295 3.52259 21.2145 3.87615C21.2095 3.97786 21.2345 5.06278 21.2145 5.06763C24.2062 4.66563 27.1879 4.30237 30.1995 4.04567C32.1473 3.87615 35.9481 3.1109 36.2028 5.97818C36.2028 5.6343 36.1978 5.29042 36.1978 4.94654C36.1978 5.00466 36.1978 5.05794 36.1978 5.11606C36.1978 5.05794 36.2028 4.99982 36.2028 4.93685C36.1079 5.83288 35.4986 6.46252 34.8393 7.04373C34.0652 7.72665 33.2361 8.35629 32.437 9.01499C32.3721 9.06827 32.422 10.221 32.437 10.2258C33.9653 10.7053 35.5735 11.0298 37.0219 11.7321C38.2455 12.3279 39.8488 13.2917 40.4231 14.5607C40.488 14.7011 40.5979 15.4131 40.6628 15.447C40.4631 15.3405 40.8277 14.5849 40.6429 15.4276C40.6179 15.539 40.5979 15.6359 40.548 15.7425C40.2983 16.2413 39.649 16.6821 39.1046 16.808C38.6051 16.9242 38.0258 16.808 37.5613 16.624C36.9919 16.3963 36.7722 15.9168 36.3626 15.5051C35.4287 14.5655 34.1551 14.0763 32.9215 13.6259C31.6629 13.1658 30.3993 12.5216 29.0308 12.4732C27.7223 12.4296 26.5735 12.9866 25.6096 13.8148C25.2051 14.1635 24.6657 14.5704 24.401 15.0402C24.2212 15.3647 24.2611 15.7376 24.2611 16.096C24.2611 16.5465 24.2561 16.9388 24.4409 17.3601C24.7506 18.0721 25.2001 18.726 25.5747 19.4089C25.9692 20.1306 26.3288 20.8716 26.5985 21.6514C26.7334 22.034 26.8432 22.4312 26.9182 22.8283C26.9581 23.0318 26.9881 23.2303 27.0131 23.4338C27.048 24.0053 27.058 23.9568 27.048 23.2885C27.038 23.4967 27.018 23.7098 26.9881 23.9181C26.9731 24.0343 26.9831 25.1289 26.9881 25.1289C30.1845 25.1338 33.381 24.9788 36.5774 24.9061C38.1856 24.8674 39.7988 24.8383 41.407 24.8335C42.9353 24.8287 44.4087 25.1144 45.877 25.5116C45.7821 25.4777 45.9969 24.3249 45.877 24.2959Z" fill="black"/>
<path d="M21.7138 10.9522C20.5101 11.3978 19.6161 10.6519 18.6522 10.0368C17.5035 9.30542 16.3747 8.54016 15.236 7.79428C15.236 8.19628 15.236 8.60313 15.236 9.00513C15.7954 8.53532 16.3597 8.06067 16.9191 7.59086C17.2038 7.35353 17.4885 7.03387 17.8081 6.84498C18.0878 6.67546 17.9979 6.70936 18.1727 6.98059C18.2277 7.06777 18.2876 7.15495 18.3425 7.24213C18.777 7.88631 19.2815 8.49657 20.0806 8.70484C21.0895 8.96638 22.2532 8.78718 23.272 8.69031C24.0262 8.61766 24.7804 8.53532 25.5345 8.45298C25.9141 8.40939 26.2937 8.3658 26.6733 8.32221C26.8481 8.30284 27.0678 8.23503 27.2426 8.25925C27.5073 8.28831 27.4724 8.23503 27.6272 8.49657C27.6272 8.09457 27.6272 7.68773 27.6272 7.28572C26.5933 7.93474 25.5645 8.57891 24.5306 9.22792C23.6017 9.80429 22.7127 10.492 21.7138 10.9522C21.544 11.0297 21.8686 12.0904 21.7138 12.163C22.7127 11.7029 23.6017 11.0151 24.5306 10.4291C25.5645 9.78007 26.5933 9.1359 27.6272 8.48689C27.6971 8.44329 27.6821 7.36322 27.6272 7.27604C27.5123 7.08715 27.5373 7.07262 27.3575 7.02903C27.2027 6.99028 26.9529 7.07262 26.7881 7.09199C26.4085 7.13558 26.029 7.17917 25.6494 7.22276C24.8952 7.3051 24.1411 7.38744 23.3869 7.46493C22.3381 7.56664 21.1244 7.76522 20.0856 7.49399C19.3115 7.29057 18.817 6.71421 18.3875 6.09425C18.3126 5.9877 18.2426 5.88114 18.1727 5.76974C18.1428 5.72131 18.1128 5.67772 18.0828 5.62929C18.0479 5.45977 17.9829 5.43555 17.903 5.55663C17.6633 5.60991 17.1988 6.14753 17.009 6.30736C16.4197 6.80139 15.8303 7.30025 15.236 7.79428C15.1761 7.84271 15.186 8.97122 15.236 9.00513C16.3747 9.75101 17.5035 10.5163 18.6522 11.2476C19.6161 11.8627 20.5051 12.6086 21.7138 12.163C21.8586 12.1097 21.5839 11.0006 21.7138 10.9522Z" fill="black"/>
<path d="M76.3927 48.6292C78.0725 48.6292 79.4343 47.3086 79.4343 45.6796C79.4343 44.0506 78.0725 42.73 76.3927 42.73C74.7128 42.73 73.3511 44.0506 73.3511 45.6796C73.3511 47.3086 74.7128 48.6292 76.3927 48.6292Z" fill="#69D743" stroke="black" stroke-width="0.5" stroke-miterlimit="10"/>
<path d="M67.078 48.6292C68.7578 48.6292 70.1196 47.3086 70.1196 45.6796C70.1196 44.0506 68.7578 42.73 67.078 42.73C65.3982 42.73 64.0364 44.0506 64.0364 45.6796C64.0364 47.3086 65.3982 48.6292 67.078 48.6292Z" fill="#69D743" stroke="black" stroke-width="0.5" stroke-miterlimit="10"/>
</svg>
