<svg width="178" height="132" viewBox="0 0 178 132" fill="none" xmlns="http://www.w3.org/2000/svg">
<path d="M50.8748 58.6903C55.3131 58.3657 59.3351 57.889 63.3773 57.8281C69.6235 57.7368 75.8798 57.8281 82.126 58.0614C83.877 58.1673 85.5958 58.5793 87.2042 59.2787C88.3263 59.6232 89.2774 60.3769 89.8684 61.3901C90.4593 62.4032 90.6467 63.6013 90.3933 64.7462C90.1606 65.8901 89.5141 66.9083 88.5774 67.6063C87.6406 68.3042 86.4792 68.633 85.3151 68.5299C83.2026 68.5299 81.09 67.9111 78.9978 67.9922C68.8414 68.3879 58.7561 68.6719 48.6709 69.4834C38.2098 70.3152 27.7995 71.7252 17.3689 72.8613C15.8152 73.0518 14.2521 73.1568 12.6868 73.1758C10.2696 73.1758 8.18752 72.415 7.80158 69.7065C7.41564 66.9981 9.11175 65.649 11.3462 65.1824C18.3405 63.6202 25.3687 62.1798 32.4308 60.8611C36.1074 60.1713 39.8653 59.8467 43.6028 59.4004L38.6465 44.7526C36.0262 46.7814 32.8878 49.3681 29.8003 45.767C26.2659 41.7095 30.1761 38.7779 32.5222 35.6232L23.2393 26.9299C20.5072 29.4861 17.8869 32.0018 15.1751 34.4668C13.2401 36.2886 11.2058 38.0022 9.08129 39.5996C6.03437 41.8211 2.71324 41.5472 0.956182 39.1837C-0.800872 36.8201 -0.120397 33.777 2.86558 31.2613C7.14141 27.6704 11.3868 24.0389 15.6525 20.4175L15.2868 19.5756C14.2487 19.9093 13.1857 20.1603 12.1079 20.3262C10.0766 20.4885 7.81174 20.9247 5.91249 20.3262C5.19681 20.0071 4.56851 19.5207 4.08062 18.9081C3.59274 18.2955 3.2596 17.5746 3.10933 16.8063C3.00777 15.518 4.41951 14.0675 5.30311 12.7488C5.56718 12.3633 6.31875 12.2111 6.7961 12.0894L33.7207 6.00309C33.9056 5.97224 34.0921 5.95192 34.2793 5.94222C38.9715 5.54661 40.5051 7.12905 39.8957 12.1604C40.9114 12.059 41.927 11.9981 42.8411 11.8561C47.8482 11.1156 52.8553 10.3041 57.8725 9.62444C59.6956 9.36922 61.5391 9.29109 63.3773 9.39114C68.293 9.68531 70.3852 13.8342 67.3789 17.7294C65.5711 20.0726 63.1538 21.7362 60.4522 24.1302C62.0366 24.6475 62.6867 24.7997 63.296 25.0634C66.6375 26.5343 70.1516 27.7414 73.2493 29.6079C74.6143 30.414 75.7312 31.5793 76.4781 32.9765C77.225 34.3736 77.5732 35.9489 77.4845 37.5302C77.4134 39.63 76.4689 41.3342 74.3767 41.9529C72.2844 42.5717 70.8219 41.4255 69.5422 39.6909C68.4996 38.1084 67.1104 36.7833 65.4797 35.8159C61.9452 34.0712 58.1772 32.7727 54.5108 31.3323C54.3381 31.2613 54.074 31.1193 53.9928 31.1903C51.3826 33.1582 48.5287 34.9131 46.3349 37.2766C45.6239 38.0374 46.3349 40.5531 46.924 42.0138C49.138 47.2379 51.7889 52.32 50.8748 58.6903ZM33.7004 15.589L28.6222 21.4522C31.9839 24.0997 35.173 26.6661 38.4535 29.1311C38.7377 29.3098 39.0617 29.4154 39.3967 29.4384C39.7317 29.4615 40.0671 29.4012 40.3731 29.263C44.6286 26.1589 48.8029 22.9535 52.9975 19.7785L52.7233 19.1292C51.7787 19.2713 50.8443 19.4234 49.8998 19.535C46.8529 19.9205 43.9075 20.4277 40.8911 20.6103C37.0723 20.8537 35.9246 19.9712 33.7004 15.589Z" fill="#B3B3B3"/>
<path fill-rule="evenodd" clip-rule="evenodd" d="M48.7329 60.686L49.0566 58.4302C49.7942 53.2897 47.9907 49.1189 45.9601 44.4228C45.7194 43.8663 45.4756 43.3024 45.2324 42.7286L45.2261 42.7138L45.2201 42.6989C44.8944 41.8911 44.525 40.7721 44.3339 39.7059C44.2391 39.1769 44.1736 38.5835 44.2114 38.0118C44.2457 37.4916 44.3837 36.6784 44.989 36.0286C46.7422 34.1401 48.9436 32.5672 50.9536 31.1312C51.619 30.6557 52.2635 30.1953 52.8638 29.7433C53.4658 29.2712 54.1202 29.3307 54.2923 29.3503C54.5459 29.3793 54.7517 29.4504 54.8453 29.4844C54.9561 29.5247 55.0557 29.5683 55.1106 29.5925L55.1843 29.6251L55.2031 29.6334C56.081 29.9781 56.9798 30.32 57.8901 30.6662C60.6741 31.7252 63.5654 32.825 66.2937 34.1718L66.357 34.203L66.4178 34.2391C68.273 35.3397 69.8556 36.8439 71.048 38.6394C71.614 39.4005 72.0987 39.8585 72.53 40.092C72.891 40.2874 73.2774 40.3652 73.855 40.1944C74.505 40.0021 74.8981 39.6759 75.1558 39.2862C75.431 38.8701 75.6216 38.2712 75.6488 37.4682L75.6495 37.448L75.6506 37.4277C75.7204 36.1819 75.4462 34.9408 74.8578 33.8402C74.2693 32.7395 73.3895 31.8215 72.3142 31.1865L72.3073 31.1824L72.3003 31.1782C70.2186 29.9239 68.0001 29.0115 65.6395 28.0406C64.6389 27.6291 63.6128 27.2071 62.5608 26.7442C62.2726 26.6198 62.0151 26.5412 61.5245 26.3913C61.1509 26.2772 60.642 26.1218 59.8814 25.8734L56.8388 24.88L59.2331 22.7584C60.0254 22.0563 60.8613 21.3596 61.6303 20.7186C62.1443 20.2902 62.6284 19.8867 63.0496 19.5232C64.1826 18.5454 65.1311 17.6376 65.9239 16.6101C67.1041 15.0809 67.0863 13.8097 66.6977 13.0133C66.2963 12.1909 65.2408 11.3413 63.2722 11.2222C61.5543 11.1291 59.8314 11.2022 58.1276 11.4408L58.1235 11.4413L58.1194 11.4419C54.8589 11.8836 51.6177 12.3789 48.36 12.8768C46.6187 13.1429 44.8727 13.4097 43.1166 13.6695C42.425 13.7766 41.6438 13.845 40.9245 13.908C40.6285 13.934 40.343 13.959 40.0785 13.9854L37.7969 14.2133L38.0723 11.9402C38.372 9.46565 38.0166 8.57738 37.7207 8.25452C37.4569 7.96676 36.716 7.5774 34.4338 7.76981L34.4042 7.77231L34.3744 7.77385C34.2722 7.77915 34.1703 7.78948 34.0691 7.80481L7.22512 13.8729C7.17992 13.8843 7.13276 13.896 7.08984 13.9066C7.07558 13.9102 7.06179 13.9136 7.04869 13.9168C6.98412 13.9329 6.92526 13.9476 6.86798 13.9628C6.78227 13.9854 6.71192 14.0057 6.65384 14.0246C6.46742 14.2899 6.27276 14.5504 6.09576 14.7873C6.07896 14.8098 6.06231 14.8321 6.04584 14.8542C5.78744 15.2003 5.56414 15.5023 5.37426 15.7924C5.05713 16.2769 4.97254 16.5287 4.94944 16.6211C5.05559 17.0382 5.24924 17.4287 5.51825 17.7665C5.80125 18.1219 6.15993 18.4092 6.56768 18.6078C7.19107 18.7847 7.94522 18.8273 8.86596 18.7799C9.48068 18.7482 10.0128 18.6916 10.5838 18.6309C10.9863 18.5881 11.4082 18.5432 11.892 18.5036C12.8519 18.3525 13.7988 18.1272 14.7239 17.8297L16.3093 17.32L17.8791 20.9346L16.8422 21.8148C15.6 22.8694 14.3581 23.9261 13.1158 24.9831C10.0993 27.5496 7.08039 30.1182 4.04855 32.6644C2.76927 33.7426 2.12974 34.8124 1.91997 35.7005C1.72129 36.5418 1.87309 37.34 2.43102 38.0905C3.40808 39.4048 5.49681 39.9363 7.98768 38.1259C10.054 36.5716 12.0328 34.9046 13.915 33.1323L13.9267 33.1213L13.9387 33.1105C15.7668 31.4487 17.5444 29.772 19.3573 28.0619C20.2215 27.2467 21.0938 26.4239 21.9834 25.5915L23.2398 24.4159L34.9731 35.4039L33.9968 36.7166C33.5582 37.3065 33.0464 37.9162 32.5789 38.4733C32.386 38.703 32.2007 38.9238 32.0311 39.1306C31.4036 39.8957 30.9137 40.5563 30.5946 41.1853C30.2861 41.7936 30.1851 42.281 30.2314 42.723C30.277 43.1586 30.488 43.7618 31.1862 44.5634L31.1909 44.5688L31.1956 44.5742C31.7958 45.2743 32.2891 45.5491 32.648 45.6574C33.0005 45.7638 33.3876 45.7595 33.8693 45.6147C34.9581 45.2876 36.0894 44.4117 37.4871 43.3295L39.5605 41.7241L46.067 60.9533L43.8209 61.2215C42.8566 61.3367 41.9038 61.4426 40.9603 61.5475C38.1684 61.858 35.4579 62.1594 32.77 62.6637L32.7684 62.6639C25.7275 63.9787 18.7204 65.4148 11.7471 66.9723L11.7346 66.975L11.7222 66.9776C10.8279 67.1644 10.2641 67.486 9.96263 67.8239C9.71706 68.0991 9.49201 68.5497 9.62003 69.4482C9.74245 70.3072 10.0756 70.6704 10.4367 70.8897C10.8923 71.1663 11.6227 71.3405 12.676 71.3417C14.17 71.3232 15.662 71.2228 17.145 71.0409L17.1573 71.0394L17.1697 71.038C20.4855 70.6769 23.8149 70.2859 27.1535 69.8939C34.2503 69.0607 41.3885 68.2226 48.525 67.6551C56.9267 66.9791 65.3321 66.6672 73.7317 66.3555C75.4635 66.2912 77.195 66.227 78.9262 66.1596C80.1552 66.1119 81.3574 66.2707 82.3988 66.4136L82.5469 66.4339C83.5752 66.5753 84.452 66.6958 85.3151 66.6958H85.3964L85.4775 66.703C86.1916 66.7663 86.9041 66.5646 87.4789 66.1363C88.0537 65.7081 88.4504 65.0832 88.5932 64.3812L88.5964 64.3657L88.5998 64.3504C88.7536 63.6554 88.6399 62.9281 88.2812 62.3131C87.9225 61.6982 87.3452 61.2408 86.6644 61.0318L86.5656 61.0014L86.4708 60.9602C85.0658 60.3493 83.5647 59.9883 82.0354 59.8934C75.8245 59.6617 69.6079 59.5713 63.405 59.662C60.6846 59.7029 58.012 59.9337 55.1368 60.182C53.812 60.2964 52.4442 60.4145 51.009 60.5195L48.7329 60.686ZM82.126 58.0614C83.877 58.1673 85.5958 58.5793 87.2041 59.2787C88.3263 59.6232 89.2774 60.377 89.8684 61.3901C90.4593 62.4032 90.6467 63.6014 90.3933 64.7462C90.1606 65.8901 89.5141 66.9083 88.5774 67.6063C87.6406 68.3042 86.4792 68.6331 85.3151 68.5299C84.3217 68.5299 83.3283 68.3931 82.3371 68.2565C81.2203 68.1027 80.1062 67.9493 78.9978 67.9923C77.2593 68.06 75.5228 68.1244 73.788 68.1888C65.3887 68.5006 57.0298 68.8108 48.6709 69.4834C41.5686 70.0481 34.4898 70.8793 27.4122 71.7104C24.0649 72.1035 20.718 72.4965 17.3689 72.8613C15.8152 73.0518 14.2521 73.1568 12.6868 73.1758C10.2696 73.1758 8.18752 72.415 7.80158 69.7065C7.41564 66.9981 9.11175 65.649 11.3462 65.1824C18.3405 63.6202 25.3687 62.1798 32.4308 60.8611C35.1924 60.343 37.9999 60.0309 40.8101 59.7185C41.119 59.6842 41.4279 59.6498 41.7367 59.6152C42.359 59.5455 42.9812 59.4746 43.6028 59.4004L38.6465 44.7527C38.5816 44.8029 38.5164 44.8535 38.4509 44.9043C38.0145 45.2428 37.5644 45.5919 37.1032 45.9214C34.8373 47.5402 32.3021 48.685 29.8003 45.767C26.8763 42.4102 29.0475 39.8241 31.2131 37.2446C31.6652 36.7062 32.117 36.168 32.5222 35.6232L23.2393 26.9299C22.3617 27.751 21.4956 28.568 20.6343 29.3804C18.8143 31.0971 17.0158 32.7936 15.1751 34.4668C13.2401 36.2886 11.2058 38.0022 9.08129 39.5996C6.03437 41.8211 2.71324 41.5472 0.956182 39.1837C-0.800872 36.8201 -0.120397 33.777 2.86558 31.2613C5.89286 28.7189 8.90488 26.1562 11.9196 23.5912C12.6083 23.0053 13.297 22.4193 13.9862 21.8333C14.5167 21.3822 15.0475 20.9312 15.5785 20.4803C15.6032 20.4594 15.6278 20.4384 15.6525 20.4175L15.2868 19.5756C15.1946 19.6052 15.1022 19.6342 15.0097 19.6625C14.3959 19.8504 13.7738 20.0095 13.1454 20.1393C12.8013 20.2104 12.4554 20.2727 12.1079 20.3262C11.7012 20.3587 11.2851 20.4022 10.8644 20.4462C9.18428 20.6217 7.43145 20.8049 5.91249 20.3262C5.19681 20.0071 4.5685 19.5207 4.08062 18.9081C3.59274 18.2955 3.2596 17.5746 3.10933 16.8063C3.03172 15.8219 3.83778 14.7426 4.61658 13.6999C4.85695 13.3781 5.09472 13.0598 5.30311 12.7488C5.54192 12.4002 6.17943 12.2424 6.65226 12.1253C6.70227 12.113 6.75044 12.101 6.7961 12.0894L33.7207 6.00309C33.9056 5.97224 34.0921 5.95192 34.2793 5.94222C38.3372 5.60009 40.0328 6.73737 40.0229 10.3054C40.0213 10.8631 39.9781 11.4803 39.8957 12.1604C40.2113 12.1289 40.5268 12.1013 40.8393 12.074C41.1514 12.0467 41.4604 12.0196 41.7634 11.9892C42.1335 11.9521 42.4946 11.9099 42.8411 11.8561C44.5803 11.5989 46.3195 11.3331 48.0592 11.0673C51.3279 10.5677 54.598 10.068 57.8725 9.62444C59.6956 9.36922 61.5391 9.29109 63.3773 9.39114C68.293 9.68531 70.3852 13.8342 67.3789 17.7294C66.1021 19.3844 64.5213 20.7003 62.751 22.1739C62.5336 22.355 62.3133 22.5384 62.0903 22.7251C61.5584 23.1705 61.0114 23.6347 60.4522 24.1302C61.0626 24.3295 61.5343 24.4746 61.9184 24.5927C62.1402 24.661 62.3329 24.7202 62.5061 24.7757C62.8117 24.8737 63.057 24.9599 63.296 25.0634C64.2559 25.4859 65.2299 25.8867 66.2043 26.2875C68.622 27.2822 71.0414 28.2775 73.2493 29.6079C74.6143 30.414 75.7312 31.5793 76.4781 32.9765C77.225 34.3736 77.5731 35.9489 77.4845 37.5302C77.4134 39.63 76.4689 41.3342 74.3767 41.9529C72.2844 42.5717 70.8219 41.4255 69.5422 39.6909C68.4996 38.1084 67.1104 36.7833 65.4797 35.8159C62.8372 34.5115 60.0641 33.4565 57.3006 32.4052C56.3678 32.0503 55.436 31.6958 54.5108 31.3323C54.4784 31.319 54.4428 31.3032 54.4059 31.2868C54.2456 31.2156 54.0588 31.1326 53.9928 31.1903C53.3041 31.7095 52.5985 32.2139 51.8925 32.7186C49.9226 34.1266 47.9499 35.5367 46.3349 37.2766C45.6239 38.0374 46.3349 40.5531 46.924 42.0138C47.1627 42.577 47.4065 43.1386 47.6503 43.7004C49.4448 47.834 51.2425 51.9753 51.0452 56.8386C51.0206 57.4442 50.9651 58.0609 50.8748 58.6903C51.5069 58.6441 52.1306 58.5948 52.7471 58.544C53.4747 58.4841 54.1922 58.4222 54.9019 58.3609C57.8128 58.1097 60.5902 57.8701 63.3773 57.8281C69.6235 57.7368 75.8798 57.8281 82.126 58.0614ZM34.1014 12.3222L35.3387 14.7599C36.4656 16.98 37.1345 17.8951 37.7602 18.3381C38.269 18.6983 38.9699 18.8949 40.774 18.7799L40.777 18.7797L40.7799 18.7795C42.8495 18.6542 44.8486 18.3755 46.9528 18.0821C47.8353 17.9591 48.7364 17.8334 49.6689 17.7155L49.6764 17.7145L49.684 17.7136C50.3889 17.6303 51.0811 17.5244 51.8123 17.4126C52.0212 17.3806 52.2333 17.3481 52.4498 17.3156L53.861 17.1034L55.2446 20.379L54.1071 21.2401C53.1918 21.9328 52.2759 22.6283 51.3585 23.3249C48.0852 25.8105 44.7941 28.3095 41.4565 30.744L41.3032 30.8559L41.1301 30.934C40.5475 31.1972 39.9086 31.312 39.2706 31.2682C38.6326 31.2244 38.0155 31.0233 37.4745 30.6829L37.41 30.6424L37.3491 30.5966C34.8426 28.7132 32.3836 26.7668 29.883 24.7874C29.0887 24.1587 28.2902 23.5267 27.4847 22.8923L25.9757 21.7039L34.1014 12.3222ZM28.6222 21.4522C29.1062 21.8334 29.5867 22.213 30.0644 22.5908C30.3899 22.8482 30.7141 23.1048 31.0373 23.3606C33.5335 25.3365 35.9673 27.2629 38.4535 29.1311C38.7377 29.3098 39.0617 29.4154 39.3967 29.4384C39.7317 29.4615 40.0671 29.4012 40.3731 29.263C43.6949 26.84 46.9672 24.3553 50.2383 21.8714C50.5199 21.6576 50.8015 21.4438 51.0831 21.23C51.6683 20.7858 52.2535 20.3417 52.8392 19.8983C52.892 19.8583 52.9447 19.8184 52.9975 19.7785L52.7233 19.1292C52.6578 19.1391 52.5925 19.149 52.5271 19.1589C52.3875 19.1801 52.248 19.2014 52.1086 19.2228C51.5238 19.3123 50.9412 19.4014 50.3559 19.4781C50.2041 19.498 50.0521 19.517 49.8998 19.535C49.0196 19.6464 48.1479 19.7679 47.2806 19.8888C45.1453 20.1864 43.0362 20.4804 40.8911 20.6103C37.6392 20.8176 36.3242 20.2084 34.6321 17.3171C34.337 16.813 34.0306 16.2396 33.7003 15.589L28.6222 21.4522Z" fill="black"/>
<path d="M63.7327 86.6369C62.3103 86.5075 60.8792 86.5075 59.4568 86.6369C52.5505 88.1787 45.6645 89.8626 38.7581 91.4349C36.4444 92.0256 34.0876 92.4327 31.7096 92.6522C29.8307 92.7739 27.9822 91.6378 28.033 89.7104C28.0964 88.9426 28.3365 88.1999 28.7347 87.54C29.1328 86.8802 29.6782 86.3211 30.3283 85.9065C39.4691 82.0417 48.8333 78.5116 58.8982 77.7914C61.6536 77.61 64.4208 77.8011 67.1249 78.3595C71.9086 79.3739 74.2344 82.5489 72.975 87.2455C72.2843 89.9438 70.3242 92.3174 68.8007 94.8027C67.0843 97.5821 65.0327 100.159 63.4686 103.009C62.9193 104.019 62.13 104.878 61.1701 105.511C60.2102 106.144 59.1091 106.532 57.9638 106.641C52.7841 107.523 47.6145 108.456 42.4144 109.166C40.3222 109.45 39.7331 110.181 40.2511 112.21C40.5875 113.535 40.7379 114.9 40.698 116.267C40.6167 118.925 41.5714 119.655 44.3137 119.31C49.788 118.61 55.3029 118.296 60.8178 118.022C62.6577 117.975 64.4892 118.285 66.2108 118.935C67.3311 119.283 68.2903 120.018 68.9159 121.009C69.5414 122.001 69.7923 123.182 69.6234 124.342C69.5241 125.504 69.0264 126.597 68.2142 127.436C67.402 128.275 66.3249 128.809 65.1647 128.947C63.8887 129.112 62.6011 129.169 61.3155 129.119C53.5154 129.363 45.6746 129.119 38.1081 131.706C34.6651 132.873 31.669 130.458 31.5471 126.391C31.4151 121.978 31.5471 117.555 31.669 113.143C31.669 111.317 31.5471 109.947 29.6377 108.872C27.19 107.513 27.3119 104.297 29.7393 102.684C31.0707 101.872 32.5409 101.311 34.076 101.031C40.2105 99.7732 46.3619 98.5897 52.5302 97.4806C53.2325 97.368 53.8977 97.0892 54.4702 96.6675C55.0427 96.2457 55.5058 95.6932 55.8209 95.0563C57.2905 92.964 58.9422 91.0053 60.7569 89.2033C61.4272 88.5135 62.3006 87.8947 63.7327 86.6369Z" fill="#B3B3B3"/>
<path fill-rule="evenodd" clip-rule="evenodd" d="M68.1527 85.1972L64.9458 88.014C64.3109 88.5716 63.7783 89.0111 63.3424 89.3708C63.2693 89.4311 63.1988 89.4892 63.1311 89.5453C62.6459 89.9468 62.3321 90.216 62.075 90.4805L62.0637 90.4922L62.0521 90.5037C60.3442 92.1998 58.7869 94.0408 57.3977 96.0057C56.9555 96.8472 56.3276 97.5783 55.5607 98.1433C54.7575 98.7351 53.8249 99.1276 52.84 99.2885C46.6916 100.394 40.5601 101.574 34.4455 102.828L34.4259 102.832L34.4061 102.835C33.1058 103.072 31.8599 103.545 30.7298 104.23C29.9987 104.727 29.7091 105.388 29.6966 105.917C29.6847 106.419 29.9098 106.925 30.5304 107.269L30.5352 107.272L30.54 107.275C31.8069 107.988 32.6406 108.907 33.0857 110.073C33.4899 111.132 33.5058 112.248 33.5058 113.143V113.168L33.5051 113.193C33.5008 113.346 33.4966 113.499 33.4924 113.652C33.3741 117.921 33.2574 122.137 33.3831 126.336C33.4311 127.939 34.0333 129.016 34.7383 129.586C35.4126 130.131 36.3551 130.363 37.5161 129.97C44.2643 127.664 51.2407 127.513 57.8888 127.37C59.0224 127.345 60.1464 127.321 61.2581 127.286L61.3224 127.284L61.3867 127.287C62.57 127.333 63.755 127.279 64.9294 127.128L64.9383 127.127L64.9472 127.126C65.6877 127.038 66.3751 126.697 66.8936 126.162C67.4121 125.626 67.7299 124.928 67.7932 124.186L67.7979 124.131L67.8057 124.077C67.9117 123.35 67.7543 122.609 67.362 121.987C66.9696 121.366 66.368 120.904 65.6656 120.686L65.6128 120.67L65.5612 120.65C64.0686 120.087 62.4812 119.817 60.8862 119.855C55.3801 120.128 49.9361 120.44 44.547 121.129L44.5432 121.13C43.1462 121.306 41.497 121.336 40.2766 120.328C38.9956 119.271 38.8192 117.62 38.862 116.213C38.8969 115.016 38.7653 113.821 38.4709 112.661C38.191 111.564 38.0056 110.138 38.8692 108.954C39.6987 107.817 41.0812 107.497 42.1656 107.349C46.3593 106.777 50.5288 106.058 54.7369 105.333C55.7073 105.166 56.6797 104.999 57.6549 104.833L57.7224 104.821L57.7906 104.815C58.6361 104.735 59.4489 104.448 60.1576 103.981C60.8663 103.513 61.4491 102.879 61.8546 102.134L61.8562 102.131L61.8578 102.128C62.6864 100.618 63.6344 99.1976 64.5613 97.844C64.7278 97.6008 64.8933 97.3603 65.0574 97.1218C65.8202 96.0129 66.5541 94.9461 67.2358 93.8425C67.6368 93.1884 68.063 92.5472 68.4688 91.9376L68.4904 91.9052C68.8951 91.2971 69.2792 90.7201 69.6369 90.1411C70.3681 88.9573 70.9182 87.8745 71.1954 86.7913L71.198 86.7812L71.2007 86.7711C71.7283 84.8036 71.4489 83.4144 70.795 82.4497C70.1208 81.4551 68.8359 80.5982 66.748 80.1545C64.2091 79.6308 61.6111 79.4514 59.0243 79.6212C49.3441 80.3149 40.2722 83.699 31.203 87.5285C30.8415 87.7817 30.5364 88.1079 30.3079 88.4866C30.0658 88.8878 29.9159 89.3376 29.8689 89.8033C29.8731 90.0782 29.987 90.2885 30.2394 90.4748C30.5396 90.6963 31.0222 90.8537 31.5688 90.8233C33.8407 90.612 36.0925 90.2224 38.3031 89.658L38.3264 89.652L38.3498 89.6467C41.3681 88.9596 44.4138 88.2436 47.4665 87.526C51.3325 86.6171 55.2096 85.7057 59.0561 84.847L59.172 84.8211L59.2902 84.8103C60.8234 84.6709 62.3661 84.6709 63.8993 84.8103L68.1527 85.1972ZM31.7096 92.6522C29.8307 92.7739 27.9822 91.6378 28.033 89.7104C28.0964 88.9426 28.3365 88.1999 28.7347 87.54C29.1328 86.8802 29.6782 86.3211 30.3283 85.9065C39.4691 82.0417 48.8333 78.5116 58.8982 77.7914C61.6536 77.61 64.4208 77.8011 67.1249 78.3595C71.9086 79.3739 74.2344 82.5489 72.975 87.2455C72.4611 89.2532 71.2444 91.0812 70.0276 92.9091C69.6091 93.5379 69.1906 94.1666 68.8007 94.8027C68.0926 95.9494 67.3273 97.0616 66.5629 98.1727C65.4744 99.7547 64.3874 101.335 63.4686 103.009C62.9193 104.019 62.13 104.878 61.1701 105.511C60.2102 106.144 59.1091 106.532 57.9638 106.641C56.9962 106.805 56.0289 106.972 55.0617 107.139C50.8515 107.864 46.6431 108.589 42.4144 109.166C40.3222 109.45 39.7331 110.181 40.2511 112.21C40.5875 113.535 40.7379 114.9 40.698 116.267C40.6168 118.925 41.5714 119.655 44.3137 119.31C49.788 118.61 55.3029 118.296 60.8178 118.022C62.6577 117.975 64.4892 118.285 66.2108 118.935C67.3311 119.283 68.2903 120.018 68.9159 121.009C69.5415 122.001 69.7923 123.182 69.6234 124.342C69.5241 125.504 69.0264 126.597 68.2142 127.436C67.402 128.275 66.3249 128.809 65.1647 128.947C63.8887 129.112 62.6011 129.169 61.3155 129.119C60.1708 129.155 59.0253 129.18 57.8798 129.206C51.22 129.352 44.5642 129.499 38.1081 131.706C34.6651 132.873 31.669 130.458 31.5471 126.391C31.4198 122.137 31.5379 117.875 31.6558 113.621C31.6602 113.461 31.6646 113.302 31.669 113.143C31.669 111.317 31.5471 109.947 29.6377 108.872C27.19 107.513 27.3119 104.297 29.7393 102.684C31.0707 101.872 32.5409 101.311 34.076 101.031C40.2105 99.7732 46.3619 98.5897 52.5302 97.4806C53.2326 97.368 53.8977 97.0892 54.4702 96.6674C55.0427 96.2457 55.5058 95.6932 55.8209 95.0563C57.2905 92.964 58.9422 91.0053 60.7569 89.2033C61.022 88.9304 61.319 88.6686 61.6697 88.374C61.8267 88.2422 61.9944 88.1038 62.1749 87.9549C62.6106 87.5953 63.1206 87.1745 63.7327 86.6369C62.8229 86.5541 61.9095 86.5243 60.9971 86.5474C60.4831 86.5604 59.9694 86.5902 59.4568 86.6369C55.6044 87.4969 51.7582 88.4012 47.9113 89.3057C44.8619 90.0226 41.812 90.7397 38.7581 91.4349C36.4444 92.0256 34.0876 92.4327 31.7096 92.6522Z" fill="black"/>
<path d="M144.71 18.3991C143.694 28.7864 140.586 39.7012 129.333 46.4063C128.991 46.7406 128.731 47.1482 128.571 47.5982C128.411 48.0481 128.355 48.5286 128.409 49.0031C129.069 53.3548 130.298 57.6355 130.643 61.9974C131.303 70.2444 131.527 78.5319 131.882 86.8093C132.055 90.7451 130.135 93.4028 127.037 93.697C123.94 93.9911 121.695 91.9116 121.055 88.0773C120.677 85.4406 120.437 82.7861 120.334 80.1245C119.898 72.7803 119.684 65.4159 119.024 58.092C118.707 55.646 117.906 53.2874 116.668 51.1536C114.119 46.4671 115.195 41.4054 120.212 39.3563C129.536 35.5523 133.416 28.198 134.888 18.9164C135.802 13.0533 131.11 8.63053 125.311 10.2333C121.035 11.4099 117.673 13.9561 116.465 18.5106C115.998 20.2452 115.368 22.1117 113.418 21.6248C112.631 21.3756 111.903 20.9693 111.278 20.4305C110.653 19.8916 110.144 19.2316 109.782 18.4904C108.461 15.4472 109.152 12.3229 110.797 9.5029C117.45 -1.74664 131.781 -3.25808 140.657 6.30758C143.44 9.28988 144.842 12.7692 144.71 18.3991Z" fill="#B3B3B3"/>
<path fill-rule="evenodd" clip-rule="evenodd" d="M129.333 46.4063C140.586 39.7012 143.694 28.7864 144.71 18.3991C144.842 12.7692 143.44 9.28988 140.657 6.30758C131.781 -3.25808 117.45 -1.74664 110.797 9.5029C109.152 12.3229 108.461 15.4472 109.782 18.4904C110.144 19.2316 110.653 19.8916 111.278 20.4305C111.903 20.9693 112.631 21.3756 113.418 21.6248C115.368 22.1117 115.998 20.2452 116.465 18.5106C117.673 13.9561 121.035 11.4099 125.311 10.2333C131.11 8.63053 135.802 13.0533 134.888 18.9164C133.416 28.198 129.536 35.5523 120.212 39.3563C115.195 41.4054 114.119 46.4671 116.668 51.1536C117.906 53.2874 118.707 55.646 119.024 58.092C119.464 62.9746 119.706 67.8753 119.947 72.7759C120.068 75.2262 120.189 77.6765 120.334 80.1245C120.437 82.7861 120.677 85.4406 121.055 88.0773C121.695 91.9116 123.94 93.9912 127.037 93.697C130.135 93.4028 132.055 90.7451 131.882 86.8093C131.8 84.8887 131.724 82.9675 131.649 81.0465C131.399 74.6882 131.15 68.3308 130.643 61.9974C130.433 59.3505 129.899 56.7336 129.363 54.1125C129.016 52.4142 128.668 50.7141 128.409 49.0031C128.355 48.5286 128.411 48.0481 128.571 47.5982C128.731 47.1482 128.991 46.7406 129.333 46.4063ZM118.271 50.2573C119.623 52.5955 120.499 55.1784 120.846 57.8567L120.85 57.8921L120.853 57.9276C121.297 62.8458 121.542 67.8133 121.784 72.737C121.905 75.1778 122.025 77.6079 122.168 80.0158L122.169 80.0349L122.17 80.0541C122.269 82.645 122.503 85.2291 122.871 87.7958C123.146 89.4297 123.73 90.4882 124.381 91.0971C124.998 91.6743 125.801 91.972 126.864 91.8711C127.888 91.7739 128.655 91.3101 129.187 90.5593C129.742 89.7754 130.12 88.5566 130.047 86.8896L130.047 86.8879C129.964 84.9518 129.888 83.0206 129.812 81.0936C129.563 74.7428 129.316 68.4362 128.812 62.1435L128.812 62.1419C128.648 60.0755 128.273 58.0039 127.843 55.8565C127.753 55.4104 127.661 54.9594 127.568 54.5043C127.22 52.8 126.86 51.0399 126.593 49.2778L126.587 49.2431L126.583 49.2082C126.499 48.4569 126.586 47.6963 126.84 46.984C127.093 46.2717 127.506 45.6263 128.047 45.0969L128.203 44.9435L128.392 44.8313C138.868 38.5891 141.873 28.4465 142.875 18.2889C142.985 13.1061 141.712 10.1285 139.313 7.55789L139.31 7.55418C131.268 -1.11187 118.409 0.244983 112.382 10.4308C110.921 12.9366 110.465 15.4127 111.45 17.7224C111.702 18.2258 112.051 18.6744 112.478 19.0422C112.898 19.4044 113.385 19.681 113.911 19.8564C113.937 19.8618 113.959 19.865 113.975 19.8669C113.987 19.8538 114.001 19.836 114.019 19.8126C114.11 19.689 114.223 19.4797 114.347 19.1508C114.469 18.8278 114.577 18.4582 114.69 18.0375C116.111 12.6896 120.102 9.76459 124.822 8.46546C128.294 7.50596 131.582 8.33226 133.861 10.4252C136.13 12.5096 137.247 15.7093 136.703 19.1985L136.703 19.2034C135.168 28.8745 131.023 36.9267 120.908 41.0539M114.017 19.8693C114.022 19.8685 114.025 19.8684 114.025 19.8686C114.025 19.8687 114.022 19.8691 114.017 19.8693ZM118.271 50.2573C117.183 48.2476 116.948 46.3057 117.374 44.7501C117.79 43.2352 118.884 41.8805 120.907 41.0541" fill="black"/>
<path d="M165.733 60.9322C165.124 50.3725 164.393 39.8229 163.956 29.2631C163.702 23.1768 163.864 17.0905 163.956 11.0041C163.988 9.44116 164.352 7.90278 165.022 6.49012C165.264 5.85561 165.692 5.30869 166.25 4.9207C166.808 4.53272 167.47 4.32167 168.15 4.3151C168.83 4.30853 169.496 4.50674 170.061 4.88387C170.626 5.261 171.065 5.79955 171.319 6.42926C172.086 8.09482 172.543 9.88546 172.67 11.7142C174.904 35.3494 176.733 59.0049 176.448 82.772C176.497 84.3288 176.333 85.885 175.961 87.3976C175.648 88.5088 174.98 89.4875 174.058 90.1846C173.137 90.8817 172.013 91.2589 170.857 91.2589C169.701 91.2589 168.577 90.8817 167.656 90.1846C166.734 89.4875 166.066 88.5088 165.754 87.3976C165.419 86.072 165.268 84.7066 165.307 83.34C165.307 75.8843 165.307 68.4387 165.307 61.0235L165.733 60.9322Z" fill="#B3B3B3"/>
<path fill-rule="evenodd" clip-rule="evenodd" d="M167.143 62.5062L167.658 62.3961L167.567 60.8267C167.387 57.7159 167.198 54.6119 167.008 51.5118C166.553 44.0599 166.099 36.6311 165.791 29.1874L165.791 29.1868C165.577 24.046 165.662 18.9075 165.749 13.7065C165.764 12.8187 165.779 11.929 165.792 11.0372C165.82 9.7347 166.123 8.45279 166.682 7.27554L166.713 7.2104L166.739 7.14303C166.849 6.85297 167.045 6.60304 167.3 6.42578C167.555 6.24851 167.857 6.15211 168.168 6.1491C168.478 6.1461 168.783 6.23663 169.041 6.40894C169.299 6.58125 169.499 6.82736 169.616 7.11521L169.632 7.1556L169.65 7.19516C170.324 8.65918 170.726 10.2332 170.838 11.8406L170.839 11.8636L170.841 11.8866C173.075 35.5084 174.895 59.0844 174.612 82.7501L174.611 82.7898L174.612 82.8295C174.656 84.2087 174.512 85.5874 174.185 86.928C173.977 87.6433 173.544 88.2728 172.949 88.7228C172.347 89.1783 171.612 89.4248 170.857 89.4248C170.102 89.4248 169.367 89.1783 168.765 88.7228C168.169 88.2718 167.735 87.6404 167.528 86.9231C167.239 85.7691 167.109 84.5808 167.143 83.3916L167.143 83.3658V62.5062ZM165.754 87.3976C165.419 86.072 165.268 84.7066 165.307 83.34V61.0235L165.733 60.9322C165.554 57.8351 165.365 54.7388 165.176 51.6429C164.72 44.1832 164.264 36.7257 163.956 29.2631C163.739 24.0644 163.826 18.8656 163.913 13.6669C163.928 12.7793 163.943 11.8917 163.956 11.0041C163.988 9.44116 164.352 7.90278 165.022 6.49012C165.264 5.85561 165.692 5.30869 166.25 4.9207C166.808 4.53272 167.47 4.32167 168.15 4.3151C168.83 4.30853 169.496 4.50674 170.061 4.88387C170.626 5.261 171.065 5.79955 171.319 6.42926C172.086 8.09482 172.543 9.88546 172.67 11.7142C174.904 35.3494 176.733 59.0049 176.448 82.772C176.497 84.3288 176.333 85.885 175.961 87.3976C175.648 88.5088 174.98 89.4875 174.058 90.1846C173.137 90.8817 172.013 91.2589 170.857 91.2589C169.701 91.2589 168.577 90.8817 167.656 90.1846C166.734 89.4875 166.066 88.5088 165.754 87.3976Z" fill="black"/>
<path d="M124.224 116.835C124.092 113.65 125.707 111.692 128.541 111.601C132.197 111.469 136.412 114.806 136.493 117.88C136.584 121.146 133.923 124.24 130.937 124.352C127.139 124.555 124.407 121.4 124.224 116.835Z" fill="#B3B3B3"/>
<path fill-rule="evenodd" clip-rule="evenodd" d="M126.059 116.759L126.059 116.762C126.137 118.71 126.754 120.209 127.601 121.167C128.423 122.096 129.519 122.591 130.839 122.52L130.854 122.52L130.869 122.519C131.744 122.486 132.706 122.001 133.475 121.105C134.239 120.215 134.688 119.059 134.657 117.931L134.657 117.928C134.637 117.162 134.029 116.013 132.717 114.977C131.445 113.971 129.892 113.387 128.607 113.434L128.603 113.434L128.6 113.434C127.615 113.466 127.037 113.8 126.688 114.224C126.314 114.678 126.006 115.475 126.059 116.759ZM124.224 116.835C124.092 113.65 125.707 111.692 128.541 111.601C132.197 111.469 136.412 114.806 136.493 117.88C136.584 121.146 133.923 124.24 130.937 124.352C127.139 124.555 124.407 121.4 124.224 116.835Z" fill="black"/>
<path d="M167.023 118.134C167.023 114.908 169.156 112.443 172.101 112.352C175.27 112.26 177.982 115.182 177.992 118.702C178.032 119.437 177.922 120.173 177.67 120.866C177.418 121.558 177.028 122.192 176.525 122.73C176.021 123.268 175.414 123.699 174.739 123.997C174.064 124.295 173.337 124.454 172.599 124.463C169.43 124.443 167.033 121.704 167.023 118.134Z" fill="#B3B3B3"/>
<path fill-rule="evenodd" clip-rule="evenodd" d="M177.992 118.702C177.982 115.182 175.27 112.26 172.101 112.352C169.156 112.443 167.023 114.908 167.023 118.134C167.033 121.704 169.43 124.443 172.599 124.463C173.337 124.454 174.064 124.295 174.739 123.997C175.414 123.699 176.021 123.268 176.525 122.73C177.028 122.192 177.418 121.558 177.67 120.866C177.922 120.173 178.032 119.437 177.992 118.702ZM172.593 122.629C173.076 122.62 173.554 122.515 173.996 122.32C174.445 122.122 174.848 121.835 175.183 121.478C175.518 121.12 175.776 120.699 175.944 120.239C176.112 119.779 176.184 119.289 176.158 118.801L176.155 118.754L176.155 118.707C176.148 116.025 174.108 114.13 172.156 114.185C170.377 114.241 168.861 115.716 168.86 118.131C168.869 120.909 170.65 122.606 172.593 122.629Z" fill="black"/>
</svg>
